solid OpenSCAD_Model
  facet normal 0.994522 0.104528 0
    outer loop
      vertex 47 0 -12
      vertex 45.9729 9.77185 -17
      vertex 45.9729 9.77185 -12
    endloop
  endfacet
  facet normal 0.994522 0.104528 0
    outer loop
      vertex 45.9729 9.77185 -17
      vertex 47 0 -12
      vertex 47 0 -17
    endloop
  endfacet
  facet normal -0.994522 0.104528 0
    outer loop
      vertex -47 0 -17
      vertex -45.9729 9.77185 -12
      vertex -45.9729 9.77185 -17
    endloop
  endfacet
  facet normal -0.994522 0.104528 0
    outer loop
      vertex -45.9729 9.77185 -12
      vertex -47 0 -17
      vertex -47 0 -12
    endloop
  endfacet
  facet normal 0 1 -0
    outer loop
      vertex 4.91284 46.7425 -17
      vertex -4.91284 46.7425 -12
      vertex 4.91284 46.7425 -12
    endloop
  endfacet
  facet normal 0 1 0
    outer loop
      vertex -4.91284 46.7425 -12
      vertex 4.91284 46.7425 -17
      vertex -4.91284 46.7425 -17
    endloop
  endfacet
  facet normal 0 -1 0
    outer loop
      vertex -4.91284 -46.7425 -17
      vertex 4.91284 -46.7425 -12
      vertex -4.91284 -46.7425 -12
    endloop
  endfacet
  facet normal 0 -1 -0
    outer loop
      vertex 4.91284 -46.7425 -12
      vertex -4.91284 -46.7425 -17
      vertex 4.91284 -46.7425 -17
    endloop
  endfacet
  facet normal 0.587785 0.809017 -0
    outer loop
      vertex 31.4491 34.9278 -17
      vertex 23.5 40.7032 -12
      vertex 31.4491 34.9278 -12
    endloop
  endfacet
  facet normal 0.587785 0.809017 0
    outer loop
      vertex 23.5 40.7032 -12
      vertex 31.4491 34.9278 -17
      vertex 23.5 40.7032 -17
    endloop
  endfacet
  facet normal -0.587785 0.809017 0
    outer loop
      vertex -23.5 40.7032 -17
      vertex -31.4491 34.9278 -12
      vertex -23.5 40.7032 -12
    endloop
  endfacet
  facet normal -0.587785 0.809017 0
    outer loop
      vertex -31.4491 34.9278 -12
      vertex -23.5 40.7032 -17
      vertex -31.4491 34.9278 -17
    endloop
  endfacet
  facet normal -0.406736 0.913546 0
    outer loop
      vertex -14.5238 44.6997 -17
      vertex -23.5 40.7032 -12
      vertex -14.5238 44.6997 -12
    endloop
  endfacet
  facet normal -0.406736 0.913546 0
    outer loop
      vertex -23.5 40.7032 -12
      vertex -14.5238 44.6997 -17
      vertex -23.5 40.7032 -17
    endloop
  endfacet
  facet normal 0.951057 -0.309017 0
    outer loop
      vertex 42.9366 -19.1166 -12
      vertex 45.9729 -9.77185 -17
      vertex 45.9729 -9.77185 -12
    endloop
  endfacet
  facet normal 0.951057 -0.309017 0
    outer loop
      vertex 45.9729 -9.77185 -17
      vertex 42.9366 -19.1166 -12
      vertex 42.9366 -19.1166 -17
    endloop
  endfacet
  facet normal 0.866025 0.5 0
    outer loop
      vertex 42.9366 19.1166 -12
      vertex 38.0238 27.6259 -17
      vertex 38.0238 27.6259 -12
    endloop
  endfacet
  facet normal 0.866025 0.5 0
    outer loop
      vertex 38.0238 27.6259 -17
      vertex 42.9366 19.1166 -12
      vertex 42.9366 19.1166 -17
    endloop
  endfacet
  facet normal 0.951057 0.309017 0
    outer loop
      vertex 45.9729 9.77185 -12
      vertex 42.9366 19.1166 -17
      vertex 42.9366 19.1166 -12
    endloop
  endfacet
  facet normal 0.951057 0.309017 0
    outer loop
      vertex 42.9366 19.1166 -17
      vertex 45.9729 9.77185 -12
      vertex 45.9729 9.77185 -17
    endloop
  endfacet
  facet normal 0.743145 0.66913 0
    outer loop
      vertex 38.0238 27.6259 -12
      vertex 31.4491 34.9278 -17
      vertex 31.4491 34.9278 -12
    endloop
  endfacet
  facet normal 0.743145 0.66913 0
    outer loop
      vertex 31.4491 34.9278 -17
      vertex 38.0238 27.6259 -12
      vertex 38.0238 27.6259 -17
    endloop
  endfacet
  facet normal 0.207912 0.978148 -0
    outer loop
      vertex 14.5238 44.6997 -17
      vertex 4.91284 46.7425 -12
      vertex 14.5238 44.6997 -12
    endloop
  endfacet
  facet normal 0.207912 0.978148 0
    outer loop
      vertex 4.91284 46.7425 -12
      vertex 14.5238 44.6997 -17
      vertex 4.91284 46.7425 -17
    endloop
  endfacet
  facet normal 0.406736 0.913546 -0
    outer loop
      vertex 23.5 40.7032 -17
      vertex 14.5238 44.6997 -12
      vertex 23.5 40.7032 -12
    endloop
  endfacet
  facet normal 0.406736 0.913546 0
    outer loop
      vertex 14.5238 44.6997 -12
      vertex 23.5 40.7032 -17
      vertex 14.5238 44.6997 -17
    endloop
  endfacet
  facet normal -0.866025 0.5 0
    outer loop
      vertex -42.9366 19.1166 -17
      vertex -38.0238 27.6259 -12
      vertex -38.0238 27.6259 -17
    endloop
  endfacet
  facet normal -0.866025 0.5 0
    outer loop
      vertex -38.0238 27.6259 -12
      vertex -42.9366 19.1166 -17
      vertex -42.9366 19.1166 -12
    endloop
  endfacet
  facet normal -0.743145 0.66913 0
    outer loop
      vertex -38.0238 27.6259 -17
      vertex -31.4491 34.9278 -12
      vertex -31.4491 34.9278 -17
    endloop
  endfacet
  facet normal -0.743145 0.66913 0
    outer loop
      vertex -31.4491 34.9278 -12
      vertex -38.0238 27.6259 -17
      vertex -38.0238 27.6259 -12
    endloop
  endfacet
  facet normal -0.951057 0.309017 0
    outer loop
      vertex -45.9729 9.77185 -17
      vertex -42.9366 19.1166 -12
      vertex -42.9366 19.1166 -17
    endloop
  endfacet
  facet normal -0.951057 0.309017 0
    outer loop
      vertex -42.9366 19.1166 -12
      vertex -45.9729 9.77185 -17
      vertex -45.9729 9.77185 -12
    endloop
  endfacet
  facet normal 0 0 1
    outer loop
      vertex 45 0 -12
      vertex 47 0 -12
      vertex 45.9729 9.77185 -12
    endloop
  endfacet
  facet normal 0 0 1
    outer loop
      vertex 47 0 -12
      vertex 45 0 -12
      vertex 45.9729 -9.77185 -12
    endloop
  endfacet
  facet normal 0 0 1
    outer loop
      vertex 45.9729 9.77185 -12
      vertex 44.0166 9.35603 -12
      vertex 45 0 -12
    endloop
  endfacet
  facet normal 0 0 1
    outer loop
      vertex 42.9366 19.1166 -12
      vertex 44.0166 9.35603 -12
      vertex 45.9729 9.77185 -12
    endloop
  endfacet
  facet normal 0 0 1
    outer loop
      vertex 42.9366 19.1166 -12
      vertex 41.1095 18.3031 -12
      vertex 44.0166 9.35603 -12
    endloop
  endfacet
  facet normal 0 0 1
    outer loop
      vertex 38.0238 27.6259 -12
      vertex 41.1095 18.3031 -12
      vertex 42.9366 19.1166 -12
    endloop
  endfacet
  facet normal 0 0 1
    outer loop
      vertex 38.0238 27.6259 -12
      vertex 36.4058 26.4503 -12
      vertex 41.1095 18.3031 -12
    endloop
  endfacet
  facet normal 0 0 1
    outer loop
      vertex 31.4491 34.9278 -12
      vertex 36.4058 26.4503 -12
      vertex 38.0238 27.6259 -12
    endloop
  endfacet
  facet normal 0 0 1
    outer loop
      vertex 31.4491 34.9278 -12
      vertex 30.1109 33.4415 -12
      vertex 36.4058 26.4503 -12
    endloop
  endfacet
  facet normal 0 0 1
    outer loop
      vertex 23.5 40.7032 -12
      vertex 30.1109 33.4415 -12
      vertex 31.4491 34.9278 -12
    endloop
  endfacet
  facet normal 0 0 1
    outer loop
      vertex 23.5 40.7032 -12
      vertex 22.5 38.9711 -12
      vertex 30.1109 33.4415 -12
    endloop
  endfacet
  facet normal 0 0 1
    outer loop
      vertex 14.5238 44.6997 -12
      vertex 22.5 38.9711 -12
      vertex 23.5 40.7032 -12
    endloop
  endfacet
  facet normal 0 0 1
    outer loop
      vertex 14.5238 44.6997 -12
      vertex 13.9058 42.7975 -12
      vertex 22.5 38.9711 -12
    endloop
  endfacet
  facet normal 0 0 1
    outer loop
      vertex 4.91284 46.7425 -12
      vertex 13.9058 42.7975 -12
      vertex 14.5238 44.6997 -12
    endloop
  endfacet
  facet normal 0 0 1
    outer loop
      vertex 4.91284 46.7425 -12
      vertex 4.70378 44.7535 -12
      vertex 13.9058 42.7975 -12
    endloop
  endfacet
  facet normal 0 0 1
    outer loop
      vertex 4.91284 46.7425 -12
      vertex -4.70378 44.7535 -12
      vertex 4.70378 44.7535 -12
    endloop
  endfacet
  facet normal -0 0 1
    outer loop
      vertex -4.91284 46.7425 -12
      vertex -4.70378 44.7535 -12
      vertex 4.91284 46.7425 -12
    endloop
  endfacet
  facet normal 0 0 1
    outer loop
      vertex -4.91284 46.7425 -12
      vertex -13.9058 42.7975 -12
      vertex -4.70378 44.7535 -12
    endloop
  endfacet
  facet normal -0 0 1
    outer loop
      vertex -14.5238 44.6997 -12
      vertex -13.9058 42.7975 -12
      vertex -4.91284 46.7425 -12
    endloop
  endfacet
  facet normal 0 0 1
    outer loop
      vertex -14.5238 44.6997 -12
      vertex -22.5 38.9711 -12
      vertex -13.9058 42.7975 -12
    endloop
  endfacet
  facet normal -0 0 1
    outer loop
      vertex -23.5 40.7032 -12
      vertex -22.5 38.9711 -12
      vertex -14.5238 44.6997 -12
    endloop
  endfacet
  facet normal 0 0 1
    outer loop
      vertex -23.5 40.7032 -12
      vertex -30.1109 33.4415 -12
      vertex -22.5 38.9711 -12
    endloop
  endfacet
  facet normal -0 0 1
    outer loop
      vertex -31.4491 34.9278 -12
      vertex -30.1109 33.4415 -12
      vertex -23.5 40.7032 -12
    endloop
  endfacet
  facet normal 0 0 1
    outer loop
      vertex -31.4491 34.9278 -12
      vertex -36.4058 26.4503 -12
      vertex -30.1109 33.4415 -12
    endloop
  endfacet
  facet normal -0 0 1
    outer loop
      vertex -38.0238 27.6259 -12
      vertex -36.4058 26.4503 -12
      vertex -31.4491 34.9278 -12
    endloop
  endfacet
  facet normal 0 0 1
    outer loop
      vertex -38.0238 27.6259 -12
      vertex -41.1095 18.3031 -12
      vertex -36.4058 26.4503 -12
    endloop
  endfacet
  facet normal -0 0 1
    outer loop
      vertex -42.9366 19.1166 -12
      vertex -41.1095 18.3031 -12
      vertex -38.0238 27.6259 -12
    endloop
  endfacet
  facet normal 0 0 1
    outer loop
      vertex -42.9366 19.1166 -12
      vertex -44.0166 9.35603 -12
      vertex -41.1095 18.3031 -12
    endloop
  endfacet
  facet normal 0 0 1
    outer loop
      vertex -44.0166 9.35603 -12
      vertex -45.9729 9.77185 -12
      vertex -45 0 -12
    endloop
  endfacet
  facet normal -0 0 1
    outer loop
      vertex -45.9729 9.77185 -12
      vertex -44.0166 9.35603 -12
      vertex -42.9366 19.1166 -12
    endloop
  endfacet
  facet normal -0 0 1
    outer loop
      vertex 44.0166 -9.35603 -12
      vertex 45.9729 -9.77185 -12
      vertex 45 0 -12
    endloop
  endfacet
  facet normal 0 0 1
    outer loop
      vertex 44.0166 -9.35603 -12
      vertex 42.9366 -19.1166 -12
      vertex 45.9729 -9.77185 -12
    endloop
  endfacet
  facet normal -0 0 1
    outer loop
      vertex 41.1095 -18.3031 -12
      vertex 42.9366 -19.1166 -12
      vertex 44.0166 -9.35603 -12
    endloop
  endfacet
  facet normal 0 0 1
    outer loop
      vertex 41.1095 -18.3031 -12
      vertex 38.0238 -27.6259 -12
      vertex 42.9366 -19.1166 -12
    endloop
  endfacet
  facet normal -0 0 1
    outer loop
      vertex 36.4058 -26.4503 -12
      vertex 38.0238 -27.6259 -12
      vertex 41.1095 -18.3031 -12
    endloop
  endfacet
  facet normal 0 0 1
    outer loop
      vertex 36.4058 -26.4503 -12
      vertex 31.4491 -34.9278 -12
      vertex 38.0238 -27.6259 -12
    endloop
  endfacet
  facet normal -0 0 1
    outer loop
      vertex 30.1109 -33.4415 -12
      vertex 31.4491 -34.9278 -12
      vertex 36.4058 -26.4503 -12
    endloop
  endfacet
  facet normal 0 0 1
    outer loop
      vertex 30.1109 -33.4415 -12
      vertex 23.5 -40.7032 -12
      vertex 31.4491 -34.9278 -12
    endloop
  endfacet
  facet normal -0 0 1
    outer loop
      vertex 22.5 -38.9711 -12
      vertex 23.5 -40.7032 -12
      vertex 30.1109 -33.4415 -12
    endloop
  endfacet
  facet normal 0 0 1
    outer loop
      vertex 22.5 -38.9711 -12
      vertex 14.5238 -44.6997 -12
      vertex 23.5 -40.7032 -12
    endloop
  endfacet
  facet normal -0 0 1
    outer loop
      vertex 13.9058 -42.7975 -12
      vertex 14.5238 -44.6997 -12
      vertex 22.5 -38.9711 -12
    endloop
  endfacet
  facet normal 0 0 1
    outer loop
      vertex 13.9058 -42.7975 -12
      vertex 4.91284 -46.7425 -12
      vertex 14.5238 -44.6997 -12
    endloop
  endfacet
  facet normal -0 0 1
    outer loop
      vertex 4.70378 -44.7535 -12
      vertex 4.91284 -46.7425 -12
      vertex 13.9058 -42.7975 -12
    endloop
  endfacet
  facet normal -0 0 1
    outer loop
      vertex -4.70378 -44.7535 -12
      vertex 4.91284 -46.7425 -12
      vertex 4.70378 -44.7535 -12
    endloop
  endfacet
  facet normal 0 0 1
    outer loop
      vertex -4.70378 -44.7535 -12
      vertex -4.91284 -46.7425 -12
      vertex 4.91284 -46.7425 -12
    endloop
  endfacet
  facet normal 0 0 1
    outer loop
      vertex -13.9058 -42.7975 -12
      vertex -4.91284 -46.7425 -12
      vertex -4.70378 -44.7535 -12
    endloop
  endfacet
  facet normal 0 0 1
    outer loop
      vertex -13.9058 -42.7975 -12
      vertex -14.5238 -44.6997 -12
      vertex -4.91284 -46.7425 -12
    endloop
  endfacet
  facet normal 0 0 1
    outer loop
      vertex -22.5 -38.9711 -12
      vertex -14.5238 -44.6997 -12
      vertex -13.9058 -42.7975 -12
    endloop
  endfacet
  facet normal 0 0 1
    outer loop
      vertex -22.5 -38.9711 -12
      vertex -23.5 -40.7032 -12
      vertex -14.5238 -44.6997 -12
    endloop
  endfacet
  facet normal 0 0 1
    outer loop
      vertex -30.1109 -33.4415 -12
      vertex -23.5 -40.7032 -12
      vertex -22.5 -38.9711 -12
    endloop
  endfacet
  facet normal 0 0 1
    outer loop
      vertex -30.1109 -33.4415 -12
      vertex -31.4491 -34.9278 -12
      vertex -23.5 -40.7032 -12
    endloop
  endfacet
  facet normal 0 0 1
    outer loop
      vertex -36.4058 -26.4503 -12
      vertex -31.4491 -34.9278 -12
      vertex -30.1109 -33.4415 -12
    endloop
  endfacet
  facet normal 0 0 1
    outer loop
      vertex -36.4058 -26.4503 -12
      vertex -38.0238 -27.6259 -12
      vertex -31.4491 -34.9278 -12
    endloop
  endfacet
  facet normal 0 0 1
    outer loop
      vertex -41.1095 -18.3031 -12
      vertex -38.0238 -27.6259 -12
      vertex -36.4058 -26.4503 -12
    endloop
  endfacet
  facet normal 0 0 1
    outer loop
      vertex -41.1095 -18.3031 -12
      vertex -42.9366 -19.1166 -12
      vertex -38.0238 -27.6259 -12
    endloop
  endfacet
  facet normal 0 0 1
    outer loop
      vertex -44.0166 -9.35603 -12
      vertex -42.9366 -19.1166 -12
      vertex -41.1095 -18.3031 -12
    endloop
  endfacet
  facet normal 0 0 1
    outer loop
      vertex -44.0166 -9.35603 -12
      vertex -45.9729 -9.77185 -12
      vertex -42.9366 -19.1166 -12
    endloop
  endfacet
  facet normal 0 0 1
    outer loop
      vertex -45 0 -12
      vertex -45.9729 -9.77185 -12
      vertex -44.0166 -9.35603 -12
    endloop
  endfacet
  facet normal 0 0 1
    outer loop
      vertex -47 0 -12
      vertex -45 0 -12
      vertex -45.9729 9.77185 -12
    endloop
  endfacet
  facet normal 0 0 1
    outer loop
      vertex -45 0 -12
      vertex -47 0 -12
      vertex -45.9729 -9.77185 -12
    endloop
  endfacet
  facet normal -0.207912 0.978148 0
    outer loop
      vertex -4.91284 46.7425 -17
      vertex -14.5238 44.6997 -12
      vertex -4.91284 46.7425 -12
    endloop
  endfacet
  facet normal -0.207912 0.978148 0
    outer loop
      vertex -14.5238 44.6997 -12
      vertex -4.91284 46.7425 -17
      vertex -14.5238 44.6997 -17
    endloop
  endfacet
  facet normal 0.994522 -0.104528 0
    outer loop
      vertex 45.9729 -9.77185 -12
      vertex 47 0 -17
      vertex 47 0 -12
    endloop
  endfacet
  facet normal 0.994522 -0.104528 0
    outer loop
      vertex 47 0 -17
      vertex 45.9729 -9.77185 -12
      vertex 45.9729 -9.77185 -17
    endloop
  endfacet
  facet normal 0.866025 -0.5 0
    outer loop
      vertex 38.0238 -27.6259 -12
      vertex 42.9366 -19.1166 -17
      vertex 42.9366 -19.1166 -12
    endloop
  endfacet
  facet normal 0.866025 -0.5 0
    outer loop
      vertex 42.9366 -19.1166 -17
      vertex 38.0238 -27.6259 -12
      vertex 38.0238 -27.6259 -17
    endloop
  endfacet
  facet normal -0.866025 -0.5 0
    outer loop
      vertex -38.0238 -27.6259 -17
      vertex -42.9366 -19.1166 -12
      vertex -42.9366 -19.1166 -17
    endloop
  endfacet
  facet normal -0.866025 -0.5 0
    outer loop
      vertex -42.9366 -19.1166 -12
      vertex -38.0238 -27.6259 -17
      vertex -38.0238 -27.6259 -12
    endloop
  endfacet
  facet normal -0.743145 -0.66913 0
    outer loop
      vertex -31.4491 -34.9278 -17
      vertex -38.0238 -27.6259 -12
      vertex -38.0238 -27.6259 -17
    endloop
  endfacet
  facet normal -0.743145 -0.66913 0
    outer loop
      vertex -38.0238 -27.6259 -12
      vertex -31.4491 -34.9278 -17
      vertex -31.4491 -34.9278 -12
    endloop
  endfacet
  facet normal 0.587785 -0.809017 0
    outer loop
      vertex 23.5 -40.7032 -17
      vertex 31.4491 -34.9278 -12
      vertex 23.5 -40.7032 -12
    endloop
  endfacet
  facet normal 0.587785 -0.809017 0
    outer loop
      vertex 31.4491 -34.9278 -12
      vertex 23.5 -40.7032 -17
      vertex 31.4491 -34.9278 -17
    endloop
  endfacet
  facet normal -0.207912 -0.978148 0
    outer loop
      vertex -14.5238 -44.6997 -17
      vertex -4.91284 -46.7425 -12
      vertex -14.5238 -44.6997 -12
    endloop
  endfacet
  facet normal -0.207912 -0.978148 -0
    outer loop
      vertex -4.91284 -46.7425 -12
      vertex -14.5238 -44.6997 -17
      vertex -4.91284 -46.7425 -17
    endloop
  endfacet
  facet normal -0.951057 -0.309017 0
    outer loop
      vertex -42.9366 -19.1166 -17
      vertex -45.9729 -9.77185 -12
      vertex -45.9729 -9.77185 -17
    endloop
  endfacet
  facet normal -0.951057 -0.309017 0
    outer loop
      vertex -45.9729 -9.77185 -12
      vertex -42.9366 -19.1166 -17
      vertex -42.9366 -19.1166 -12
    endloop
  endfacet
  facet normal -0.994522 -0.104528 0
    outer loop
      vertex -45.9729 -9.77185 -17
      vertex -47 0 -12
      vertex -47 0 -17
    endloop
  endfacet
  facet normal -0.994522 -0.104528 0
    outer loop
      vertex -47 0 -12
      vertex -45.9729 -9.77185 -17
      vertex -45.9729 -9.77185 -12
    endloop
  endfacet
  facet normal 0.406736 -0.913546 0
    outer loop
      vertex 14.5238 -44.6997 -17
      vertex 23.5 -40.7032 -12
      vertex 14.5238 -44.6997 -12
    endloop
  endfacet
  facet normal 0.406736 -0.913546 0
    outer loop
      vertex 23.5 -40.7032 -12
      vertex 14.5238 -44.6997 -17
      vertex 23.5 -40.7032 -17
    endloop
  endfacet
  facet normal 0.207912 -0.978148 0
    outer loop
      vertex 4.91284 -46.7425 -17
      vertex 14.5238 -44.6997 -12
      vertex 4.91284 -46.7425 -12
    endloop
  endfacet
  facet normal 0.207912 -0.978148 0
    outer loop
      vertex 14.5238 -44.6997 -12
      vertex 4.91284 -46.7425 -17
      vertex 14.5238 -44.6997 -17
    endloop
  endfacet
  facet normal 0.743145 -0.66913 0
    outer loop
      vertex 31.4491 -34.9278 -12
      vertex 38.0238 -27.6259 -17
      vertex 38.0238 -27.6259 -12
    endloop
  endfacet
  facet normal 0.743145 -0.66913 0
    outer loop
      vertex 38.0238 -27.6259 -17
      vertex 31.4491 -34.9278 -12
      vertex 31.4491 -34.9278 -17
    endloop
  endfacet
  facet normal -0.406736 -0.913546 0
    outer loop
      vertex -23.5 -40.7032 -17
      vertex -14.5238 -44.6997 -12
      vertex -23.5 -40.7032 -12
    endloop
  endfacet
  facet normal -0.406736 -0.913546 -0
    outer loop
      vertex -14.5238 -44.6997 -12
      vertex -23.5 -40.7032 -17
      vertex -14.5238 -44.6997 -17
    endloop
  endfacet
  facet normal -0.587785 -0.809017 0
    outer loop
      vertex -31.4491 -34.9278 -17
      vertex -23.5 -40.7032 -12
      vertex -31.4491 -34.9278 -12
    endloop
  endfacet
  facet normal -0.587785 -0.809017 -0
    outer loop
      vertex -23.5 -40.7032 -12
      vertex -31.4491 -34.9278 -17
      vertex -23.5 -40.7032 -17
    endloop
  endfacet
  facet normal -0.994522 -0.104529 0
    outer loop
      vertex 45 0 -17
      vertex 44.0166 9.35603 -12
      vertex 44.0166 9.35603 -17
    endloop
  endfacet
  facet normal -0.994522 -0.104529 0
    outer loop
      vertex 44.0166 9.35603 -12
      vertex 45 0 -17
      vertex 45 0 -12
    endloop
  endfacet
  facet normal 0.994522 -0.104529 0
    outer loop
      vertex -45 0 -12
      vertex -44.0166 9.35603 -17
      vertex -44.0166 9.35603 -12
    endloop
  endfacet
  facet normal 0.994522 -0.104529 0
    outer loop
      vertex -44.0166 9.35603 -17
      vertex -45 0 -12
      vertex -45 0 -17
    endloop
  endfacet
  facet normal 0 -1 0
    outer loop
      vertex -4.70378 44.7535 -17
      vertex 4.70378 44.7535 -12
      vertex -4.70378 44.7535 -12
    endloop
  endfacet
  facet normal 0 -1 -0
    outer loop
      vertex 4.70378 44.7535 -12
      vertex -4.70378 44.7535 -17
      vertex 4.70378 44.7535 -17
    endloop
  endfacet
  facet normal 0 1 -0
    outer loop
      vertex 4.70378 -44.7535 -17
      vertex -4.70378 -44.7535 -12
      vertex 4.70378 -44.7535 -12
    endloop
  endfacet
  facet normal 0 1 0
    outer loop
      vertex -4.70378 -44.7535 -12
      vertex 4.70378 -44.7535 -17
      vertex -4.70378 -44.7535 -17
    endloop
  endfacet
  facet normal -0.743145 -0.669131 0
    outer loop
      vertex 36.4058 26.4503 -17
      vertex 30.1109 33.4415 -12
      vertex 30.1109 33.4415 -17
    endloop
  endfacet
  facet normal -0.743145 -0.669131 0
    outer loop
      vertex 30.1109 33.4415 -12
      vertex 36.4058 26.4503 -17
      vertex 36.4058 26.4503 -12
    endloop
  endfacet
  facet normal 0.587785 -0.809017 0
    outer loop
      vertex -30.1109 33.4415 -17
      vertex -22.5 38.9711 -12
      vertex -30.1109 33.4415 -12
    endloop
  endfacet
  facet normal 0.587785 -0.809017 0
    outer loop
      vertex -22.5 38.9711 -12
      vertex -30.1109 33.4415 -17
      vertex -22.5 38.9711 -17
    endloop
  endfacet
  facet normal 0.207912 -0.978148 0
    outer loop
      vertex -13.9058 42.7975 -17
      vertex -4.70378 44.7535 -12
      vertex -13.9058 42.7975 -12
    endloop
  endfacet
  facet normal 0.207912 -0.978148 0
    outer loop
      vertex -4.70378 44.7535 -12
      vertex -13.9058 42.7975 -17
      vertex -4.70378 44.7535 -17
    endloop
  endfacet
  facet normal -0.866026 -0.5 0
    outer loop
      vertex 41.1095 18.3031 -17
      vertex 36.4058 26.4503 -12
      vertex 36.4058 26.4503 -17
    endloop
  endfacet
  facet normal -0.866026 -0.5 0
    outer loop
      vertex 36.4058 26.4503 -12
      vertex 41.1095 18.3031 -17
      vertex 41.1095 18.3031 -12
    endloop
  endfacet
  facet normal -0.951057 -0.309017 0
    outer loop
      vertex 44.0166 9.35603 -17
      vertex 41.1095 18.3031 -12
      vertex 41.1095 18.3031 -17
    endloop
  endfacet
  facet normal -0.951057 -0.309017 0
    outer loop
      vertex 41.1095 18.3031 -12
      vertex 44.0166 9.35603 -17
      vertex 44.0166 9.35603 -12
    endloop
  endfacet
  facet normal -0.406737 -0.913545 0
    outer loop
      vertex 13.9058 42.7975 -17
      vertex 22.5 38.9711 -12
      vertex 13.9058 42.7975 -12
    endloop
  endfacet
  facet normal -0.406737 -0.913545 -0
    outer loop
      vertex 22.5 38.9711 -12
      vertex 13.9058 42.7975 -17
      vertex 22.5 38.9711 -17
    endloop
  endfacet
  facet normal -0.207912 -0.978148 0
    outer loop
      vertex 4.70378 44.7535 -17
      vertex 13.9058 42.7975 -12
      vertex 4.70378 44.7535 -12
    endloop
  endfacet
  facet normal -0.207912 -0.978148 -0
    outer loop
      vertex 13.9058 42.7975 -12
      vertex 4.70378 44.7535 -17
      vertex 13.9058 42.7975 -17
    endloop
  endfacet
  facet normal -0.587785 -0.809017 0
    outer loop
      vertex 22.5 38.9711 -17
      vertex 30.1109 33.4415 -12
      vertex 22.5 38.9711 -12
    endloop
  endfacet
  facet normal -0.587785 -0.809017 -0
    outer loop
      vertex 30.1109 33.4415 -12
      vertex 22.5 38.9711 -17
      vertex 30.1109 33.4415 -17
    endloop
  endfacet
  facet normal 0.866026 -0.5 0
    outer loop
      vertex -41.1095 18.3031 -12
      vertex -36.4058 26.4503 -17
      vertex -36.4058 26.4503 -12
    endloop
  endfacet
  facet normal 0.866026 -0.5 0
    outer loop
      vertex -36.4058 26.4503 -17
      vertex -41.1095 18.3031 -12
      vertex -41.1095 18.3031 -17
    endloop
  endfacet
  facet normal 0.743145 -0.669131 0
    outer loop
      vertex -36.4058 26.4503 -12
      vertex -30.1109 33.4415 -17
      vertex -30.1109 33.4415 -12
    endloop
  endfacet
  facet normal 0.743145 -0.669131 0
    outer loop
      vertex -30.1109 33.4415 -17
      vertex -36.4058 26.4503 -12
      vertex -36.4058 26.4503 -17
    endloop
  endfacet
  facet normal 0.951057 -0.309017 0
    outer loop
      vertex -44.0166 9.35603 -12
      vertex -41.1095 18.3031 -17
      vertex -41.1095 18.3031 -12
    endloop
  endfacet
  facet normal 0.951057 -0.309017 0
    outer loop
      vertex -41.1095 18.3031 -17
      vertex -44.0166 9.35603 -12
      vertex -44.0166 9.35603 -17
    endloop
  endfacet
  facet normal 0.406737 -0.913545 0
    outer loop
      vertex -22.5 38.9711 -17
      vertex -13.9058 42.7975 -12
      vertex -22.5 38.9711 -12
    endloop
  endfacet
  facet normal 0.406737 -0.913545 0
    outer loop
      vertex -13.9058 42.7975 -12
      vertex -22.5 38.9711 -17
      vertex -13.9058 42.7975 -17
    endloop
  endfacet
  facet normal -0.994522 0.104529 0
    outer loop
      vertex 44.0166 -9.35603 -17
      vertex 45 0 -12
      vertex 45 0 -17
    endloop
  endfacet
  facet normal -0.994522 0.104529 0
    outer loop
      vertex 45 0 -12
      vertex 44.0166 -9.35603 -17
      vertex 44.0166 -9.35603 -12
    endloop
  endfacet
  facet normal -0.207912 0.978148 0
    outer loop
      vertex 13.9058 -42.7975 -17
      vertex 4.70378 -44.7535 -12
      vertex 13.9058 -42.7975 -12
    endloop
  endfacet
  facet normal -0.207912 0.978148 0
    outer loop
      vertex 4.70378 -44.7535 -12
      vertex 13.9058 -42.7975 -17
      vertex 4.70378 -44.7535 -17
    endloop
  endfacet
  facet normal -0.866026 0.5 0
    outer loop
      vertex 36.4058 -26.4503 -17
      vertex 41.1095 -18.3031 -12
      vertex 41.1095 -18.3031 -17
    endloop
  endfacet
  facet normal -0.866026 0.5 0
    outer loop
      vertex 41.1095 -18.3031 -12
      vertex 36.4058 -26.4503 -17
      vertex 36.4058 -26.4503 -12
    endloop
  endfacet
  facet normal 0.587785 0.809017 -0
    outer loop
      vertex -22.5 -38.9711 -17
      vertex -30.1109 -33.4415 -12
      vertex -22.5 -38.9711 -12
    endloop
  endfacet
  facet normal 0.587785 0.809017 0
    outer loop
      vertex -30.1109 -33.4415 -12
      vertex -22.5 -38.9711 -17
      vertex -30.1109 -33.4415 -17
    endloop
  endfacet
  facet normal 0.866026 0.5 0
    outer loop
      vertex -36.4058 -26.4503 -12
      vertex -41.1095 -18.3031 -17
      vertex -41.1095 -18.3031 -12
    endloop
  endfacet
  facet normal 0.866026 0.5 0
    outer loop
      vertex -41.1095 -18.3031 -17
      vertex -36.4058 -26.4503 -12
      vertex -36.4058 -26.4503 -17
    endloop
  endfacet
  facet normal 0.743145 0.669131 0
    outer loop
      vertex -30.1109 -33.4415 -12
      vertex -36.4058 -26.4503 -17
      vertex -36.4058 -26.4503 -12
    endloop
  endfacet
  facet normal 0.743145 0.669131 0
    outer loop
      vertex -36.4058 -26.4503 -17
      vertex -30.1109 -33.4415 -12
      vertex -30.1109 -33.4415 -17
    endloop
  endfacet
  facet normal -0.587785 0.809017 0
    outer loop
      vertex 30.1109 -33.4415 -17
      vertex 22.5 -38.9711 -12
      vertex 30.1109 -33.4415 -12
    endloop
  endfacet
  facet normal -0.587785 0.809017 0
    outer loop
      vertex 22.5 -38.9711 -12
      vertex 30.1109 -33.4415 -17
      vertex 22.5 -38.9711 -17
    endloop
  endfacet
  facet normal -0.406737 0.913545 0
    outer loop
      vertex 22.5 -38.9711 -17
      vertex 13.9058 -42.7975 -12
      vertex 22.5 -38.9711 -12
    endloop
  endfacet
  facet normal -0.406737 0.913545 0
    outer loop
      vertex 13.9058 -42.7975 -12
      vertex 22.5 -38.9711 -17
      vertex 13.9058 -42.7975 -17
    endloop
  endfacet
  facet normal -0.951057 0.309017 0
    outer loop
      vertex 41.1095 -18.3031 -17
      vertex 44.0166 -9.35603 -12
      vertex 44.0166 -9.35603 -17
    endloop
  endfacet
  facet normal -0.951057 0.309017 0
    outer loop
      vertex 44.0166 -9.35603 -12
      vertex 41.1095 -18.3031 -17
      vertex 41.1095 -18.3031 -12
    endloop
  endfacet
  facet normal 0.951057 0.309017 0
    outer loop
      vertex -41.1095 -18.3031 -12
      vertex -44.0166 -9.35603 -17
      vertex -44.0166 -9.35603 -12
    endloop
  endfacet
  facet normal 0.951057 0.309017 0
    outer loop
      vertex -44.0166 -9.35603 -17
      vertex -41.1095 -18.3031 -12
      vertex -41.1095 -18.3031 -17
    endloop
  endfacet
  facet normal 0.994522 0.104529 0
    outer loop
      vertex -44.0166 -9.35603 -12
      vertex -45 0 -17
      vertex -45 0 -12
    endloop
  endfacet
  facet normal 0.994522 0.104529 0
    outer loop
      vertex -45 0 -17
      vertex -44.0166 -9.35603 -12
      vertex -44.0166 -9.35603 -17
    endloop
  endfacet
  facet normal -0.743145 0.669131 0
    outer loop
      vertex 30.1109 -33.4415 -17
      vertex 36.4058 -26.4503 -12
      vertex 36.4058 -26.4503 -17
    endloop
  endfacet
  facet normal -0.743145 0.669131 0
    outer loop
      vertex 36.4058 -26.4503 -12
      vertex 30.1109 -33.4415 -17
      vertex 30.1109 -33.4415 -12
    endloop
  endfacet
  facet normal 0.406737 0.913545 -0
    outer loop
      vertex -13.9058 -42.7975 -17
      vertex -22.5 -38.9711 -12
      vertex -13.9058 -42.7975 -12
    endloop
  endfacet
  facet normal 0.406737 0.913545 0
    outer loop
      vertex -22.5 -38.9711 -12
      vertex -13.9058 -42.7975 -17
      vertex -22.5 -38.9711 -17
    endloop
  endfacet
  facet normal 0.207912 0.978148 -0
    outer loop
      vertex -4.70378 -44.7535 -17
      vertex -13.9058 -42.7975 -12
      vertex -4.70378 -44.7535 -12
    endloop
  endfacet
  facet normal 0.207912 0.978148 0
    outer loop
      vertex -13.9058 -42.7975 -12
      vertex -4.70378 -44.7535 -17
      vertex -13.9058 -42.7975 -17
    endloop
  endfacet
  facet normal 0.994522 0.104529 0
    outer loop
      vertex 50 0 -17
      vertex 48.9074 10.3956 -25
      vertex 48.9074 10.3956 -17
    endloop
  endfacet
  facet normal 0.994522 0.104529 0
    outer loop
      vertex 48.9074 10.3956 -25
      vertex 50 0 -17
      vertex 50 0 -25
    endloop
  endfacet
  facet normal -0.994522 0.104529 0
    outer loop
      vertex -50 0 -25
      vertex -48.9074 10.3956 -17
      vertex -48.9074 10.3956 -25
    endloop
  endfacet
  facet normal -0.994522 0.104529 0
    outer loop
      vertex -48.9074 10.3956 -17
      vertex -50 0 -25
      vertex -50 0 -17
    endloop
  endfacet
  facet normal 0 1 -0
    outer loop
      vertex 5.22642 49.7261 -25
      vertex -5.22642 49.7261 -17
      vertex 5.22642 49.7261 -17
    endloop
  endfacet
  facet normal 0 1 0
    outer loop
      vertex -5.22642 49.7261 -17
      vertex 5.22642 49.7261 -25
      vertex -5.22642 49.7261 -25
    endloop
  endfacet
  facet normal 0 -1 0
    outer loop
      vertex -5.22642 -49.7261 -25
      vertex 5.22642 -49.7261 -17
      vertex -5.22642 -49.7261 -17
    endloop
  endfacet
  facet normal 0 -1 -0
    outer loop
      vertex 5.22642 -49.7261 -17
      vertex -5.22642 -49.7261 -25
      vertex 5.22642 -49.7261 -25
    endloop
  endfacet
  facet normal 0.587785 0.809017 -0
    outer loop
      vertex 33.4565 37.1572 -25
      vertex 25 43.3013 -17
      vertex 33.4565 37.1572 -17
    endloop
  endfacet
  facet normal 0.587785 0.809017 0
    outer loop
      vertex 25 43.3013 -17
      vertex 33.4565 37.1572 -25
      vertex 25 43.3013 -25
    endloop
  endfacet
  facet normal -0.743145 0.669131 0
    outer loop
      vertex -40.4509 29.3893 -25
      vertex -33.4565 37.1572 -17
      vertex -33.4565 37.1572 -25
    endloop
  endfacet
  facet normal -0.743145 0.669131 0
    outer loop
      vertex -33.4565 37.1572 -17
      vertex -40.4509 29.3893 -25
      vertex -40.4509 29.3893 -17
    endloop
  endfacet
  facet normal -0.866025 0.5 0
    outer loop
      vertex -45.6773 20.3368 -25
      vertex -40.4509 29.3893 -17
      vertex -40.4509 29.3893 -25
    endloop
  endfacet
  facet normal -0.866025 0.5 0
    outer loop
      vertex -40.4509 29.3893 -17
      vertex -45.6773 20.3368 -25
      vertex -45.6773 20.3368 -17
    endloop
  endfacet
  facet normal -0.406737 0.913545 0
    outer loop
      vertex -15.4508 47.5528 -25
      vertex -25 43.3013 -17
      vertex -15.4508 47.5528 -17
    endloop
  endfacet
  facet normal -0.406737 0.913545 0
    outer loop
      vertex -25 43.3013 -17
      vertex -15.4508 47.5528 -25
      vertex -25 43.3013 -25
    endloop
  endfacet
  facet normal 0.866025 0.5 0
    outer loop
      vertex 45.6773 20.3368 -17
      vertex 40.4509 29.3893 -25
      vertex 40.4509 29.3893 -17
    endloop
  endfacet
  facet normal 0.866025 0.5 0
    outer loop
      vertex 40.4509 29.3893 -25
      vertex 45.6773 20.3368 -17
      vertex 45.6773 20.3368 -25
    endloop
  endfacet
  facet normal 0.951057 0.309017 0
    outer loop
      vertex 48.9074 10.3956 -17
      vertex 45.6773 20.3368 -25
      vertex 45.6773 20.3368 -17
    endloop
  endfacet
  facet normal 0.951057 0.309017 0
    outer loop
      vertex 45.6773 20.3368 -25
      vertex 48.9074 10.3956 -17
      vertex 48.9074 10.3956 -25
    endloop
  endfacet
  facet normal 0.743145 0.669131 0
    outer loop
      vertex 40.4509 29.3893 -17
      vertex 33.4565 37.1572 -25
      vertex 33.4565 37.1572 -17
    endloop
  endfacet
  facet normal 0.743145 0.669131 0
    outer loop
      vertex 33.4565 37.1572 -25
      vertex 40.4509 29.3893 -17
      vertex 40.4509 29.3893 -25
    endloop
  endfacet
  facet normal 0.207912 0.978148 -0
    outer loop
      vertex 15.4508 47.5528 -25
      vertex 5.22642 49.7261 -17
      vertex 15.4508 47.5528 -17
    endloop
  endfacet
  facet normal 0.207912 0.978148 0
    outer loop
      vertex 5.22642 49.7261 -17
      vertex 15.4508 47.5528 -25
      vertex 5.22642 49.7261 -25
    endloop
  endfacet
  facet normal 0.406737 0.913545 -0
    outer loop
      vertex 25 43.3013 -25
      vertex 15.4508 47.5528 -17
      vertex 25 43.3013 -17
    endloop
  endfacet
  facet normal 0.406737 0.913545 0
    outer loop
      vertex 15.4508 47.5528 -17
      vertex 25 43.3013 -25
      vertex 15.4508 47.5528 -25
    endloop
  endfacet
  facet normal -0.951057 0.309017 0
    outer loop
      vertex -48.9074 10.3956 -25
      vertex -45.6773 20.3368 -17
      vertex -45.6773 20.3368 -25
    endloop
  endfacet
  facet normal -0.951057 0.309017 0
    outer loop
      vertex -45.6773 20.3368 -17
      vertex -48.9074 10.3956 -25
      vertex -48.9074 10.3956 -17
    endloop
  endfacet
  facet normal 0 0 1
    outer loop
      vertex 47 0 -17
      vertex 50 0 -17
      vertex 48.9074 10.3956 -17
    endloop
  endfacet
  facet normal 0 0 1
    outer loop
      vertex 50 0 -17
      vertex 47 0 -17
      vertex 48.9074 -10.3956 -17
    endloop
  endfacet
  facet normal 0 0 1
    outer loop
      vertex 48.9074 10.3956 -17
      vertex 45.9729 9.77185 -17
      vertex 47 0 -17
    endloop
  endfacet
  facet normal 0 0 1
    outer loop
      vertex 45.6773 20.3368 -17
      vertex 45.9729 9.77185 -17
      vertex 48.9074 10.3956 -17
    endloop
  endfacet
  facet normal 0 0 1
    outer loop
      vertex 45.6773 20.3368 -17
      vertex 42.9366 19.1166 -17
      vertex 45.9729 9.77185 -17
    endloop
  endfacet
  facet normal 0 0 1
    outer loop
      vertex 40.4509 29.3893 -17
      vertex 42.9366 19.1166 -17
      vertex 45.6773 20.3368 -17
    endloop
  endfacet
  facet normal 0 0 1
    outer loop
      vertex 40.4509 29.3893 -17
      vertex 38.0238 27.6259 -17
      vertex 42.9366 19.1166 -17
    endloop
  endfacet
  facet normal 0 0 1
    outer loop
      vertex 33.4565 37.1572 -17
      vertex 38.0238 27.6259 -17
      vertex 40.4509 29.3893 -17
    endloop
  endfacet
  facet normal 0 0 1
    outer loop
      vertex 33.4565 37.1572 -17
      vertex 31.4491 34.9278 -17
      vertex 38.0238 27.6259 -17
    endloop
  endfacet
  facet normal 0 0 1
    outer loop
      vertex 25 43.3013 -17
      vertex 31.4491 34.9278 -17
      vertex 33.4565 37.1572 -17
    endloop
  endfacet
  facet normal 0 0 1
    outer loop
      vertex 25 43.3013 -17
      vertex 23.5 40.7032 -17
      vertex 31.4491 34.9278 -17
    endloop
  endfacet
  facet normal 0 0 1
    outer loop
      vertex 15.4508 47.5528 -17
      vertex 23.5 40.7032 -17
      vertex 25 43.3013 -17
    endloop
  endfacet
  facet normal 0 0 1
    outer loop
      vertex 15.4508 47.5528 -17
      vertex 14.5238 44.6997 -17
      vertex 23.5 40.7032 -17
    endloop
  endfacet
  facet normal 0 0 1
    outer loop
      vertex 5.22642 49.7261 -17
      vertex 14.5238 44.6997 -17
      vertex 15.4508 47.5528 -17
    endloop
  endfacet
  facet normal 0 0 1
    outer loop
      vertex 5.22642 49.7261 -17
      vertex 4.91284 46.7425 -17
      vertex 14.5238 44.6997 -17
    endloop
  endfacet
  facet normal 0 0 1
    outer loop
      vertex 5.22642 49.7261 -17
      vertex -4.91284 46.7425 -17
      vertex 4.91284 46.7425 -17
    endloop
  endfacet
  facet normal -0 0 1
    outer loop
      vertex -5.22642 49.7261 -17
      vertex -4.91284 46.7425 -17
      vertex 5.22642 49.7261 -17
    endloop
  endfacet
  facet normal 0 0 1
    outer loop
      vertex -5.22642 49.7261 -17
      vertex -14.5238 44.6997 -17
      vertex -4.91284 46.7425 -17
    endloop
  endfacet
  facet normal -0 0 1
    outer loop
      vertex -15.4508 47.5528 -17
      vertex -14.5238 44.6997 -17
      vertex -5.22642 49.7261 -17
    endloop
  endfacet
  facet normal 0 0 1
    outer loop
      vertex -15.4508 47.5528 -17
      vertex -23.5 40.7032 -17
      vertex -14.5238 44.6997 -17
    endloop
  endfacet
  facet normal -0 0 1
    outer loop
      vertex -25 43.3013 -17
      vertex -23.5 40.7032 -17
      vertex -15.4508 47.5528 -17
    endloop
  endfacet
  facet normal 0 0 1
    outer loop
      vertex -25 43.3013 -17
      vertex -31.4491 34.9278 -17
      vertex -23.5 40.7032 -17
    endloop
  endfacet
  facet normal -0 0 1
    outer loop
      vertex -33.4565 37.1572 -17
      vertex -31.4491 34.9278 -17
      vertex -25 43.3013 -17
    endloop
  endfacet
  facet normal 0 0 1
    outer loop
      vertex -33.4565 37.1572 -17
      vertex -38.0238 27.6259 -17
      vertex -31.4491 34.9278 -17
    endloop
  endfacet
  facet normal -0 0 1
    outer loop
      vertex -40.4509 29.3893 -17
      vertex -38.0238 27.6259 -17
      vertex -33.4565 37.1572 -17
    endloop
  endfacet
  facet normal 0 0 1
    outer loop
      vertex -40.4509 29.3893 -17
      vertex -42.9366 19.1166 -17
      vertex -38.0238 27.6259 -17
    endloop
  endfacet
  facet normal -0 0 1
    outer loop
      vertex -45.6773 20.3368 -17
      vertex -42.9366 19.1166 -17
      vertex -40.4509 29.3893 -17
    endloop
  endfacet
  facet normal 0 0 1
    outer loop
      vertex -45.6773 20.3368 -17
      vertex -45.9729 9.77185 -17
      vertex -42.9366 19.1166 -17
    endloop
  endfacet
  facet normal -0 0 1
    outer loop
      vertex -48.9074 10.3956 -17
      vertex -45.9729 9.77185 -17
      vertex -45.6773 20.3368 -17
    endloop
  endfacet
  facet normal 0 0 1
    outer loop
      vertex -45.9729 9.77185 -17
      vertex -48.9074 10.3956 -17
      vertex -47 0 -17
    endloop
  endfacet
  facet normal -0 0 1
    outer loop
      vertex 45.9729 -9.77185 -17
      vertex 48.9074 -10.3956 -17
      vertex 47 0 -17
    endloop
  endfacet
  facet normal 0 0 1
    outer loop
      vertex 45.9729 -9.77185 -17
      vertex 45.6773 -20.3368 -17
      vertex 48.9074 -10.3956 -17
    endloop
  endfacet
  facet normal -0 0 1
    outer loop
      vertex 42.9366 -19.1166 -17
      vertex 45.6773 -20.3368 -17
      vertex 45.9729 -9.77185 -17
    endloop
  endfacet
  facet normal 0 0 1
    outer loop
      vertex 42.9366 -19.1166 -17
      vertex 40.4509 -29.3893 -17
      vertex 45.6773 -20.3368 -17
    endloop
  endfacet
  facet normal -0 0 1
    outer loop
      vertex 38.0238 -27.6259 -17
      vertex 40.4509 -29.3893 -17
      vertex 42.9366 -19.1166 -17
    endloop
  endfacet
  facet normal 0 0 1
    outer loop
      vertex 38.0238 -27.6259 -17
      vertex 33.4565 -37.1572 -17
      vertex 40.4509 -29.3893 -17
    endloop
  endfacet
  facet normal -0 0 1
    outer loop
      vertex 31.4491 -34.9278 -17
      vertex 33.4565 -37.1572 -17
      vertex 38.0238 -27.6259 -17
    endloop
  endfacet
  facet normal 0 0 1
    outer loop
      vertex 31.4491 -34.9278 -17
      vertex 25 -43.3013 -17
      vertex 33.4565 -37.1572 -17
    endloop
  endfacet
  facet normal -0 0 1
    outer loop
      vertex 23.5 -40.7032 -17
      vertex 25 -43.3013 -17
      vertex 31.4491 -34.9278 -17
    endloop
  endfacet
  facet normal 0 0 1
    outer loop
      vertex 23.5 -40.7032 -17
      vertex 15.4508 -47.5528 -17
      vertex 25 -43.3013 -17
    endloop
  endfacet
  facet normal -0 0 1
    outer loop
      vertex 14.5238 -44.6997 -17
      vertex 15.4508 -47.5528 -17
      vertex 23.5 -40.7032 -17
    endloop
  endfacet
  facet normal 0 0 1
    outer loop
      vertex 14.5238 -44.6997 -17
      vertex 5.22642 -49.7261 -17
      vertex 15.4508 -47.5528 -17
    endloop
  endfacet
  facet normal -0 0 1
    outer loop
      vertex 4.91284 -46.7425 -17
      vertex 5.22642 -49.7261 -17
      vertex 14.5238 -44.6997 -17
    endloop
  endfacet
  facet normal -0 0 1
    outer loop
      vertex -4.91284 -46.7425 -17
      vertex 5.22642 -49.7261 -17
      vertex 4.91284 -46.7425 -17
    endloop
  endfacet
  facet normal 0 0 1
    outer loop
      vertex -4.91284 -46.7425 -17
      vertex -5.22642 -49.7261 -17
      vertex 5.22642 -49.7261 -17
    endloop
  endfacet
  facet normal 0 0 1
    outer loop
      vertex -14.5238 -44.6997 -17
      vertex -5.22642 -49.7261 -17
      vertex -4.91284 -46.7425 -17
    endloop
  endfacet
  facet normal 0 0 1
    outer loop
      vertex -14.5238 -44.6997 -17
      vertex -15.4508 -47.5528 -17
      vertex -5.22642 -49.7261 -17
    endloop
  endfacet
  facet normal 0 0 1
    outer loop
      vertex -23.5 -40.7032 -17
      vertex -15.4508 -47.5528 -17
      vertex -14.5238 -44.6997 -17
    endloop
  endfacet
  facet normal 0 0 1
    outer loop
      vertex -23.5 -40.7032 -17
      vertex -25 -43.3013 -17
      vertex -15.4508 -47.5528 -17
    endloop
  endfacet
  facet normal 0 0 1
    outer loop
      vertex -31.4491 -34.9278 -17
      vertex -25 -43.3013 -17
      vertex -23.5 -40.7032 -17
    endloop
  endfacet
  facet normal 0 0 1
    outer loop
      vertex -31.4491 -34.9278 -17
      vertex -33.4565 -37.1572 -17
      vertex -25 -43.3013 -17
    endloop
  endfacet
  facet normal 0 0 1
    outer loop
      vertex -38.0238 -27.6259 -17
      vertex -33.4565 -37.1572 -17
      vertex -31.4491 -34.9278 -17
    endloop
  endfacet
  facet normal 0 0 1
    outer loop
      vertex -38.0238 -27.6259 -17
      vertex -40.4509 -29.3893 -17
      vertex -33.4565 -37.1572 -17
    endloop
  endfacet
  facet normal 0 0 1
    outer loop
      vertex -42.9366 -19.1166 -17
      vertex -40.4509 -29.3893 -17
      vertex -38.0238 -27.6259 -17
    endloop
  endfacet
  facet normal 0 0 1
    outer loop
      vertex -42.9366 -19.1166 -17
      vertex -45.6773 -20.3368 -17
      vertex -40.4509 -29.3893 -17
    endloop
  endfacet
  facet normal 0 0 1
    outer loop
      vertex -45.9729 -9.77185 -17
      vertex -45.6773 -20.3368 -17
      vertex -42.9366 -19.1166 -17
    endloop
  endfacet
  facet normal 0 0 1
    outer loop
      vertex -48.9074 -10.3956 -17
      vertex -45.9729 -9.77185 -17
      vertex -47 0 -17
    endloop
  endfacet
  facet normal 0 0 1
    outer loop
      vertex -50 0 -17
      vertex -47 0 -17
      vertex -48.9074 10.3956 -17
    endloop
  endfacet
  facet normal 0 0 1
    outer loop
      vertex -45.9729 -9.77185 -17
      vertex -48.9074 -10.3956 -17
      vertex -45.6773 -20.3368 -17
    endloop
  endfacet
  facet normal 0 0 1
    outer loop
      vertex -47 0 -17
      vertex -50 0 -17
      vertex -48.9074 -10.3956 -17
    endloop
  endfacet
  facet normal 0 0 1
    outer loop
      vertex -27 0 -17
      vertex -27.5729 -1.76336 -17
      vertex -27 -31.5 -17
    endloop
  endfacet
  facet normal -0 0 1
    outer loop
      vertex -27 -31.5 -17
      vertex -17.5 -34.5 -17
      vertex -17.5 -31.5 -17
    endloop
  endfacet
  facet normal 0 0 1
    outer loop
      vertex -17.5 -34.5 -17
      vertex -27 -31.5 -17
      vertex -22.5 -38.9711 -17
    endloop
  endfacet
  facet normal -0 0 1
    outer loop
      vertex -29.0729 -2.85317 -17
      vertex -27 -31.5 -17
      vertex -27.5729 -1.76336 -17
    endloop
  endfacet
  facet normal 0 0 1
    outer loop
      vertex -27 -31.5 -17
      vertex -30.1109 -33.4415 -17
      vertex -22.5 -38.9711 -17
    endloop
  endfacet
  facet normal -0 0 1
    outer loop
      vertex -36.4058 -26.4503 -17
      vertex -27 -31.5 -17
      vertex -29.0729 -2.85317 -17
    endloop
  endfacet
  facet normal 0 0 1
    outer loop
      vertex -41.1095 -18.3031 -17
      vertex -29.0729 -2.85317 -17
      vertex -30.9271 -2.85317 -17
    endloop
  endfacet
  facet normal 0 0 1
    outer loop
      vertex -44.0166 -9.35603 -17
      vertex -30.9271 -2.85317 -17
      vertex -32.4271 -1.76336 -17
    endloop
  endfacet
  facet normal -0 0 1
    outer loop
      vertex -45 0 -17
      vertex -32.4271 -1.76336 -17
      vertex -33 0 -17
    endloop
  endfacet
  facet normal 0 0 1
    outer loop
      vertex -30.9271 2.85317 -17
      vertex -44.0166 9.35603 -17
      vertex -32.4271 1.76336 -17
    endloop
  endfacet
  facet normal 0 0 1
    outer loop
      vertex -27 -31.5 -17
      vertex -36.4058 -26.4503 -17
      vertex -30.1109 -33.4415 -17
    endloop
  endfacet
  facet normal 0 0 1
    outer loop
      vertex -45 0 -17
      vertex -32.4271 1.76336 -17
      vertex -44.0166 9.35603 -17
    endloop
  endfacet
  facet normal 0 0 1
    outer loop
      vertex -29.0729 -2.85317 -17
      vertex -41.1095 -18.3031 -17
      vertex -36.4058 -26.4503 -17
    endloop
  endfacet
  facet normal 0 0 1
    outer loop
      vertex -32.4271 1.76336 -17
      vertex -45 0 -17
      vertex -33 0 -17
    endloop
  endfacet
  facet normal 0 0 1
    outer loop
      vertex -30.9271 -2.85317 -17
      vertex -44.0166 -9.35603 -17
      vertex -41.1095 -18.3031 -17
    endloop
  endfacet
  facet normal 0 0 1
    outer loop
      vertex -32.4271 -1.76336 -17
      vertex -45 0 -17
      vertex -44.0166 -9.35603 -17
    endloop
  endfacet
  facet normal 0 0 1
    outer loop
      vertex 13.9058 42.7975 -17
      vertex 17.5 34.5 -17
      vertex 22.5 38.9711 -17
    endloop
  endfacet
  facet normal 0 0 1
    outer loop
      vertex 4.70378 44.7535 -17
      vertex 17.5 34.5 -17
      vertex 13.9058 42.7975 -17
    endloop
  endfacet
  facet normal -0 0 1
    outer loop
      vertex -4.70378 44.7535 -17
      vertex 17.5 34.5 -17
      vertex 4.70378 44.7535 -17
    endloop
  endfacet
  facet normal 0 0 1
    outer loop
      vertex -17.5 34.5 -17
      vertex -4.70378 44.7535 -17
      vertex -13.9058 42.7975 -17
    endloop
  endfacet
  facet normal 0 0 1
    outer loop
      vertex -4.70378 44.7535 -17
      vertex -17.5 34.5 -17
      vertex 17.5 34.5 -17
    endloop
  endfacet
  facet normal -0 0 1
    outer loop
      vertex -22.5 38.9711 -17
      vertex -17.5 34.5 -17
      vertex -13.9058 42.7975 -17
    endloop
  endfacet
  facet normal 0 0 1
    outer loop
      vertex -27 31.5 -17
      vertex -17.5 34.5 -17
      vertex -22.5 38.9711 -17
    endloop
  endfacet
  facet normal 0 0 1
    outer loop
      vertex -17.5 34.5 -17
      vertex -27 31.5 -17
      vertex -17.5 31.5 -17
    endloop
  endfacet
  facet normal 0 0 1
    outer loop
      vertex -27 31.5 -17
      vertex -27.5729 1.76336 -17
      vertex -27 0 -17
    endloop
  endfacet
  facet normal 0 0 1
    outer loop
      vertex -27 31.5 -17
      vertex -29.0729 2.85317 -17
      vertex -27.5729 1.76336 -17
    endloop
  endfacet
  facet normal -0 0 1
    outer loop
      vertex -30.1109 33.4415 -17
      vertex -27 31.5 -17
      vertex -22.5 38.9711 -17
    endloop
  endfacet
  facet normal 0 0 1
    outer loop
      vertex -36.4058 26.4503 -17
      vertex -27 31.5 -17
      vertex -30.1109 33.4415 -17
    endloop
  endfacet
  facet normal 0 0 1
    outer loop
      vertex -27 31.5 -17
      vertex -36.4058 26.4503 -17
      vertex -29.0729 2.85317 -17
    endloop
  endfacet
  facet normal -0 0 1
    outer loop
      vertex -41.1095 18.3031 -17
      vertex -29.0729 2.85317 -17
      vertex -36.4058 26.4503 -17
    endloop
  endfacet
  facet normal 0 0 1
    outer loop
      vertex -29.0729 2.85317 -17
      vertex -41.1095 18.3031 -17
      vertex -30.9271 2.85317 -17
    endloop
  endfacet
  facet normal -0 0 1
    outer loop
      vertex -44.0166 9.35603 -17
      vertex -30.9271 2.85317 -17
      vertex -41.1095 18.3031 -17
    endloop
  endfacet
  facet normal 0 0 1
    outer loop
      vertex 44.0166 9.35603 -17
      vertex 28.255 19.5501 -17
      vertex 45 0 -17
    endloop
  endfacet
  facet normal 0 0 1
    outer loop
      vertex 45 0 -17
      vertex 29.947 -19.9363 -17
      vertex 30.7 -21.5 -17
    endloop
  endfacet
  facet normal 0 0 1
    outer loop
      vertex 28.255 -19.5501 -17
      vertex 45 0 -17
      vertex 28.255 19.5501 -17
    endloop
  endfacet
  facet normal 0 0 1
    outer loop
      vertex 45 0 -17
      vertex 28.255 -19.5501 -17
      vertex 29.947 -19.9363 -17
    endloop
  endfacet
  facet normal 0 0 1
    outer loop
      vertex 27 20.5509 -17
      vertex 28.255 -19.5501 -17
      vertex 28.255 19.5501 -17
    endloop
  endfacet
  facet normal 0 0 1
    outer loop
      vertex 28.255 -19.5501 -17
      vertex 27 20.5509 -17
      vertex 27 -20.5509 -17
    endloop
  endfacet
  facet normal 0 0 1
    outer loop
      vertex 41.1095 18.3031 -17
      vertex 29.947 19.9363 -17
      vertex 44.0166 9.35603 -17
    endloop
  endfacet
  facet normal -0 0 1
    outer loop
      vertex 29.947 19.9363 -17
      vertex 41.1095 18.3031 -17
      vertex 30.7 21.5 -17
    endloop
  endfacet
  facet normal -0 0 1
    outer loop
      vertex 28.255 19.5501 -17
      vertex 44.0166 9.35603 -17
      vertex 29.947 19.9363 -17
    endloop
  endfacet
  facet normal -0 0 1
    outer loop
      vertex 30.7 21.5 -17
      vertex 41.1095 18.3031 -17
      vertex 36.4058 26.4503 -17
    endloop
  endfacet
  facet normal 0 0 1
    outer loop
      vertex 45 0 -17
      vertex 30.7 -21.5 -17
      vertex 44.0166 -9.35603 -17
    endloop
  endfacet
  facet normal 0 0 1
    outer loop
      vertex 44.0166 -9.35603 -17
      vertex 30.7 -21.5 -17
      vertex 41.1095 -18.3031 -17
    endloop
  endfacet
  facet normal 0 0 1
    outer loop
      vertex 29.947 23.0637 -17
      vertex 36.4058 26.4503 -17
      vertex 30.1109 33.4415 -17
    endloop
  endfacet
  facet normal 0 0 1
    outer loop
      vertex 36.4058 26.4503 -17
      vertex 29.947 23.0637 -17
      vertex 30.7 21.5 -17
    endloop
  endfacet
  facet normal -0 0 1
    outer loop
      vertex 27 31.5 -17
      vertex 29.947 23.0637 -17
      vertex 30.1109 33.4415 -17
    endloop
  endfacet
  facet normal 0 0 1
    outer loop
      vertex 29.947 23.0637 -17
      vertex 27 31.5 -17
      vertex 28.255 23.4499 -17
    endloop
  endfacet
  facet normal 0 0 1
    outer loop
      vertex 22.5 38.9711 -17
      vertex 27 31.5 -17
      vertex 30.1109 33.4415 -17
    endloop
  endfacet
  facet normal -0 0 1
    outer loop
      vertex 17.5 34.5 -17
      vertex 27 31.5 -17
      vertex 22.5 38.9711 -17
    endloop
  endfacet
  facet normal 0 0 1
    outer loop
      vertex 27 31.5 -17
      vertex 17.5 34.5 -17
      vertex 17.5 31.5 -17
    endloop
  endfacet
  facet normal 0 0 1
    outer loop
      vertex 41.1095 -18.3031 -17
      vertex 30.7 -21.5 -17
      vertex 36.4058 -26.4503 -17
    endloop
  endfacet
  facet normal -0 0 1
    outer loop
      vertex 29.947 -23.0637 -17
      vertex 36.4058 -26.4503 -17
      vertex 30.7 -21.5 -17
    endloop
  endfacet
  facet normal 0 0 1
    outer loop
      vertex 36.4058 -26.4503 -17
      vertex 29.947 -23.0637 -17
      vertex 30.1109 -33.4415 -17
    endloop
  endfacet
  facet normal 0 0 1
    outer loop
      vertex 27 -31.5 -17
      vertex 29.947 -23.0637 -17
      vertex 28.255 -23.4499 -17
    endloop
  endfacet
  facet normal 0 0 1
    outer loop
      vertex 27 -31.5 -17
      vertex 28.255 -23.4499 -17
      vertex 27 -22.4491 -17
    endloop
  endfacet
  facet normal 0 0 1
    outer loop
      vertex 29.947 -23.0637 -17
      vertex 27 -31.5 -17
      vertex 30.1109 -33.4415 -17
    endloop
  endfacet
  facet normal 0 0 1
    outer loop
      vertex 27 -31.5 -17
      vertex 22.5 -38.9711 -17
      vertex 30.1109 -33.4415 -17
    endloop
  endfacet
  facet normal 0 0 1
    outer loop
      vertex 17.5 -34.5 -17
      vertex 27 -31.5 -17
      vertex 17.5 -31.5 -17
    endloop
  endfacet
  facet normal 0 0 1
    outer loop
      vertex 27 -31.5 -17
      vertex 17.5 -34.5 -17
      vertex 22.5 -38.9711 -17
    endloop
  endfacet
  facet normal 0 0 1
    outer loop
      vertex 17.5 -34.5 -17
      vertex 13.9058 -42.7975 -17
      vertex 22.5 -38.9711 -17
    endloop
  endfacet
  facet normal 0 0 1
    outer loop
      vertex 17.5 -34.5 -17
      vertex 4.70378 -44.7535 -17
      vertex 13.9058 -42.7975 -17
    endloop
  endfacet
  facet normal 0 0 1
    outer loop
      vertex 17.5 -34.5 -17
      vertex -4.70378 -44.7535 -17
      vertex 4.70378 -44.7535 -17
    endloop
  endfacet
  facet normal -0 0 1
    outer loop
      vertex -17.5 -34.5 -17
      vertex -4.70378 -44.7535 -17
      vertex 17.5 -34.5 -17
    endloop
  endfacet
  facet normal 0 0 1
    outer loop
      vertex -4.70378 -44.7535 -17
      vertex -17.5 -34.5 -17
      vertex -13.9058 -42.7975 -17
    endloop
  endfacet
  facet normal 0 0 1
    outer loop
      vertex -13.9058 -42.7975 -17
      vertex -17.5 -34.5 -17
      vertex -22.5 -38.9711 -17
    endloop
  endfacet
  facet normal 0 0 1
    outer loop
      vertex 28.255 23.4499 -17
      vertex 27 31.5 -17
      vertex 27 22.4491 -17
    endloop
  endfacet
  facet normal -0.587785 0.809017 0
    outer loop
      vertex -25 43.3013 -25
      vertex -33.4565 37.1572 -17
      vertex -25 43.3013 -17
    endloop
  endfacet
  facet normal -0.587785 0.809017 0
    outer loop
      vertex -33.4565 37.1572 -17
      vertex -25 43.3013 -25
      vertex -33.4565 37.1572 -25
    endloop
  endfacet
  facet normal -0.207912 0.978148 0
    outer loop
      vertex -5.22642 49.7261 -25
      vertex -15.4508 47.5528 -17
      vertex -5.22642 49.7261 -17
    endloop
  endfacet
  facet normal -0.207912 0.978148 0
    outer loop
      vertex -15.4508 47.5528 -17
      vertex -5.22642 49.7261 -25
      vertex -15.4508 47.5528 -25
    endloop
  endfacet
  facet normal 0.994522 -0.104529 0
    outer loop
      vertex 48.9074 -10.3956 -17
      vertex 50 0 -25
      vertex 50 0 -17
    endloop
  endfacet
  facet normal 0.994522 -0.104529 0
    outer loop
      vertex 50 0 -25
      vertex 48.9074 -10.3956 -17
      vertex 48.9074 -10.3956 -25
    endloop
  endfacet
  facet normal 0 0 -1
    outer loop
      vertex 48.9074 -10.3956 -25
      vertex 48.9074 10.3956 -25
      vertex 50 0 -25
    endloop
  endfacet
  facet normal 0 0 -1
    outer loop
      vertex 45.6773 -20.3368 -25
      vertex 48.9074 10.3956 -25
      vertex 48.9074 -10.3956 -25
    endloop
  endfacet
  facet normal 0 0 -1
    outer loop
      vertex 45.6773 -20.3368 -25
      vertex 45.6773 20.3368 -25
      vertex 48.9074 10.3956 -25
    endloop
  endfacet
  facet normal 0 0 -1
    outer loop
      vertex 40.4509 -29.3893 -25
      vertex 45.6773 20.3368 -25
      vertex 45.6773 -20.3368 -25
    endloop
  endfacet
  facet normal 0 0 -1
    outer loop
      vertex 40.4509 -29.3893 -25
      vertex 40.4509 29.3893 -25
      vertex 45.6773 20.3368 -25
    endloop
  endfacet
  facet normal 0 0 -1
    outer loop
      vertex 33.4565 -37.1572 -25
      vertex 40.4509 29.3893 -25
      vertex 40.4509 -29.3893 -25
    endloop
  endfacet
  facet normal 0 0 -1
    outer loop
      vertex 33.4565 -37.1572 -25
      vertex 33.4565 37.1572 -25
      vertex 40.4509 29.3893 -25
    endloop
  endfacet
  facet normal 0 0 -1
    outer loop
      vertex 25 -43.3013 -25
      vertex 33.4565 37.1572 -25
      vertex 33.4565 -37.1572 -25
    endloop
  endfacet
  facet normal 0 0 -1
    outer loop
      vertex 25 -43.3013 -25
      vertex 25 43.3013 -25
      vertex 33.4565 37.1572 -25
    endloop
  endfacet
  facet normal 0 0 -1
    outer loop
      vertex 15.4508 -47.5528 -25
      vertex 25 43.3013 -25
      vertex 25 -43.3013 -25
    endloop
  endfacet
  facet normal 0 0 -1
    outer loop
      vertex 15.4508 -47.5528 -25
      vertex 15.4508 47.5528 -25
      vertex 25 43.3013 -25
    endloop
  endfacet
  facet normal 0 0 -1
    outer loop
      vertex 5.22642 -49.7261 -25
      vertex 15.4508 47.5528 -25
      vertex 15.4508 -47.5528 -25
    endloop
  endfacet
  facet normal 0 0 -1
    outer loop
      vertex 5.22642 -49.7261 -25
      vertex 5.22642 49.7261 -25
      vertex 15.4508 47.5528 -25
    endloop
  endfacet
  facet normal 0 0 -1
    outer loop
      vertex -5.22642 -49.7261 -25
      vertex 5.22642 49.7261 -25
      vertex 5.22642 -49.7261 -25
    endloop
  endfacet
  facet normal 0 0 -1
    outer loop
      vertex -5.22642 -49.7261 -25
      vertex -5.22642 49.7261 -25
      vertex 5.22642 49.7261 -25
    endloop
  endfacet
  facet normal 0 0 -1
    outer loop
      vertex -15.4508 -47.5528 -25
      vertex -5.22642 49.7261 -25
      vertex -5.22642 -49.7261 -25
    endloop
  endfacet
  facet normal 0 0 -1
    outer loop
      vertex -15.4508 -47.5528 -25
      vertex -15.4508 47.5528 -25
      vertex -5.22642 49.7261 -25
    endloop
  endfacet
  facet normal 0 0 -1
    outer loop
      vertex -25 -43.3013 -25
      vertex -15.4508 47.5528 -25
      vertex -15.4508 -47.5528 -25
    endloop
  endfacet
  facet normal 0 0 -1
    outer loop
      vertex -25 -43.3013 -25
      vertex -25 43.3013 -25
      vertex -15.4508 47.5528 -25
    endloop
  endfacet
  facet normal 0 0 -1
    outer loop
      vertex -33.4565 -37.1572 -25
      vertex -25 43.3013 -25
      vertex -25 -43.3013 -25
    endloop
  endfacet
  facet normal 0 0 -1
    outer loop
      vertex -33.4565 -37.1572 -25
      vertex -33.4565 37.1572 -25
      vertex -25 43.3013 -25
    endloop
  endfacet
  facet normal 0 0 -1
    outer loop
      vertex -40.4509 -29.3893 -25
      vertex -33.4565 37.1572 -25
      vertex -33.4565 -37.1572 -25
    endloop
  endfacet
  facet normal 0 0 -1
    outer loop
      vertex -40.4509 -29.3893 -25
      vertex -40.4509 29.3893 -25
      vertex -33.4565 37.1572 -25
    endloop
  endfacet
  facet normal 0 0 -1
    outer loop
      vertex -45.6773 -20.3368 -25
      vertex -40.4509 29.3893 -25
      vertex -40.4509 -29.3893 -25
    endloop
  endfacet
  facet normal 0 0 -1
    outer loop
      vertex -45.6773 -20.3368 -25
      vertex -45.6773 20.3368 -25
      vertex -40.4509 29.3893 -25
    endloop
  endfacet
  facet normal 0 0 -1
    outer loop
      vertex -48.9074 -10.3956 -25
      vertex -45.6773 20.3368 -25
      vertex -45.6773 -20.3368 -25
    endloop
  endfacet
  facet normal 0 0 -1
    outer loop
      vertex -48.9074 -10.3956 -25
      vertex -48.9074 10.3956 -25
      vertex -45.6773 20.3368 -25
    endloop
  endfacet
  facet normal 0 -0 -1
    outer loop
      vertex -48.9074 10.3956 -25
      vertex -48.9074 -10.3956 -25
      vertex -50 0 -25
    endloop
  endfacet
  facet normal 0.743145 -0.669131 0
    outer loop
      vertex 33.4565 -37.1572 -17
      vertex 40.4509 -29.3893 -25
      vertex 40.4509 -29.3893 -17
    endloop
  endfacet
  facet normal 0.743145 -0.669131 0
    outer loop
      vertex 40.4509 -29.3893 -25
      vertex 33.4565 -37.1572 -17
      vertex 33.4565 -37.1572 -25
    endloop
  endfacet
  facet normal 0.951057 -0.309017 0
    outer loop
      vertex 45.6773 -20.3368 -17
      vertex 48.9074 -10.3956 -25
      vertex 48.9074 -10.3956 -17
    endloop
  endfacet
  facet normal 0.951057 -0.309017 0
    outer loop
      vertex 48.9074 -10.3956 -25
      vertex 45.6773 -20.3368 -17
      vertex 45.6773 -20.3368 -25
    endloop
  endfacet
  facet normal 0.866025 -0.5 0
    outer loop
      vertex 40.4509 -29.3893 -17
      vertex 45.6773 -20.3368 -25
      vertex 45.6773 -20.3368 -17
    endloop
  endfacet
  facet normal 0.866025 -0.5 0
    outer loop
      vertex 45.6773 -20.3368 -25
      vertex 40.4509 -29.3893 -17
      vertex 40.4509 -29.3893 -25
    endloop
  endfacet
  facet normal -0.866025 -0.5 0
    outer loop
      vertex -40.4509 -29.3893 -25
      vertex -45.6773 -20.3368 -17
      vertex -45.6773 -20.3368 -25
    endloop
  endfacet
  facet normal -0.866025 -0.5 0
    outer loop
      vertex -45.6773 -20.3368 -17
      vertex -40.4509 -29.3893 -25
      vertex -40.4509 -29.3893 -17
    endloop
  endfacet
  facet normal -0.994522 -0.104529 0
    outer loop
      vertex -48.9074 -10.3956 -25
      vertex -50 0 -17
      vertex -50 0 -25
    endloop
  endfacet
  facet normal -0.994522 -0.104529 0
    outer loop
      vertex -50 0 -17
      vertex -48.9074 -10.3956 -25
      vertex -48.9074 -10.3956 -17
    endloop
  endfacet
  facet normal 0.587785 -0.809017 0
    outer loop
      vertex 25 -43.3013 -25
      vertex 33.4565 -37.1572 -17
      vertex 25 -43.3013 -17
    endloop
  endfacet
  facet normal 0.587785 -0.809017 0
    outer loop
      vertex 33.4565 -37.1572 -17
      vertex 25 -43.3013 -25
      vertex 33.4565 -37.1572 -25
    endloop
  endfacet
  facet normal -0.207912 -0.978148 0
    outer loop
      vertex -15.4508 -47.5528 -25
      vertex -5.22642 -49.7261 -17
      vertex -15.4508 -47.5528 -17
    endloop
  endfacet
  facet normal -0.207912 -0.978148 -0
    outer loop
      vertex -5.22642 -49.7261 -17
      vertex -15.4508 -47.5528 -25
      vertex -5.22642 -49.7261 -25
    endloop
  endfacet
  facet normal -0.406737 -0.913545 0
    outer loop
      vertex -25 -43.3013 -25
      vertex -15.4508 -47.5528 -17
      vertex -25 -43.3013 -17
    endloop
  endfacet
  facet normal -0.406737 -0.913545 -0
    outer loop
      vertex -15.4508 -47.5528 -17
      vertex -25 -43.3013 -25
      vertex -15.4508 -47.5528 -25
    endloop
  endfacet
  facet normal -0.743145 -0.669131 0
    outer loop
      vertex -33.4565 -37.1572 -25
      vertex -40.4509 -29.3893 -17
      vertex -40.4509 -29.3893 -25
    endloop
  endfacet
  facet normal -0.743145 -0.669131 0
    outer loop
      vertex -40.4509 -29.3893 -17
      vertex -33.4565 -37.1572 -25
      vertex -33.4565 -37.1572 -17
    endloop
  endfacet
  facet normal -0.951057 -0.309017 0
    outer loop
      vertex -45.6773 -20.3368 -25
      vertex -48.9074 -10.3956 -17
      vertex -48.9074 -10.3956 -25
    endloop
  endfacet
  facet normal -0.951057 -0.309017 0
    outer loop
      vertex -48.9074 -10.3956 -17
      vertex -45.6773 -20.3368 -25
      vertex -45.6773 -20.3368 -17
    endloop
  endfacet
  facet normal 0.406737 -0.913545 0
    outer loop
      vertex 15.4508 -47.5528 -25
      vertex 25 -43.3013 -17
      vertex 15.4508 -47.5528 -17
    endloop
  endfacet
  facet normal 0.406737 -0.913545 0
    outer loop
      vertex 25 -43.3013 -17
      vertex 15.4508 -47.5528 -25
      vertex 25 -43.3013 -25
    endloop
  endfacet
  facet normal 0.207912 -0.978148 0
    outer loop
      vertex 5.22642 -49.7261 -25
      vertex 15.4508 -47.5528 -17
      vertex 5.22642 -49.7261 -17
    endloop
  endfacet
  facet normal 0.207912 -0.978148 0
    outer loop
      vertex 15.4508 -47.5528 -17
      vertex 5.22642 -49.7261 -25
      vertex 15.4508 -47.5528 -25
    endloop
  endfacet
  facet normal -0.587785 -0.809017 0
    outer loop
      vertex -33.4565 -37.1572 -25
      vertex -25 -43.3013 -17
      vertex -33.4565 -37.1572 -17
    endloop
  endfacet
  facet normal -0.587785 -0.809017 -0
    outer loop
      vertex -25 -43.3013 -17
      vertex -33.4565 -37.1572 -25
      vertex -25 -43.3013 -25
    endloop
  endfacet
  facet normal 1 0 0
    outer loop
      vertex -17.5 -31.5 -17
      vertex -17.5 -34.5 -17
      vertex -17.5 -31.5 -20.9
    endloop
  endfacet
  facet normal 1 0 0
    outer loop
      vertex -17.5 31.5 -20.9
      vertex -17.5 34.5 -17
      vertex -17.5 31.5 -17
    endloop
  endfacet
  facet normal 1 0 0
    outer loop
      vertex -17.5 34.5 -17
      vertex -17.5 31.5 -20.9
      vertex -17.5 34.5 -24
    endloop
  endfacet
  facet normal 1 -0 0
    outer loop
      vertex -17.5 -31.5 -20.9
      vertex -17.5 34.5 -24
      vertex -17.5 31.5 -20.9
    endloop
  endfacet
  facet normal 1 0 0
    outer loop
      vertex -17.5 -31.5 -20.9
      vertex -17.5 -34.5 -24
      vertex -17.5 34.5 -24
    endloop
  endfacet
  facet normal 1 0 0
    outer loop
      vertex -17.5 -34.5 -24
      vertex -17.5 -31.5 -20.9
      vertex -17.5 -34.5 -17
    endloop
  endfacet
  facet normal -1 0 0
    outer loop
      vertex 17.5 34.5 -24
      vertex 17.5 31.5 -20.9
      vertex 17.5 34.5 -17
    endloop
  endfacet
  facet normal -1 0 0
    outer loop
      vertex 17.5 34.5 -24
      vertex 17.5 -31.5 -20.9
      vertex 17.5 31.5 -20.9
    endloop
  endfacet
  facet normal -1 0 0
    outer loop
      vertex 17.5 -34.5 -24
      vertex 17.5 -31.5 -20.9
      vertex 17.5 34.5 -24
    endloop
  endfacet
  facet normal -1 0 0
    outer loop
      vertex 17.5 -34.5 -17
      vertex 17.5 -31.5 -20.9
      vertex 17.5 -34.5 -24
    endloop
  endfacet
  facet normal -1 0 0
    outer loop
      vertex 17.5 -31.5 -20.9
      vertex 17.5 -34.5 -17
      vertex 17.5 -31.5 -17
    endloop
  endfacet
  facet normal -1 -0 0
    outer loop
      vertex 17.5 34.5 -17
      vertex 17.5 31.5 -20.9
      vertex 17.5 31.5 -17
    endloop
  endfacet
  facet normal -0 0 1
    outer loop
      vertex -17.5 34.5 -24
      vertex 17.5 -34.5 -24
      vertex 17.5 34.5 -24
    endloop
  endfacet
  facet normal 0 0 1
    outer loop
      vertex 17.5 -34.5 -24
      vertex -17.5 34.5 -24
      vertex -17.5 -34.5 -24
    endloop
  endfacet
  facet normal 0 1 -0
    outer loop
      vertex 17.5 -34.5 -24
      vertex -17.5 -34.5 -17
      vertex 17.5 -34.5 -17
    endloop
  endfacet
  facet normal 0 1 0
    outer loop
      vertex -17.5 -34.5 -17
      vertex 17.5 -34.5 -24
      vertex -17.5 -34.5 -24
    endloop
  endfacet
  facet normal 0 -1 0
    outer loop
      vertex -17.5 34.5 -24
      vertex 17.5 34.5 -17
      vertex -17.5 34.5 -17
    endloop
  endfacet
  facet normal 0 -1 -0
    outer loop
      vertex 17.5 34.5 -17
      vertex -17.5 34.5 -24
      vertex 17.5 34.5 -24
    endloop
  endfacet
  facet normal 1 -0 0
    outer loop
      vertex -27 0 -17
      vertex -27 31.5 -20.9
      vertex -27 31.5 -17
    endloop
  endfacet
  facet normal 1 0 0
    outer loop
      vertex -27 31.5 -20.9
      vertex -27 0 -17
      vertex -27 0 -20.9
    endloop
  endfacet
  facet normal 1 -0 0
    outer loop
      vertex -27 -31.5 -17
      vertex -27 0 -20.9
      vertex -27 0 -17
    endloop
  endfacet
  facet normal 1 0 0
    outer loop
      vertex -27 0 -20.9
      vertex -27 -31.5 -17
      vertex -27 -31.5 -20.9
    endloop
  endfacet
  facet normal -1 0 0
    outer loop
      vertex 27 -31.5 -20.9
      vertex 27 -22.4491 -17
      vertex 27 -22.4491 -20.9
    endloop
  endfacet
  facet normal -1 -0 0
    outer loop
      vertex 27 -22.4491 -17
      vertex 27 -31.5 -20.9
      vertex 27 -31.5 -17
    endloop
  endfacet
  facet normal -1 0 0
    outer loop
      vertex 27 22.4491 -20.9
      vertex 27 31.5 -17
      vertex 27 31.5 -20.9
    endloop
  endfacet
  facet normal -1 -0 0
    outer loop
      vertex 27 31.5 -17
      vertex 27 22.4491 -20.9
      vertex 27 22.4491 -17
    endloop
  endfacet
  facet normal -1 0 0
    outer loop
      vertex 27 -20.5509 -20.9
      vertex 27 20.5509 -17
      vertex 27 20.5509 -20.9
    endloop
  endfacet
  facet normal -1 -0 0
    outer loop
      vertex 27 20.5509 -17
      vertex 27 -20.5509 -20.9
      vertex 27 -20.5509 -17
    endloop
  endfacet
  facet normal 0 0 1
    outer loop
      vertex -27 0 -20.9
      vertex -17.5 31.5 -20.9
      vertex -27 31.5 -20.9
    endloop
  endfacet
  facet normal 0 0 1
    outer loop
      vertex -17.5 31.5 -20.9
      vertex -27 0 -20.9
      vertex -17.5 -31.5 -20.9
    endloop
  endfacet
  facet normal 0 0 1
    outer loop
      vertex -17.5 -31.5 -20.9
      vertex -27 0 -20.9
      vertex -27 -31.5 -20.9
    endloop
  endfacet
  facet normal 0 0 1
    outer loop
      vertex 27 31.5 -20.9
      vertex 26.8981 22.3678 -20.9
      vertex 27 22.4491 -20.9
    endloop
  endfacet
  facet normal 0 0 1
    outer loop
      vertex 17.5 31.5 -20.9
      vertex 26.8981 20.6322 -20.9
      vertex 26.8981 22.3678 -20.9
    endloop
  endfacet
  facet normal 0 0 1
    outer loop
      vertex 26.8981 20.6322 -20.9
      vertex 17.5 31.5 -20.9
      vertex 26.8981 -20.6322 -20.9
    endloop
  endfacet
  facet normal 0 0 1
    outer loop
      vertex 17.5 -31.5 -20.9
      vertex 26.8981 -20.6322 -20.9
      vertex 17.5 31.5 -20.9
    endloop
  endfacet
  facet normal -0 0 1
    outer loop
      vertex 17.5 31.5 -20.9
      vertex 26.8981 22.3678 -20.9
      vertex 27 31.5 -20.9
    endloop
  endfacet
  facet normal 0 0 1
    outer loop
      vertex 26.8981 20.6322 -20.9
      vertex 27 -20.5509 -20.9
      vertex 27 20.5509 -20.9
    endloop
  endfacet
  facet normal 0 0 1
    outer loop
      vertex 27 -20.5509 -20.9
      vertex 26.8981 20.6322 -20.9
      vertex 26.8981 -20.6322 -20.9
    endloop
  endfacet
  facet normal 0 0 1
    outer loop
      vertex 26.8981 -22.3678 -20.9
      vertex 27 -31.5 -20.9
      vertex 27 -22.4491 -20.9
    endloop
  endfacet
  facet normal 0 0 1
    outer loop
      vertex 26.8981 -20.6322 -20.9
      vertex 17.5 -31.5 -20.9
      vertex 26.8981 -22.3678 -20.9
    endloop
  endfacet
  facet normal 0 0 1
    outer loop
      vertex 26.8981 -22.3678 -20.9
      vertex 17.5 -31.5 -20.9
      vertex 27 -31.5 -20.9
    endloop
  endfacet
  facet normal 0 1 -0
    outer loop
      vertex -17.5 -31.5 -20.9
      vertex -27 -31.5 -17
      vertex -17.5 -31.5 -17
    endloop
  endfacet
  facet normal 0 1 0
    outer loop
      vertex -27 -31.5 -17
      vertex -17.5 -31.5 -20.9
      vertex -27 -31.5 -20.9
    endloop
  endfacet
  facet normal 0 1 -0
    outer loop
      vertex 27 -31.5 -20.9
      vertex 17.5 -31.5 -17
      vertex 27 -31.5 -17
    endloop
  endfacet
  facet normal 0 1 0
    outer loop
      vertex 17.5 -31.5 -17
      vertex 27 -31.5 -20.9
      vertex 17.5 -31.5 -20.9
    endloop
  endfacet
  facet normal 0 -1 0
    outer loop
      vertex -27 31.5 -20.9
      vertex -17.5 31.5 -17
      vertex -27 31.5 -17
    endloop
  endfacet
  facet normal 0 -1 -0
    outer loop
      vertex -17.5 31.5 -17
      vertex -27 31.5 -20.9
      vertex -17.5 31.5 -20.9
    endloop
  endfacet
  facet normal 0 -1 0
    outer loop
      vertex 17.5 31.5 -20.9
      vertex 27 31.5 -17
      vertex 17.5 31.5 -17
    endloop
  endfacet
  facet normal 0 -1 -0
    outer loop
      vertex 27 31.5 -17
      vertex 17.5 31.5 -20.9
      vertex 27 31.5 -20.9
    endloop
  endfacet
  facet normal -0.951057 -0.309017 -0
    outer loop
      vertex -27 0 -20.9
      vertex -27.5729 1.76336 -24
      vertex -27 0 -24
    endloop
  endfacet
  facet normal -0.951057 -0.309017 0
    outer loop
      vertex -27.5729 1.76336 -24
      vertex -27 0 -20.9
      vertex -27.5729 1.76336 -17
    endloop
  endfacet
  facet normal -0.951057 -0.309017 0
    outer loop
      vertex -27.5729 1.76336 -17
      vertex -27 0 -20.9
      vertex -27 0 -17
    endloop
  endfacet
  facet normal 0.951057 -0.309017 0
    outer loop
      vertex -33 0 -17
      vertex -32.4271 1.76336 -24
      vertex -32.4271 1.76336 -17
    endloop
  endfacet
  facet normal 0.951057 -0.309017 0
    outer loop
      vertex -32.4271 1.76336 -24
      vertex -33 0 -17
      vertex -33 0 -24
    endloop
  endfacet
  facet normal 0 1 -0
    outer loop
      vertex -29.0729 -2.85317 -24
      vertex -30.9271 -2.85317 -17
      vertex -29.0729 -2.85317 -17
    endloop
  endfacet
  facet normal 0 1 0
    outer loop
      vertex -30.9271 -2.85317 -17
      vertex -29.0729 -2.85317 -24
      vertex -30.9271 -2.85317 -24
    endloop
  endfacet
  facet normal 0 -1 0
    outer loop
      vertex -30.9271 2.85317 -24
      vertex -29.0729 2.85317 -17
      vertex -30.9271 2.85317 -17
    endloop
  endfacet
  facet normal 0 -1 -0
    outer loop
      vertex -29.0729 2.85317 -17
      vertex -30.9271 2.85317 -24
      vertex -29.0729 2.85317 -24
    endloop
  endfacet
  facet normal -0.587785 -0.809017 0
    outer loop
      vertex -29.0729 2.85317 -24
      vertex -27.5729 1.76336 -17
      vertex -29.0729 2.85317 -17
    endloop
  endfacet
  facet normal -0.587785 -0.809017 -0
    outer loop
      vertex -27.5729 1.76336 -17
      vertex -29.0729 2.85317 -24
      vertex -27.5729 1.76336 -24
    endloop
  endfacet
  facet normal 0.587785 -0.809017 0
    outer loop
      vertex -32.4271 1.76336 -24
      vertex -30.9271 2.85317 -17
      vertex -32.4271 1.76336 -17
    endloop
  endfacet
  facet normal 0.587785 -0.809017 0
    outer loop
      vertex -30.9271 2.85317 -17
      vertex -32.4271 1.76336 -24
      vertex -30.9271 2.85317 -24
    endloop
  endfacet
  facet normal -0.587785 0.809017 0
    outer loop
      vertex -27.5729 -1.76336 -24
      vertex -29.0729 -2.85317 -17
      vertex -27.5729 -1.76336 -17
    endloop
  endfacet
  facet normal -0.587785 0.809017 0
    outer loop
      vertex -29.0729 -2.85317 -17
      vertex -27.5729 -1.76336 -24
      vertex -29.0729 -2.85317 -24
    endloop
  endfacet
  facet normal -0.951057 0.309017 0
    outer loop
      vertex -27.5729 -1.76336 -24
      vertex -27 0 -20.9
      vertex -27 0 -24
    endloop
  endfacet
  facet normal -0.951057 0.309017 0
    outer loop
      vertex -27.5729 -1.76336 -17
      vertex -27 0 -20.9
      vertex -27.5729 -1.76336 -24
    endloop
  endfacet
  facet normal -0.951057 0.309017 0
    outer loop
      vertex -27 0 -20.9
      vertex -27.5729 -1.76336 -17
      vertex -27 0 -17
    endloop
  endfacet
  facet normal 0 0 1
    outer loop
      vertex -27.5729 1.76336 -24
      vertex -27.5729 -1.76336 -24
      vertex -27 0 -24
    endloop
  endfacet
  facet normal 0 0 1
    outer loop
      vertex -29.0729 2.85317 -24
      vertex -27.5729 -1.76336 -24
      vertex -27.5729 1.76336 -24
    endloop
  endfacet
  facet normal 0 0 1
    outer loop
      vertex -29.0729 2.85317 -24
      vertex -29.0729 -2.85317 -24
      vertex -27.5729 -1.76336 -24
    endloop
  endfacet
  facet normal -0 0 1
    outer loop
      vertex -30.9271 2.85317 -24
      vertex -29.0729 -2.85317 -24
      vertex -29.0729 2.85317 -24
    endloop
  endfacet
  facet normal 0 0 1
    outer loop
      vertex -30.9271 2.85317 -24
      vertex -30.9271 -2.85317 -24
      vertex -29.0729 -2.85317 -24
    endloop
  endfacet
  facet normal -0 0 1
    outer loop
      vertex -32.4271 1.76336 -24
      vertex -30.9271 -2.85317 -24
      vertex -30.9271 2.85317 -24
    endloop
  endfacet
  facet normal 0 0 1
    outer loop
      vertex -32.4271 1.76336 -24
      vertex -32.4271 -1.76336 -24
      vertex -30.9271 -2.85317 -24
    endloop
  endfacet
  facet normal 0 -0 1
    outer loop
      vertex -32.4271 -1.76336 -24
      vertex -32.4271 1.76336 -24
      vertex -33 0 -24
    endloop
  endfacet
  facet normal 0.587785 0.809017 -0
    outer loop
      vertex -30.9271 -2.85317 -24
      vertex -32.4271 -1.76336 -17
      vertex -30.9271 -2.85317 -17
    endloop
  endfacet
  facet normal 0.587785 0.809017 0
    outer loop
      vertex -32.4271 -1.76336 -17
      vertex -30.9271 -2.85317 -24
      vertex -32.4271 -1.76336 -24
    endloop
  endfacet
  facet normal 0.951057 0.309017 0
    outer loop
      vertex -32.4271 -1.76336 -17
      vertex -33 0 -24
      vertex -33 0 -17
    endloop
  endfacet
  facet normal 0.951057 0.309017 0
    outer loop
      vertex -33 0 -24
      vertex -32.4271 -1.76336 -17
      vertex -32.4271 -1.76336 -24
    endloop
  endfacet
  facet normal -0.900969 -0.433884 0
    outer loop
      vertex 30.7 21.5 -24
      vertex 29.947 23.0637 -17
      vertex 29.947 23.0637 -24
    endloop
  endfacet
  facet normal -0.900969 -0.433884 0
    outer loop
      vertex 29.947 23.0637 -17
      vertex 30.7 21.5 -24
      vertex 30.7 21.5 -17
    endloop
  endfacet
  facet normal 1 -0 0
    outer loop
      vertex 26.8981 20.6322 -20.9
      vertex 26.8981 22.3678 -24
      vertex 26.8981 22.3678 -20.9
    endloop
  endfacet
  facet normal 1 0 0
    outer loop
      vertex 26.8981 22.3678 -24
      vertex 26.8981 20.6322 -20.9
      vertex 26.8981 20.6322 -24
    endloop
  endfacet
  facet normal -0.222521 -0.974928 0
    outer loop
      vertex 28.255 23.4499 -24
      vertex 29.947 23.0637 -17
      vertex 28.255 23.4499 -17
    endloop
  endfacet
  facet normal -0.222521 -0.974928 -0
    outer loop
      vertex 29.947 23.0637 -17
      vertex 28.255 23.4499 -24
      vertex 29.947 23.0637 -24
    endloop
  endfacet
  facet normal 0 0 1
    outer loop
      vertex 29.947 23.0637 -24
      vertex 29.947 19.9363 -24
      vertex 30.7 21.5 -24
    endloop
  endfacet
  facet normal 0 0 1
    outer loop
      vertex 28.255 23.4499 -24
      vertex 29.947 19.9363 -24
      vertex 29.947 23.0637 -24
    endloop
  endfacet
  facet normal 0 0 1
    outer loop
      vertex 28.255 23.4499 -24
      vertex 28.255 19.5501 -24
      vertex 29.947 19.9363 -24
    endloop
  endfacet
  facet normal -0 0 1
    outer loop
      vertex 26.8981 22.3678 -24
      vertex 28.255 19.5501 -24
      vertex 28.255 23.4499 -24
    endloop
  endfacet
  facet normal 0 0 1
    outer loop
      vertex 28.255 19.5501 -24
      vertex 26.8981 22.3678 -24
      vertex 26.8981 20.6322 -24
    endloop
  endfacet
  facet normal 0.62349 -0.781831 0
    outer loop
      vertex 26.8981 22.3678 -20.9
      vertex 26.8981 22.3678 -24
      vertex 27 22.4491 -20.9
    endloop
  endfacet
  facet normal 0.62349 -0.781831 0
    outer loop
      vertex 27 22.4491 -20.9
      vertex 28.255 23.4499 -17
      vertex 27 22.4491 -17
    endloop
  endfacet
  facet normal 0.62349 -0.781831 7.98845e-009
    outer loop
      vertex 28.255 23.4499 -24
      vertex 27 22.4491 -20.9
      vertex 26.8981 22.3678 -24
    endloop
  endfacet
  facet normal 0.62349 -0.781831 0
    outer loop
      vertex 27 22.4491 -20.9
      vertex 28.255 23.4499 -24
      vertex 28.255 23.4499 -17
    endloop
  endfacet
  facet normal -0.900969 0.433884 0
    outer loop
      vertex 29.947 19.9363 -24
      vertex 30.7 21.5 -17
      vertex 30.7 21.5 -24
    endloop
  endfacet
  facet normal -0.900969 0.433884 0
    outer loop
      vertex 30.7 21.5 -17
      vertex 29.947 19.9363 -24
      vertex 29.947 19.9363 -17
    endloop
  endfacet
  facet normal 0.62349 0.781831 0
    outer loop
      vertex 28.255 19.5501 -17
      vertex 27 20.5509 -20.9
      vertex 27 20.5509 -17
    endloop
  endfacet
  facet normal 0.62349 0.781831 -0
    outer loop
      vertex 28.255 19.5501 -24
      vertex 27 20.5509 -20.9
      vertex 28.255 19.5501 -17
    endloop
  endfacet
  facet normal 0.62349 0.781831 7.98845e-009
    outer loop
      vertex 26.8981 20.6322 -24
      vertex 27 20.5509 -20.9
      vertex 28.255 19.5501 -24
    endloop
  endfacet
  facet normal 0.62349 0.781831 0
    outer loop
      vertex 27 20.5509 -20.9
      vertex 26.8981 20.6322 -24
      vertex 26.8981 20.6322 -20.9
    endloop
  endfacet
  facet normal -0.222521 0.974928 0
    outer loop
      vertex 29.947 19.9363 -24
      vertex 28.255 19.5501 -17
      vertex 29.947 19.9363 -17
    endloop
  endfacet
  facet normal -0.222521 0.974928 0
    outer loop
      vertex 28.255 19.5501 -17
      vertex 29.947 19.9363 -24
      vertex 28.255 19.5501 -24
    endloop
  endfacet
  facet normal -0.900969 -0.433884 0
    outer loop
      vertex 30.7 -21.5 -24
      vertex 29.947 -19.9363 -17
      vertex 29.947 -19.9363 -24
    endloop
  endfacet
  facet normal -0.900969 -0.433884 0
    outer loop
      vertex 29.947 -19.9363 -17
      vertex 30.7 -21.5 -24
      vertex 30.7 -21.5 -17
    endloop
  endfacet
  facet normal 1 -0 0
    outer loop
      vertex 26.8981 -22.3678 -20.9
      vertex 26.8981 -20.6322 -24
      vertex 26.8981 -20.6322 -20.9
    endloop
  endfacet
  facet normal 1 0 0
    outer loop
      vertex 26.8981 -20.6322 -24
      vertex 26.8981 -22.3678 -20.9
      vertex 26.8981 -22.3678 -24
    endloop
  endfacet
  facet normal -0.222521 -0.974928 0
    outer loop
      vertex 28.255 -19.5501 -24
      vertex 29.947 -19.9363 -17
      vertex 28.255 -19.5501 -17
    endloop
  endfacet
  facet normal -0.222521 -0.974928 -0
    outer loop
      vertex 29.947 -19.9363 -17
      vertex 28.255 -19.5501 -24
      vertex 29.947 -19.9363 -24
    endloop
  endfacet
  facet normal 0.62349 0.781831 0
    outer loop
      vertex 28.255 -23.4499 -17
      vertex 27 -22.4491 -20.9
      vertex 27 -22.4491 -17
    endloop
  endfacet
  facet normal 0.62349 0.781831 -0
    outer loop
      vertex 28.255 -23.4499 -24
      vertex 27 -22.4491 -20.9
      vertex 28.255 -23.4499 -17
    endloop
  endfacet
  facet normal 0.62349 0.781831 7.98845e-009
    outer loop
      vertex 26.8981 -22.3678 -24
      vertex 27 -22.4491 -20.9
      vertex 28.255 -23.4499 -24
    endloop
  endfacet
  facet normal 0.62349 0.781831 0
    outer loop
      vertex 27 -22.4491 -20.9
      vertex 26.8981 -22.3678 -24
      vertex 26.8981 -22.3678 -20.9
    endloop
  endfacet
  facet normal 0.62349 -0.781831 0
    outer loop
      vertex 26.8981 -20.6322 -20.9
      vertex 26.8981 -20.6322 -24
      vertex 27 -20.5509 -20.9
    endloop
  endfacet
  facet normal 0.62349 -0.781831 0
    outer loop
      vertex 27 -20.5509 -20.9
      vertex 28.255 -19.5501 -17
      vertex 27 -20.5509 -17
    endloop
  endfacet
  facet normal 0.62349 -0.781831 7.98845e-009
    outer loop
      vertex 28.255 -19.5501 -24
      vertex 27 -20.5509 -20.9
      vertex 26.8981 -20.6322 -24
    endloop
  endfacet
  facet normal 0.62349 -0.781831 0
    outer loop
      vertex 27 -20.5509 -20.9
      vertex 28.255 -19.5501 -24
      vertex 28.255 -19.5501 -17
    endloop
  endfacet
  facet normal -0.900969 0.433884 0
    outer loop
      vertex 29.947 -23.0637 -24
      vertex 30.7 -21.5 -17
      vertex 30.7 -21.5 -24
    endloop
  endfacet
  facet normal -0.900969 0.433884 0
    outer loop
      vertex 30.7 -21.5 -17
      vertex 29.947 -23.0637 -24
      vertex 29.947 -23.0637 -17
    endloop
  endfacet
  facet normal 0 0 1
    outer loop
      vertex 29.947 -19.9363 -24
      vertex 29.947 -23.0637 -24
      vertex 30.7 -21.5 -24
    endloop
  endfacet
  facet normal 0 0 1
    outer loop
      vertex 28.255 -19.5501 -24
      vertex 29.947 -23.0637 -24
      vertex 29.947 -19.9363 -24
    endloop
  endfacet
  facet normal 0 0 1
    outer loop
      vertex 28.255 -19.5501 -24
      vertex 28.255 -23.4499 -24
      vertex 29.947 -23.0637 -24
    endloop
  endfacet
  facet normal -0 0 1
    outer loop
      vertex 26.8981 -20.6322 -24
      vertex 28.255 -23.4499 -24
      vertex 28.255 -19.5501 -24
    endloop
  endfacet
  facet normal 0 0 1
    outer loop
      vertex 28.255 -23.4499 -24
      vertex 26.8981 -20.6322 -24
      vertex 26.8981 -22.3678 -24
    endloop
  endfacet
  facet normal -0.222521 0.974928 0
    outer loop
      vertex 29.947 -23.0637 -24
      vertex 28.255 -23.4499 -17
      vertex 29.947 -23.0637 -17
    endloop
  endfacet
  facet normal -0.222521 0.974928 0
    outer loop
      vertex 28.255 -23.4499 -17
      vertex 29.947 -23.0637 -24
      vertex 28.255 -23.4499 -24
    endloop
  endfacet
endsolid OpenSCAD_Model
