solid OpenSCAD_Model
  facet normal -0.994522 0.104528 0
    outer loop
      vertex -38 0 -17.5
      vertex -37.1696 7.90064 12.5
      vertex -37.1696 7.90064 -17.5
    endloop
  endfacet
  facet normal -0.994522 0.104528 0
    outer loop
      vertex -37.1696 7.90064 12.5
      vertex -38 0 -17.5
      vertex -38 0 12.5
    endloop
  endfacet
  facet normal 0 1 -0
    outer loop
      vertex 3.97208 37.7918 -17.5
      vertex -3.97208 37.7918 12.5
      vertex 3.97208 37.7918 12.5
    endloop
  endfacet
  facet normal 0 1 0
    outer loop
      vertex -3.97208 37.7918 12.5
      vertex 3.97208 37.7918 -17.5
      vertex -3.97208 37.7918 -17.5
    endloop
  endfacet
  facet normal 0 -1 0
    outer loop
      vertex -3.97208 -37.7918 -17.5
      vertex 3.97208 -37.7918 12.5
      vertex -3.97208 -37.7918 12.5
    endloop
  endfacet
  facet normal 0 -1 -0
    outer loop
      vertex 3.97208 -37.7918 12.5
      vertex -3.97208 -37.7918 -17.5
      vertex 3.97208 -37.7918 -17.5
    endloop
  endfacet
  facet normal 0.587785 0.809017 -0
    outer loop
      vertex 25.427 28.2395 -17.5
      vertex 19 32.909 12.5
      vertex 25.427 28.2395 12.5
    endloop
  endfacet
  facet normal 0.587785 0.809017 0
    outer loop
      vertex 19 32.909 12.5
      vertex 25.427 28.2395 -17.5
      vertex 19 32.909 -17.5
    endloop
  endfacet
  facet normal -0.587785 0.809017 0
    outer loop
      vertex -19 32.909 -17.5
      vertex -25.427 28.2395 12.5
      vertex -19 32.909 12.5
    endloop
  endfacet
  facet normal -0.587785 0.809017 0
    outer loop
      vertex -25.427 28.2395 12.5
      vertex -19 32.909 -17.5
      vertex -25.427 28.2395 -17.5
    endloop
  endfacet
  facet normal -0.406737 0.913545 -3.34033e-08
    outer loop
      vertex -11.7426 36.1401 12.5
      vertex -15.4265 34.5 -16
      vertex -19 32.909 12.5
    endloop
  endfacet
  facet normal -0.406737 0.913545 0
    outer loop
      vertex -11.7426 36.1401 -17.5
      vertex -15.4265 34.5 -16
      vertex -11.7426 36.1401 12.5
    endloop
  endfacet
  facet normal -0.406737 0.913545 0
    outer loop
      vertex -15.4265 34.5 -16
      vertex -11.7426 36.1401 -17.5
      vertex -15.4265 34.5 -17.5
    endloop
  endfacet
  facet normal -0.406736 0.913546 1.98389e-08
    outer loop
      vertex -17.5 33.5768 -16
      vertex -19 32.909 12.5
      vertex -15.4265 34.5 -16
    endloop
  endfacet
  facet normal -0.406737 0.913545 0
    outer loop
      vertex -19 32.909 -17.5
      vertex -17.5 33.5768 -16
      vertex -17.5 33.5768 -17.5
    endloop
  endfacet
  facet normal -0.406737 0.913545 0
    outer loop
      vertex -17.5 33.5768 -16
      vertex -19 32.909 -17.5
      vertex -19 32.909 12.5
    endloop
  endfacet
  facet normal 0.866025 0.5 0
    outer loop
      vertex 32.237 19.7475 12.5
      vertex 30.7426 22.3358 -17.5
      vertex 30.7426 22.3358 12.5
    endloop
  endfacet
  facet normal 0.866025 0.5 0
    outer loop
      vertex 30.7426 22.3358 -17.5
      vertex 32.237 19.7475 12.5
      vertex 32.237 19.7475 -17.5
    endloop
  endfacet
  facet normal 0.743145 0.669131 0
    outer loop
      vertex 30.7426 22.3358 12.5
      vertex 25.427 28.2395 -17.5
      vertex 25.427 28.2395 12.5
    endloop
  endfacet
  facet normal 0.743145 0.669131 0
    outer loop
      vertex 25.427 28.2395 -17.5
      vertex 30.7426 22.3358 12.5
      vertex 30.7426 22.3358 -17.5
    endloop
  endfacet
  facet normal 0.207912 0.978148 -0
    outer loop
      vertex 11.7426 36.1401 -17.5
      vertex 3.97208 37.7918 12.5
      vertex 11.7426 36.1401 12.5
    endloop
  endfacet
  facet normal 0.207912 0.978148 0
    outer loop
      vertex 3.97208 37.7918 12.5
      vertex 11.7426 36.1401 -17.5
      vertex 3.97208 37.7918 -17.5
    endloop
  endfacet
  facet normal 0.406736 0.913546 1.98389e-08
    outer loop
      vertex 15.4265 34.5 -16
      vertex 19 32.909 12.5
      vertex 17.5 33.5768 -16
    endloop
  endfacet
  facet normal 0.406737 0.913545 -0
    outer loop
      vertex 19 32.909 -17.5
      vertex 17.5 33.5768 -16
      vertex 19 32.909 12.5
    endloop
  endfacet
  facet normal 0.406737 0.913545 0
    outer loop
      vertex 17.5 33.5768 -16
      vertex 19 32.909 -17.5
      vertex 17.5 33.5768 -17.5
    endloop
  endfacet
  facet normal 0.406737 0.913545 -3.34033e-08
    outer loop
      vertex 19 32.909 12.5
      vertex 15.4265 34.5 -16
      vertex 11.7426 36.1401 12.5
    endloop
  endfacet
  facet normal 0.406737 0.913545 0
    outer loop
      vertex 11.7426 36.1401 -17.5
      vertex 15.4265 34.5 -16
      vertex 15.4265 34.5 -17.5
    endloop
  endfacet
  facet normal 0.406737 0.913545 0
    outer loop
      vertex 15.4265 34.5 -16
      vertex 11.7426 36.1401 -17.5
      vertex 11.7426 36.1401 12.5
    endloop
  endfacet
  facet normal -0.866025 0.5 0
    outer loop
      vertex -34.7147 15.456 -17.5
      vertex -30.7426 22.3358 12.5
      vertex -30.7426 22.3358 -17.5
    endloop
  endfacet
  facet normal -0.866025 0.5 0
    outer loop
      vertex -30.7426 22.3358 12.5
      vertex -34.7147 15.456 -17.5
      vertex -34.7147 15.456 12.5
    endloop
  endfacet
  facet normal -0.743145 0.669131 0
    outer loop
      vertex -30.7426 22.3358 -17.5
      vertex -25.427 28.2395 12.5
      vertex -25.427 28.2395 -17.5
    endloop
  endfacet
  facet normal -0.743145 0.669131 0
    outer loop
      vertex -25.427 28.2395 12.5
      vertex -30.7426 22.3358 -17.5
      vertex -30.7426 22.3358 12.5
    endloop
  endfacet
  facet normal -0.951056 0.309017 0
    outer loop
      vertex -37.1696 7.90064 -17.5
      vertex -34.7147 15.456 12.5
      vertex -34.7147 15.456 -17.5
    endloop
  endfacet
  facet normal -0.951056 0.309017 0
    outer loop
      vertex -34.7147 15.456 12.5
      vertex -37.1696 7.90064 -17.5
      vertex -37.1696 7.90064 12.5
    endloop
  endfacet
  facet normal 0 0 1
    outer loop
      vertex 30.7426 22.3358 12.5
      vertex 28.8197 19.0211 12.5
      vertex 32.237 19.7475 12.5
    endloop
  endfacet
  facet normal 0 0 1
    outer loop
      vertex 30.7426 22.3358 12.5
      vertex 26.6581 22.4133 12.5
      vertex 28.8197 19.0211 12.5
    endloop
  endfacet
  facet normal 0 0 1
    outer loop
      vertex 25.427 28.2395 12.5
      vertex 26.6581 22.4133 12.5
      vertex 30.7426 22.3358 12.5
    endloop
  endfacet
  facet normal 0 0 1
    outer loop
      vertex 25.427 28.2395 12.5
      vertex 23.4196 26.0101 12.5
      vertex 26.6581 22.4133 12.5
    endloop
  endfacet
  facet normal 0 0 1
    outer loop
      vertex 19 32.909 12.5
      vertex 23.4196 26.0101 12.5
      vertex 25.427 28.2395 12.5
    endloop
  endfacet
  facet normal 0 0 1
    outer loop
      vertex 19 32.909 12.5
      vertex 17.5 30.3109 12.5
      vertex 23.4196 26.0101 12.5
    endloop
  endfacet
  facet normal 0 0 1
    outer loop
      vertex 11.7426 36.1401 12.5
      vertex 17.5 30.3109 12.5
      vertex 19 32.909 12.5
    endloop
  endfacet
  facet normal 0 0 1
    outer loop
      vertex 11.7426 36.1401 12.5
      vertex 10.8156 33.287 12.5
      vertex 17.5 30.3109 12.5
    endloop
  endfacet
  facet normal 0 0 1
    outer loop
      vertex 3.97208 37.7918 12.5
      vertex 10.8156 33.287 12.5
      vertex 11.7426 36.1401 12.5
    endloop
  endfacet
  facet normal 0 0 1
    outer loop
      vertex 3.97208 37.7918 12.5
      vertex 3.6585 34.8083 12.5
      vertex 10.8156 33.287 12.5
    endloop
  endfacet
  facet normal 0 0 1
    outer loop
      vertex 3.97208 37.7918 12.5
      vertex -3.6585 34.8083 12.5
      vertex 3.6585 34.8083 12.5
    endloop
  endfacet
  facet normal -0 0 1
    outer loop
      vertex -3.97208 37.7918 12.5
      vertex -3.6585 34.8083 12.5
      vertex 3.97208 37.7918 12.5
    endloop
  endfacet
  facet normal 0 0 1
    outer loop
      vertex -3.97208 37.7918 12.5
      vertex -10.8156 33.287 12.5
      vertex -3.6585 34.8083 12.5
    endloop
  endfacet
  facet normal -0 0 1
    outer loop
      vertex -11.7426 36.1401 12.5
      vertex -10.8156 33.287 12.5
      vertex -3.97208 37.7918 12.5
    endloop
  endfacet
  facet normal 0 0 1
    outer loop
      vertex -11.7426 36.1401 12.5
      vertex -17.5 30.3109 12.5
      vertex -10.8156 33.287 12.5
    endloop
  endfacet
  facet normal -0 0 1
    outer loop
      vertex -19 32.909 12.5
      vertex -17.5 30.3109 12.5
      vertex -11.7426 36.1401 12.5
    endloop
  endfacet
  facet normal 0 0 1
    outer loop
      vertex -19 32.909 12.5
      vertex -23.4196 26.0101 12.5
      vertex -17.5 30.3109 12.5
    endloop
  endfacet
  facet normal -0 0 1
    outer loop
      vertex -25.427 28.2395 12.5
      vertex -23.4196 26.0101 12.5
      vertex -19 32.909 12.5
    endloop
  endfacet
  facet normal 0 0 1
    outer loop
      vertex -25.427 28.2395 12.5
      vertex -28.3156 20.5725 12.5
      vertex -23.4196 26.0101 12.5
    endloop
  endfacet
  facet normal -0 0 1
    outer loop
      vertex -30.7426 22.3358 12.5
      vertex -28.3156 20.5725 12.5
      vertex -25.427 28.2395 12.5
    endloop
  endfacet
  facet normal 0 0 1
    outer loop
      vertex -30.7426 22.3358 12.5
      vertex -31.9741 14.2358 12.5
      vertex -28.3156 20.5725 12.5
    endloop
  endfacet
  facet normal -0 0 1
    outer loop
      vertex -34.7147 15.456 12.5
      vertex -31.9741 14.2358 12.5
      vertex -30.7426 22.3358 12.5
    endloop
  endfacet
  facet normal 0 0 1
    outer loop
      vertex -31.9741 14.2358 12.5
      vertex -34.7147 15.456 12.5
      vertex -34.2352 7.27691 12.5
    endloop
  endfacet
  facet normal -0 0 1
    outer loop
      vertex -37.1696 7.90064 12.5
      vertex -34.2352 7.27691 12.5
      vertex -34.7147 15.456 12.5
    endloop
  endfacet
  facet normal 0 0 1
    outer loop
      vertex -34.2352 7.27691 12.5
      vertex -37.1696 7.90064 12.5
      vertex -35 0 12.5
    endloop
  endfacet
  facet normal 0 0 1
    outer loop
      vertex 26.6581 22.4133 12.5
      vertex 25 17.3205 12.5
      vertex 28.8197 19.0211 12.5
    endloop
  endfacet
  facet normal -0 0 1
    outer loop
      vertex 23 20.7846 12.5
      vertex 25 17.3205 12.5
      vertex 26.6581 22.4133 12.5
    endloop
  endfacet
  facet normal 0 0 1
    outer loop
      vertex 23 20.7846 12.5
      vertex 21.6174 14.8629 12.5
      vertex 25 17.3205 12.5
    endloop
  endfacet
  facet normal -0 0 1
    outer loop
      vertex 18.9409 17.8355 12.5
      vertex 21.6174 14.8629 12.5
      vertex 23 20.7846 12.5
    endloop
  endfacet
  facet normal 0 0 1
    outer loop
      vertex 18.9409 17.8355 12.5
      vertex 18.8197 11.7557 12.5
      vertex 21.6174 14.8629 12.5
    endloop
  endfacet
  facet normal -0 0 1
    outer loop
      vertex 15.5836 14.1068 12.5
      vertex 18.8197 11.7557 12.5
      vertex 18.9409 17.8355 12.5
    endloop
  endfacet
  facet normal 0 0 1
    outer loop
      vertex 18.8197 11.7557 12.5
      vertex 15.5836 14.1068 12.5
      vertex 16.7291 8.13473 12.5
    endloop
  endfacet
  facet normal -0 0 1
    outer loop
      vertex 13.0749 9.76168 12.5
      vertex 16.7291 8.13473 12.5
      vertex 15.5836 14.1068 12.5
    endloop
  endfacet
  facet normal 0 0 1
    outer loop
      vertex 16.7291 8.13473 12.5
      vertex 13.0749 9.76168 12.5
      vertex 15.437 4.15823 12.5
    endloop
  endfacet
  facet normal -0 0 1
    outer loop
      vertex 11.5245 4.98988 12.5
      vertex 15.437 4.15823 12.5
      vertex 13.0749 9.76168 12.5
    endloop
  endfacet
  facet normal 0 0 1
    outer loop
      vertex 25 -17.3205 12.5
      vertex 26.6581 -22.4133 12.5
      vertex 28.8197 -19.0211 12.5
    endloop
  endfacet
  facet normal 0 0 1
    outer loop
      vertex 25 -17.3205 12.5
      vertex 23 -20.7846 12.5
      vertex 26.6581 -22.4133 12.5
    endloop
  endfacet
  facet normal 0 0 1
    outer loop
      vertex 21.6174 -14.8629 12.5
      vertex 23 -20.7846 12.5
      vertex 25 -17.3205 12.5
    endloop
  endfacet
  facet normal 0 0 1
    outer loop
      vertex 21.6174 -14.8629 12.5
      vertex 18.9409 -17.8355 12.5
      vertex 23 -20.7846 12.5
    endloop
  endfacet
  facet normal 0 0 1
    outer loop
      vertex 18.8197 -11.7557 12.5
      vertex 18.9409 -17.8355 12.5
      vertex 21.6174 -14.8629 12.5
    endloop
  endfacet
  facet normal 0 0 1
    outer loop
      vertex 15.5836 -14.1068 12.5
      vertex 18.8197 -11.7557 12.5
      vertex 16.7291 -8.13473 12.5
    endloop
  endfacet
  facet normal 0 0 1
    outer loop
      vertex 18.8197 -11.7557 12.5
      vertex 15.5836 -14.1068 12.5
      vertex 18.9409 -17.8355 12.5
    endloop
  endfacet
  facet normal 0 0 1
    outer loop
      vertex 13.0749 -9.76168 12.5
      vertex 16.7291 -8.13473 12.5
      vertex 15.437 -4.15823 12.5
    endloop
  endfacet
  facet normal 0 0 1
    outer loop
      vertex 11.5245 -4.98988 12.5
      vertex 15.437 -4.15823 12.5
      vertex 15 0 12.5
    endloop
  endfacet
  facet normal 0 0 1
    outer loop
      vertex 15.437 4.15823 12.5
      vertex 11.5245 4.98988 12.5
      vertex 15 0 12.5
    endloop
  endfacet
  facet normal 0 0 1
    outer loop
      vertex 16.7291 -8.13473 12.5
      vertex 13.0749 -9.76168 12.5
      vertex 15.5836 -14.1068 12.5
    endloop
  endfacet
  facet normal 0 0 1
    outer loop
      vertex 11 0 12.5
      vertex 15 0 12.5
      vertex 11.5245 4.98988 12.5
    endloop
  endfacet
  facet normal 0 0 1
    outer loop
      vertex 15.437 -4.15823 12.5
      vertex 11.5245 -4.98988 12.5
      vertex 13.0749 -9.76168 12.5
    endloop
  endfacet
  facet normal 0 0 1
    outer loop
      vertex 15 0 12.5
      vertex 11 0 12.5
      vertex 11.5245 -4.98988 12.5
    endloop
  endfacet
  facet normal 0 0 1
    outer loop
      vertex 28.8197 -19.0211 12.5
      vertex 30.7426 -22.3358 12.5
      vertex 32.237 -19.7475 12.5
    endloop
  endfacet
  facet normal 0 0 1
    outer loop
      vertex 26.6581 -22.4133 12.5
      vertex 30.7426 -22.3358 12.5
      vertex 28.8197 -19.0211 12.5
    endloop
  endfacet
  facet normal -0 0 1
    outer loop
      vertex 26.6581 -22.4133 12.5
      vertex 25.427 -28.2395 12.5
      vertex 30.7426 -22.3358 12.5
    endloop
  endfacet
  facet normal -0 0 1
    outer loop
      vertex 23.4196 -26.0101 12.5
      vertex 25.427 -28.2395 12.5
      vertex 26.6581 -22.4133 12.5
    endloop
  endfacet
  facet normal 0 0 1
    outer loop
      vertex 23.4196 -26.0101 12.5
      vertex 19 -32.909 12.5
      vertex 25.427 -28.2395 12.5
    endloop
  endfacet
  facet normal -0 0 1
    outer loop
      vertex 17.5 -30.3109 12.5
      vertex 19 -32.909 12.5
      vertex 23.4196 -26.0101 12.5
    endloop
  endfacet
  facet normal 0 0 1
    outer loop
      vertex 17.5 -30.3109 12.5
      vertex 11.7426 -36.1401 12.5
      vertex 19 -32.909 12.5
    endloop
  endfacet
  facet normal -0 0 1
    outer loop
      vertex 10.8156 -33.287 12.5
      vertex 11.7426 -36.1401 12.5
      vertex 17.5 -30.3109 12.5
    endloop
  endfacet
  facet normal 0 0 1
    outer loop
      vertex 10.8156 -33.287 12.5
      vertex 3.97208 -37.7918 12.5
      vertex 11.7426 -36.1401 12.5
    endloop
  endfacet
  facet normal -0 0 1
    outer loop
      vertex 3.6585 -34.8083 12.5
      vertex 3.97208 -37.7918 12.5
      vertex 10.8156 -33.287 12.5
    endloop
  endfacet
  facet normal -0 0 1
    outer loop
      vertex -3.6585 -34.8083 12.5
      vertex 3.97208 -37.7918 12.5
      vertex 3.6585 -34.8083 12.5
    endloop
  endfacet
  facet normal 0 0 1
    outer loop
      vertex -3.6585 -34.8083 12.5
      vertex -3.97208 -37.7918 12.5
      vertex 3.97208 -37.7918 12.5
    endloop
  endfacet
  facet normal 0 0 1
    outer loop
      vertex -10.8156 -33.287 12.5
      vertex -3.97208 -37.7918 12.5
      vertex -3.6585 -34.8083 12.5
    endloop
  endfacet
  facet normal 0 0 1
    outer loop
      vertex -10.8156 -33.287 12.5
      vertex -11.7426 -36.1401 12.5
      vertex -3.97208 -37.7918 12.5
    endloop
  endfacet
  facet normal 0 0 1
    outer loop
      vertex -17.5 -30.3109 12.5
      vertex -11.7426 -36.1401 12.5
      vertex -10.8156 -33.287 12.5
    endloop
  endfacet
  facet normal 0 0 1
    outer loop
      vertex -17.5 -30.3109 12.5
      vertex -19 -32.909 12.5
      vertex -11.7426 -36.1401 12.5
    endloop
  endfacet
  facet normal 0 0 1
    outer loop
      vertex -23.4196 -26.0101 12.5
      vertex -19 -32.909 12.5
      vertex -17.5 -30.3109 12.5
    endloop
  endfacet
  facet normal 0 0 1
    outer loop
      vertex -23.4196 -26.0101 12.5
      vertex -25.427 -28.2395 12.5
      vertex -19 -32.909 12.5
    endloop
  endfacet
  facet normal 0 0 1
    outer loop
      vertex -28.3156 -20.5725 12.5
      vertex -25.427 -28.2395 12.5
      vertex -23.4196 -26.0101 12.5
    endloop
  endfacet
  facet normal 0 0 1
    outer loop
      vertex -28.3156 -20.5725 12.5
      vertex -30.7426 -22.3358 12.5
      vertex -25.427 -28.2395 12.5
    endloop
  endfacet
  facet normal 0 0 1
    outer loop
      vertex -31.9741 -14.2358 12.5
      vertex -30.7426 -22.3358 12.5
      vertex -28.3156 -20.5725 12.5
    endloop
  endfacet
  facet normal 0 0 1
    outer loop
      vertex -34.7147 -15.456 12.5
      vertex -31.9741 -14.2358 12.5
      vertex -34.2352 -7.27691 12.5
    endloop
  endfacet
  facet normal 0 0 1
    outer loop
      vertex -31.9741 -14.2358 12.5
      vertex -34.7147 -15.456 12.5
      vertex -30.7426 -22.3358 12.5
    endloop
  endfacet
  facet normal 0 0 1
    outer loop
      vertex -37.1696 -7.90064 12.5
      vertex -34.2352 -7.27691 12.5
      vertex -35 0 12.5
    endloop
  endfacet
  facet normal 0 0 1
    outer loop
      vertex -38 0 12.5
      vertex -35 0 12.5
      vertex -37.1696 7.90064 12.5
    endloop
  endfacet
  facet normal 0 0 1
    outer loop
      vertex -34.2352 -7.27691 12.5
      vertex -37.1696 -7.90064 12.5
      vertex -34.7147 -15.456 12.5
    endloop
  endfacet
  facet normal 0 0 1
    outer loop
      vertex -35 0 12.5
      vertex -38 0 12.5
      vertex -37.1696 -7.90064 12.5
    endloop
  endfacet
  facet normal -0.207912 0.978148 0
    outer loop
      vertex -3.97208 37.7918 -17.5
      vertex -11.7426 36.1401 12.5
      vertex -3.97208 37.7918 12.5
    endloop
  endfacet
  facet normal -0.207912 0.978148 0
    outer loop
      vertex -11.7426 36.1401 12.5
      vertex -3.97208 37.7918 -17.5
      vertex -11.7426 36.1401 -17.5
    endloop
  endfacet
  facet normal 0 0 -1
    outer loop
      vertex -19 -32.909 -17.5
      vertex -17.5 -30.3109 -17.5
      vertex -17.5 -33.5768 -17.5
    endloop
  endfacet
  facet normal 0 0 -1
    outer loop
      vertex -19 -32.909 -17.5
      vertex -23.4196 -26.0101 -17.5
      vertex -17.5 -30.3109 -17.5
    endloop
  endfacet
  facet normal 0 0 -1
    outer loop
      vertex -25.427 -28.2395 -17.5
      vertex -23.4196 -26.0101 -17.5
      vertex -19 -32.909 -17.5
    endloop
  endfacet
  facet normal 0 0 -1
    outer loop
      vertex -25.427 -28.2395 -17.5
      vertex -28.3156 -20.5725 -17.5
      vertex -23.4196 -26.0101 -17.5
    endloop
  endfacet
  facet normal 0 0 -1
    outer loop
      vertex -30.7426 -22.3358 -17.5
      vertex -28.3156 -20.5725 -17.5
      vertex -25.427 -28.2395 -17.5
    endloop
  endfacet
  facet normal 0 0 -1
    outer loop
      vertex -30.7426 -22.3358 -17.5
      vertex -31.9741 -14.2358 -17.5
      vertex -28.3156 -20.5725 -17.5
    endloop
  endfacet
  facet normal 0 0 -1
    outer loop
      vertex -34.7147 -15.456 -17.5
      vertex -31.9741 -14.2358 -17.5
      vertex -30.7426 -22.3358 -17.5
    endloop
  endfacet
  facet normal -0 0 -1
    outer loop
      vertex -34.2352 -7.27691 -17.5
      vertex -37.1696 -7.90064 -17.5
      vertex -34.4745 -5 -17.5
    endloop
  endfacet
  facet normal 0 0 -1
    outer loop
      vertex -37.1696 -7.90064 -17.5
      vertex -34.2352 -7.27691 -17.5
      vertex -34.7147 -15.456 -17.5
    endloop
  endfacet
  facet normal -0 0 -1
    outer loop
      vertex -31.9741 -14.2358 -17.5
      vertex -34.7147 -15.456 -17.5
      vertex -34.2352 -7.27691 -17.5
    endloop
  endfacet
  facet normal 0 0 -1
    outer loop
      vertex -27 -5 -17.5
      vertex -27.5729 -1.76336 -17.5
      vertex -27 0 -17.5
    endloop
  endfacet
  facet normal 0 0 -1
    outer loop
      vertex -27 -5 -17.5
      vertex -29.0729 -2.85317 -17.5
      vertex -27.5729 -1.76336 -17.5
    endloop
  endfacet
  facet normal 0 0 -1
    outer loop
      vertex -27 -5 -17.5
      vertex -30.9271 -2.85317 -17.5
      vertex -29.0729 -2.85317 -17.5
    endloop
  endfacet
  facet normal -0 0 -1
    outer loop
      vertex -32.4271 -1.76336 -17.5
      vertex -34.4745 -5 -17.5
      vertex -33 0 -17.5
    endloop
  endfacet
  facet normal -0 0 -1
    outer loop
      vertex -30.9271 -2.85317 -17.5
      vertex -34.4745 -5 -17.5
      vertex -32.4271 -1.76336 -17.5
    endloop
  endfacet
  facet normal 0 0 -1
    outer loop
      vertex -34.4745 -5 -17.5
      vertex -30.9271 -2.85317 -17.5
      vertex -27 -5 -17.5
    endloop
  endfacet
  facet normal 0 0 -1
    outer loop
      vertex -27.5729 1.76336 -17.5
      vertex -27 5 -17.5
      vertex -27 0 -17.5
    endloop
  endfacet
  facet normal 0 0 -1
    outer loop
      vertex -29.0729 2.85317 -17.5
      vertex -27 5 -17.5
      vertex -27.5729 1.76336 -17.5
    endloop
  endfacet
  facet normal 0 0 -1
    outer loop
      vertex -30.9271 2.85317 -17.5
      vertex -27 5 -17.5
      vertex -29.0729 2.85317 -17.5
    endloop
  endfacet
  facet normal 0 0 -1
    outer loop
      vertex -30.9271 2.85317 -17.5
      vertex -34.4745 5 -17.5
      vertex -27 5 -17.5
    endloop
  endfacet
  facet normal 0 0 -1
    outer loop
      vertex -32.4271 1.76336 -17.5
      vertex -34.4745 5 -17.5
      vertex -30.9271 2.85317 -17.5
    endloop
  endfacet
  facet normal 0 0 -1
    outer loop
      vertex -33 0 -17.5
      vertex -34.4745 5 -17.5
      vertex -32.4271 1.76336 -17.5
    endloop
  endfacet
  facet normal 0 0 -1
    outer loop
      vertex -34.4745 5 -17.5
      vertex -33 0 -17.5
      vertex -34.4745 -5 -17.5
    endloop
  endfacet
  facet normal 0 0 -1
    outer loop
      vertex -17.5 30.3109 -17.5
      vertex -19 32.909 -17.5
      vertex -17.5 33.5768 -17.5
    endloop
  endfacet
  facet normal 0 0 -1
    outer loop
      vertex -23.4196 26.0101 -17.5
      vertex -19 32.909 -17.5
      vertex -17.5 30.3109 -17.5
    endloop
  endfacet
  facet normal 0 0 -1
    outer loop
      vertex -23.4196 26.0101 -17.5
      vertex -25.427 28.2395 -17.5
      vertex -19 32.909 -17.5
    endloop
  endfacet
  facet normal 0 0 -1
    outer loop
      vertex -28.3156 20.5725 -17.5
      vertex -25.427 28.2395 -17.5
      vertex -23.4196 26.0101 -17.5
    endloop
  endfacet
  facet normal 0 0 -1
    outer loop
      vertex -28.3156 20.5725 -17.5
      vertex -30.7426 22.3358 -17.5
      vertex -25.427 28.2395 -17.5
    endloop
  endfacet
  facet normal 0 0 -1
    outer loop
      vertex -31.9741 14.2358 -17.5
      vertex -30.7426 22.3358 -17.5
      vertex -28.3156 20.5725 -17.5
    endloop
  endfacet
  facet normal 0 0 -1
    outer loop
      vertex -34.7147 15.456 -17.5
      vertex -31.9741 14.2358 -17.5
      vertex -34.2352 7.27691 -17.5
    endloop
  endfacet
  facet normal 0 0 -1
    outer loop
      vertex -31.9741 14.2358 -17.5
      vertex -34.7147 15.456 -17.5
      vertex -30.7426 22.3358 -17.5
    endloop
  endfacet
  facet normal 0 0 -1
    outer loop
      vertex -37.1696 7.90064 -17.5
      vertex -34.2352 7.27691 -17.5
      vertex -34.4745 5 -17.5
    endloop
  endfacet
  facet normal 0 0 -1
    outer loop
      vertex -38 0 -17.5
      vertex -34.4745 -5 -17.5
      vertex -37.1696 -7.90064 -17.5
    endloop
  endfacet
  facet normal 0 0 -1
    outer loop
      vertex -34.4745 -5 -17.5
      vertex -38 0 -17.5
      vertex -34.4745 5 -17.5
    endloop
  endfacet
  facet normal 0 0 -1
    outer loop
      vertex -34.2352 7.27691 -17.5
      vertex -37.1696 7.90064 -17.5
      vertex -34.7147 15.456 -17.5
    endloop
  endfacet
  facet normal -0 0 -1
    outer loop
      vertex -34.4745 5 -17.5
      vertex -38 0 -17.5
      vertex -37.1696 7.90064 -17.5
    endloop
  endfacet
  facet normal 0 0 -1
    outer loop
      vertex 5.10877 34.5 -17.5
      vertex 11.7426 36.1401 -17.5
      vertex 15.4265 34.5 -17.5
    endloop
  endfacet
  facet normal 0 0 -1
    outer loop
      vertex 5.10877 34.5 -17.5
      vertex 3.97208 37.7918 -17.5
      vertex 11.7426 36.1401 -17.5
    endloop
  endfacet
  facet normal 0 0 -1
    outer loop
      vertex 3.6585 34.8083 -17.5
      vertex 3.97208 37.7918 -17.5
      vertex 5.10877 34.5 -17.5
    endloop
  endfacet
  facet normal 0 0 -1
    outer loop
      vertex -3.6585 34.8083 -17.5
      vertex 3.97208 37.7918 -17.5
      vertex 3.6585 34.8083 -17.5
    endloop
  endfacet
  facet normal 0 0 -1
    outer loop
      vertex -3.6585 34.8083 -17.5
      vertex -3.97208 37.7918 -17.5
      vertex 3.97208 37.7918 -17.5
    endloop
  endfacet
  facet normal 0 0 -1
    outer loop
      vertex -5.10877 34.5 -17.5
      vertex -3.97208 37.7918 -17.5
      vertex -3.6585 34.8083 -17.5
    endloop
  endfacet
  facet normal 0 0 -1
    outer loop
      vertex -5.10877 34.5 -17.5
      vertex -11.7426 36.1401 -17.5
      vertex -3.97208 37.7918 -17.5
    endloop
  endfacet
  facet normal 0 -0 -1
    outer loop
      vertex -11.7426 36.1401 -17.5
      vertex -5.10877 34.5 -17.5
      vertex -15.4265 34.5 -17.5
    endloop
  endfacet
  facet normal 0 0 -1
    outer loop
      vertex 32.237 19.7475 -17.5
      vertex 30.7 21.5 -17.5
      vertex 30.7426 22.3358 -17.5
    endloop
  endfacet
  facet normal 0 0 -1
    outer loop
      vertex 32.237 19.7475 -17.5
      vertex 29.947 19.9363 -17.5
      vertex 30.7 21.5 -17.5
    endloop
  endfacet
  facet normal 0 0 -1
    outer loop
      vertex 28.8197 19.0211 -17.5
      vertex 29.947 19.9363 -17.5
      vertex 32.237 19.7475 -17.5
    endloop
  endfacet
  facet normal 0 0 -1
    outer loop
      vertex 28.8197 19.0211 -17.5
      vertex 28.255 19.5501 -17.5
      vertex 29.947 19.9363 -17.5
    endloop
  endfacet
  facet normal 0 0 -1
    outer loop
      vertex 25 17.3205 -17.5
      vertex 28.255 19.5501 -17.5
      vertex 28.8197 19.0211 -17.5
    endloop
  endfacet
  facet normal 0 0 -1
    outer loop
      vertex 26.8981 20.6322 -17.5
      vertex 26.6581 22.4133 -17.5
      vertex 26.8981 22.3678 -17.5
    endloop
  endfacet
  facet normal -0 0 -1
    outer loop
      vertex 28.255 19.5501 -17.5
      vertex 25 17.3205 -17.5
      vertex 26.8981 20.6322 -17.5
    endloop
  endfacet
  facet normal 0 0 -1
    outer loop
      vertex 23 20.7846 -17.5
      vertex 26.8981 20.6322 -17.5
      vertex 25 17.3205 -17.5
    endloop
  endfacet
  facet normal 0 0 -1
    outer loop
      vertex 26.8981 20.6322 -17.5
      vertex 23 20.7846 -17.5
      vertex 26.6581 22.4133 -17.5
    endloop
  endfacet
  facet normal 0 0 -1
    outer loop
      vertex 20 18.605 -17.5
      vertex 25 17.3205 -17.5
      vertex 21.6174 14.8629 -17.5
    endloop
  endfacet
  facet normal 0 0 -1
    outer loop
      vertex 20 18.605 -17.5
      vertex 21.6174 14.8629 -17.5
      vertex 20 13.0666 -17.5
    endloop
  endfacet
  facet normal 0 0 -1
    outer loop
      vertex 25 17.3205 -17.5
      vertex 20 18.605 -17.5
      vertex 23 20.7846 -17.5
    endloop
  endfacet
  facet normal 0 0 -1
    outer loop
      vertex 29.947 23.0637 -17.5
      vertex 30.7426 22.3358 -17.5
      vertex 30.7 21.5 -17.5
    endloop
  endfacet
  facet normal 0 0 -1
    outer loop
      vertex 26.6581 22.4133 -17.5
      vertex 28.255 23.4499 -17.5
      vertex 26.8981 22.3678 -17.5
    endloop
  endfacet
  facet normal 0 0 -1
    outer loop
      vertex 29.947 23.0637 -17.5
      vertex 25.427 28.2395 -17.5
      vertex 30.7426 22.3358 -17.5
    endloop
  endfacet
  facet normal 0 0 -1
    outer loop
      vertex 28.255 23.4499 -17.5
      vertex 25.427 28.2395 -17.5
      vertex 29.947 23.0637 -17.5
    endloop
  endfacet
  facet normal 0 0 -1
    outer loop
      vertex 23.4196 26.0101 -17.5
      vertex 28.255 23.4499 -17.5
      vertex 26.6581 22.4133 -17.5
    endloop
  endfacet
  facet normal 0 0 -1
    outer loop
      vertex 28.255 23.4499 -17.5
      vertex 23.4196 26.0101 -17.5
      vertex 25.427 28.2395 -17.5
    endloop
  endfacet
  facet normal 0 0 -1
    outer loop
      vertex 23.4196 26.0101 -17.5
      vertex 19 32.909 -17.5
      vertex 25.427 28.2395 -17.5
    endloop
  endfacet
  facet normal 0 0 -1
    outer loop
      vertex 17.5 30.3109 -17.5
      vertex 19 32.909 -17.5
      vertex 23.4196 26.0101 -17.5
    endloop
  endfacet
  facet normal -0 0 -1
    outer loop
      vertex 19 32.909 -17.5
      vertex 17.5 30.3109 -17.5
      vertex 17.5 33.5768 -17.5
    endloop
  endfacet
  facet normal 0 0 -1
    outer loop
      vertex 11.7426 -36.1401 -17.5
      vertex 5.10877 -34.5 -17.5
      vertex 15.4265 -34.5 -17.5
    endloop
  endfacet
  facet normal 0 0 -1
    outer loop
      vertex 3.97208 -37.7918 -17.5
      vertex 5.10877 -34.5 -17.5
      vertex 11.7426 -36.1401 -17.5
    endloop
  endfacet
  facet normal 0 0 -1
    outer loop
      vertex 3.97208 -37.7918 -17.5
      vertex 3.6585 -34.8083 -17.5
      vertex 5.10877 -34.5 -17.5
    endloop
  endfacet
  facet normal 0 0 -1
    outer loop
      vertex 3.97208 -37.7918 -17.5
      vertex -3.6585 -34.8083 -17.5
      vertex 3.6585 -34.8083 -17.5
    endloop
  endfacet
  facet normal 0 0 -1
    outer loop
      vertex -3.97208 -37.7918 -17.5
      vertex -3.6585 -34.8083 -17.5
      vertex 3.97208 -37.7918 -17.5
    endloop
  endfacet
  facet normal 0 0 -1
    outer loop
      vertex -3.97208 -37.7918 -17.5
      vertex -5.10877 -34.5 -17.5
      vertex -3.6585 -34.8083 -17.5
    endloop
  endfacet
  facet normal 0 0 -1
    outer loop
      vertex -11.7426 -36.1401 -17.5
      vertex -5.10877 -34.5 -17.5
      vertex -3.97208 -37.7918 -17.5
    endloop
  endfacet
  facet normal -0 0 -1
    outer loop
      vertex -5.10877 -34.5 -17.5
      vertex -11.7426 -36.1401 -17.5
      vertex -15.4265 -34.5 -17.5
    endloop
  endfacet
  facet normal -0 0 -1
    outer loop
      vertex 30.7426 -22.3358 -17.5
      vertex 29.947 -23.0637 -17.5
      vertex 30.7 -21.5 -17.5
    endloop
  endfacet
  facet normal -0 0 -1
    outer loop
      vertex 26.8981 -22.3678 -17.5
      vertex 26.6581 -22.4133 -17.5
      vertex 26.8981 -20.6322 -17.5
    endloop
  endfacet
  facet normal 0 0 -1
    outer loop
      vertex 28.255 -23.4499 -17.5
      vertex 26.6581 -22.4133 -17.5
      vertex 26.8981 -22.3678 -17.5
    endloop
  endfacet
  facet normal 0 0 -1
    outer loop
      vertex 25.427 -28.2395 -17.5
      vertex 29.947 -23.0637 -17.5
      vertex 30.7426 -22.3358 -17.5
    endloop
  endfacet
  facet normal 0 0 -1
    outer loop
      vertex 25.427 -28.2395 -17.5
      vertex 28.255 -23.4499 -17.5
      vertex 29.947 -23.0637 -17.5
    endloop
  endfacet
  facet normal 0 0 -1
    outer loop
      vertex 23.4196 -26.0101 -17.5
      vertex 28.255 -23.4499 -17.5
      vertex 25.427 -28.2395 -17.5
    endloop
  endfacet
  facet normal -0 0 -1
    outer loop
      vertex 28.255 -23.4499 -17.5
      vertex 23.4196 -26.0101 -17.5
      vertex 26.6581 -22.4133 -17.5
    endloop
  endfacet
  facet normal 0 0 -1
    outer loop
      vertex 19 -32.909 -17.5
      vertex 23.4196 -26.0101 -17.5
      vertex 25.427 -28.2395 -17.5
    endloop
  endfacet
  facet normal 0 0 -1
    outer loop
      vertex 17.5 -30.3109 -17.5
      vertex 19 -32.909 -17.5
      vertex 17.5 -33.5768 -17.5
    endloop
  endfacet
  facet normal 0 0 -1
    outer loop
      vertex 19 -32.909 -17.5
      vertex 17.5 -30.3109 -17.5
      vertex 23.4196 -26.0101 -17.5
    endloop
  endfacet
  facet normal 0 0 -1
    outer loop
      vertex 30.7 -21.5 -17.5
      vertex 32.237 -19.7475 -17.5
      vertex 30.7426 -22.3358 -17.5
    endloop
  endfacet
  facet normal 0 0 -1
    outer loop
      vertex 29.947 -19.9363 -17.5
      vertex 32.237 -19.7475 -17.5
      vertex 30.7 -21.5 -17.5
    endloop
  endfacet
  facet normal 0 0 -1
    outer loop
      vertex 29.947 -19.9363 -17.5
      vertex 28.8197 -19.0211 -17.5
      vertex 32.237 -19.7475 -17.5
    endloop
  endfacet
  facet normal 0 0 -1
    outer loop
      vertex 28.255 -19.5501 -17.5
      vertex 28.8197 -19.0211 -17.5
      vertex 29.947 -19.9363 -17.5
    endloop
  endfacet
  facet normal 0 0 -1
    outer loop
      vertex 25 -17.3205 -17.5
      vertex 28.255 -19.5501 -17.5
      vertex 26.8981 -20.6322 -17.5
    endloop
  endfacet
  facet normal 0 0 -1
    outer loop
      vertex 28.255 -19.5501 -17.5
      vertex 25 -17.3205 -17.5
      vertex 28.8197 -19.0211 -17.5
    endloop
  endfacet
  facet normal 0 0 -1
    outer loop
      vertex 23 -20.7846 -17.5
      vertex 26.8981 -20.6322 -17.5
      vertex 26.6581 -22.4133 -17.5
    endloop
  endfacet
  facet normal -0 0 -1
    outer loop
      vertex 26.8981 -20.6322 -17.5
      vertex 23 -20.7846 -17.5
      vertex 25 -17.3205 -17.5
    endloop
  endfacet
  facet normal 0 0 -1
    outer loop
      vertex 20 -18.605 -17.5
      vertex 25 -17.3205 -17.5
      vertex 23 -20.7846 -17.5
    endloop
  endfacet
  facet normal -0 0 -1
    outer loop
      vertex 25 -17.3205 -17.5
      vertex 20 -18.605 -17.5
      vertex 21.6174 -14.8629 -17.5
    endloop
  endfacet
  facet normal -0 0 -1
    outer loop
      vertex 21.6174 -14.8629 -17.5
      vertex 20 -18.605 -17.5
      vertex 20 -13.0666 -17.5
    endloop
  endfacet
  facet normal 0.866025 -0.5 0
    outer loop
      vertex 30.7426 -22.3358 12.5
      vertex 32.237 -19.7475 -17.5
      vertex 32.237 -19.7475 12.5
    endloop
  endfacet
  facet normal 0.866025 -0.5 0
    outer loop
      vertex 32.237 -19.7475 -17.5
      vertex 30.7426 -22.3358 12.5
      vertex 30.7426 -22.3358 -17.5
    endloop
  endfacet
  facet normal -0.866025 -0.5 0
    outer loop
      vertex -30.7426 -22.3358 -17.5
      vertex -34.7147 -15.456 12.5
      vertex -34.7147 -15.456 -17.5
    endloop
  endfacet
  facet normal -0.866025 -0.5 0
    outer loop
      vertex -34.7147 -15.456 12.5
      vertex -30.7426 -22.3358 -17.5
      vertex -30.7426 -22.3358 12.5
    endloop
  endfacet
  facet normal -0.743145 -0.669131 0
    outer loop
      vertex -25.427 -28.2395 -17.5
      vertex -30.7426 -22.3358 12.5
      vertex -30.7426 -22.3358 -17.5
    endloop
  endfacet
  facet normal -0.743145 -0.669131 0
    outer loop
      vertex -30.7426 -22.3358 12.5
      vertex -25.427 -28.2395 -17.5
      vertex -25.427 -28.2395 12.5
    endloop
  endfacet
  facet normal 0.587785 -0.809017 0
    outer loop
      vertex 19 -32.909 -17.5
      vertex 25.427 -28.2395 12.5
      vertex 19 -32.909 12.5
    endloop
  endfacet
  facet normal 0.587785 -0.809017 0
    outer loop
      vertex 25.427 -28.2395 12.5
      vertex 19 -32.909 -17.5
      vertex 25.427 -28.2395 -17.5
    endloop
  endfacet
  facet normal -0.207912 -0.978148 0
    outer loop
      vertex -11.7426 -36.1401 -17.5
      vertex -3.97208 -37.7918 12.5
      vertex -11.7426 -36.1401 12.5
    endloop
  endfacet
  facet normal -0.207912 -0.978148 -0
    outer loop
      vertex -3.97208 -37.7918 12.5
      vertex -11.7426 -36.1401 -17.5
      vertex -3.97208 -37.7918 -17.5
    endloop
  endfacet
  facet normal -0.951056 -0.309017 0
    outer loop
      vertex -34.7147 -15.456 -17.5
      vertex -37.1696 -7.90064 12.5
      vertex -37.1696 -7.90064 -17.5
    endloop
  endfacet
  facet normal -0.951056 -0.309017 0
    outer loop
      vertex -37.1696 -7.90064 12.5
      vertex -34.7147 -15.456 -17.5
      vertex -34.7147 -15.456 12.5
    endloop
  endfacet
  facet normal -0.994522 -0.104528 0
    outer loop
      vertex -37.1696 -7.90064 -17.5
      vertex -38 0 12.5
      vertex -38 0 -17.5
    endloop
  endfacet
  facet normal -0.994522 -0.104528 0
    outer loop
      vertex -38 0 12.5
      vertex -37.1696 -7.90064 -17.5
      vertex -37.1696 -7.90064 12.5
    endloop
  endfacet
  facet normal 0.406737 -0.913545 -3.34033e-08
    outer loop
      vertex 11.7426 -36.1401 12.5
      vertex 15.4265 -34.5 -16
      vertex 19 -32.909 12.5
    endloop
  endfacet
  facet normal 0.406737 -0.913545 0
    outer loop
      vertex 11.7426 -36.1401 -17.5
      vertex 15.4265 -34.5 -16
      vertex 11.7426 -36.1401 12.5
    endloop
  endfacet
  facet normal 0.406737 -0.913545 0
    outer loop
      vertex 15.4265 -34.5 -16
      vertex 11.7426 -36.1401 -17.5
      vertex 15.4265 -34.5 -17.5
    endloop
  endfacet
  facet normal 0.406736 -0.913546 1.98389e-08
    outer loop
      vertex 17.5 -33.5768 -16
      vertex 19 -32.909 12.5
      vertex 15.4265 -34.5 -16
    endloop
  endfacet
  facet normal 0.406737 -0.913545 0
    outer loop
      vertex 19 -32.909 -17.5
      vertex 17.5 -33.5768 -16
      vertex 17.5 -33.5768 -17.5
    endloop
  endfacet
  facet normal 0.406737 -0.913545 0
    outer loop
      vertex 17.5 -33.5768 -16
      vertex 19 -32.909 -17.5
      vertex 19 -32.909 12.5
    endloop
  endfacet
  facet normal 0.207912 -0.978148 0
    outer loop
      vertex 3.97208 -37.7918 -17.5
      vertex 11.7426 -36.1401 12.5
      vertex 3.97208 -37.7918 12.5
    endloop
  endfacet
  facet normal 0.207912 -0.978148 0
    outer loop
      vertex 11.7426 -36.1401 12.5
      vertex 3.97208 -37.7918 -17.5
      vertex 11.7426 -36.1401 -17.5
    endloop
  endfacet
  facet normal 0.743145 -0.669131 0
    outer loop
      vertex 25.427 -28.2395 12.5
      vertex 30.7426 -22.3358 -17.5
      vertex 30.7426 -22.3358 12.5
    endloop
  endfacet
  facet normal 0.743145 -0.669131 0
    outer loop
      vertex 30.7426 -22.3358 -17.5
      vertex 25.427 -28.2395 12.5
      vertex 25.427 -28.2395 -17.5
    endloop
  endfacet
  facet normal -0.406736 -0.913546 1.98389e-08
    outer loop
      vertex -15.4265 -34.5 -16
      vertex -19 -32.909 12.5
      vertex -17.5 -33.5768 -16
    endloop
  endfacet
  facet normal -0.406737 -0.913545 0
    outer loop
      vertex -19 -32.909 -17.5
      vertex -17.5 -33.5768 -16
      vertex -19 -32.909 12.5
    endloop
  endfacet
  facet normal -0.406737 -0.913545 -0
    outer loop
      vertex -17.5 -33.5768 -16
      vertex -19 -32.909 -17.5
      vertex -17.5 -33.5768 -17.5
    endloop
  endfacet
  facet normal -0.406737 -0.913545 -3.34033e-08
    outer loop
      vertex -19 -32.909 12.5
      vertex -15.4265 -34.5 -16
      vertex -11.7426 -36.1401 12.5
    endloop
  endfacet
  facet normal -0.406737 -0.913545 0
    outer loop
      vertex -11.7426 -36.1401 -17.5
      vertex -15.4265 -34.5 -16
      vertex -15.4265 -34.5 -17.5
    endloop
  endfacet
  facet normal -0.406737 -0.913545 0
    outer loop
      vertex -15.4265 -34.5 -16
      vertex -11.7426 -36.1401 -17.5
      vertex -11.7426 -36.1401 12.5
    endloop
  endfacet
  facet normal -0.587785 -0.809017 0
    outer loop
      vertex -25.427 -28.2395 -17.5
      vertex -19 -32.909 12.5
      vertex -25.427 -28.2395 12.5
    endloop
  endfacet
  facet normal -0.587785 -0.809017 -0
    outer loop
      vertex -19 -32.909 12.5
      vertex -25.427 -28.2395 -17.5
      vertex -19 -32.909 -17.5
    endloop
  endfacet
  facet normal 0.207912 -0.978148 0
    outer loop
      vertex 28.8197 19.0211 -17.5
      vertex 32.237 19.7475 12.5
      vertex 28.8197 19.0211 12.5
    endloop
  endfacet
  facet normal 0.207912 -0.978148 0
    outer loop
      vertex 32.237 19.7475 12.5
      vertex 28.8197 19.0211 -17.5
      vertex 32.237 19.7475 -17.5
    endloop
  endfacet
  facet normal 0.743145 -0.669131 0
    outer loop
      vertex 21.6174 14.8629 12.5
      vertex 20 13.0666 -7.5
      vertex 21.6174 14.8629 -17.5
    endloop
  endfacet
  facet normal 0.743145 -0.669131 -1.99751e-08
    outer loop
      vertex 18.8197 11.7557 12.5
      vertex 20 13.0666 -7.5
      vertex 21.6174 14.8629 12.5
    endloop
  endfacet
  facet normal 0.743145 -0.66913 0
    outer loop
      vertex 20 13.0666 -7.5
      vertex 18.8197 11.7557 12.5
      vertex 18.8197 11.7557 -7.5
    endloop
  endfacet
  facet normal 0.743145 -0.669131 0
    outer loop
      vertex 21.6174 14.8629 -17.5
      vertex 20 13.0666 -7.5
      vertex 20 13.0666 -17.5
    endloop
  endfacet
  facet normal 0.406737 -0.913545 0
    outer loop
      vertex 25 17.3205 -17.5
      vertex 28.8197 19.0211 12.5
      vertex 25 17.3205 12.5
    endloop
  endfacet
  facet normal 0.406737 -0.913545 0
    outer loop
      vertex 28.8197 19.0211 12.5
      vertex 25 17.3205 -17.5
      vertex 28.8197 19.0211 -17.5
    endloop
  endfacet
  facet normal 0.951056 -0.309017 0
    outer loop
      vertex 15.437 4.15823 12.5
      vertex 16.7291 8.13473 -7.5
      vertex 16.7291 8.13473 12.5
    endloop
  endfacet
  facet normal 0.951056 -0.309017 0
    outer loop
      vertex 16.7291 8.13473 -7.5
      vertex 15.437 4.15823 12.5
      vertex 15.437 4.15823 -7.5
    endloop
  endfacet
  facet normal 0.866026 -0.5 0
    outer loop
      vertex 16.7291 8.13473 12.5
      vertex 18.8197 11.7557 -7.5
      vertex 18.8197 11.7557 12.5
    endloop
  endfacet
  facet normal 0.866026 -0.5 0
    outer loop
      vertex 18.8197 11.7557 -7.5
      vertex 16.7291 8.13473 12.5
      vertex 16.7291 8.13473 -7.5
    endloop
  endfacet
  facet normal 0.994522 -0.104528 0
    outer loop
      vertex 15 0 12.5
      vertex 15.437 4.15823 -7.5
      vertex 15.437 4.15823 12.5
    endloop
  endfacet
  facet normal 0.994522 -0.104528 0
    outer loop
      vertex 15.437 4.15823 -7.5
      vertex 15 0 12.5
      vertex 15 0 -7.5
    endloop
  endfacet
  facet normal 0.587785 -0.809017 0
    outer loop
      vertex 21.6174 14.8629 -17.5
      vertex 25 17.3205 12.5
      vertex 21.6174 14.8629 12.5
    endloop
  endfacet
  facet normal 0.587785 -0.809017 0
    outer loop
      vertex 25 17.3205 12.5
      vertex 21.6174 14.8629 -17.5
      vertex 25 17.3205 -17.5
    endloop
  endfacet
  facet normal 0.994522 0.104528 0
    outer loop
      vertex 15.437 -4.15823 12.5
      vertex 15 0 -7.5
      vertex 15 0 12.5
    endloop
  endfacet
  facet normal 0.994522 0.104528 0
    outer loop
      vertex 15 0 -7.5
      vertex 15.437 -4.15823 12.5
      vertex 15.437 -4.15823 -7.5
    endloop
  endfacet
  facet normal 0.406737 0.913545 -0
    outer loop
      vertex 28.8197 -19.0211 -17.5
      vertex 25 -17.3205 12.5
      vertex 28.8197 -19.0211 12.5
    endloop
  endfacet
  facet normal 0.406737 0.913545 0
    outer loop
      vertex 25 -17.3205 12.5
      vertex 28.8197 -19.0211 -17.5
      vertex 25 -17.3205 -17.5
    endloop
  endfacet
  facet normal 0.743145 0.66913 0
    outer loop
      vertex 18.8197 -11.7557 12.5
      vertex 20 -13.0666 -7.5
      vertex 18.8197 -11.7557 -7.5
    endloop
  endfacet
  facet normal 0.743145 0.669131 -1.99751e-08
    outer loop
      vertex 21.6174 -14.8629 12.5
      vertex 20 -13.0666 -7.5
      vertex 18.8197 -11.7557 12.5
    endloop
  endfacet
  facet normal 0.743145 0.669131 -0
    outer loop
      vertex 21.6174 -14.8629 -17.5
      vertex 20 -13.0666 -7.5
      vertex 21.6174 -14.8629 12.5
    endloop
  endfacet
  facet normal 0.743145 0.669131 0
    outer loop
      vertex 20 -13.0666 -7.5
      vertex 21.6174 -14.8629 -17.5
      vertex 20 -13.0666 -17.5
    endloop
  endfacet
  facet normal 0.587785 0.809017 -0
    outer loop
      vertex 25 -17.3205 -17.5
      vertex 21.6174 -14.8629 12.5
      vertex 25 -17.3205 12.5
    endloop
  endfacet
  facet normal 0.587785 0.809017 0
    outer loop
      vertex 21.6174 -14.8629 12.5
      vertex 25 -17.3205 -17.5
      vertex 21.6174 -14.8629 -17.5
    endloop
  endfacet
  facet normal 0.866026 0.5 0
    outer loop
      vertex 18.8197 -11.7557 12.5
      vertex 16.7291 -8.13473 -7.5
      vertex 16.7291 -8.13473 12.5
    endloop
  endfacet
  facet normal 0.866026 0.5 0
    outer loop
      vertex 16.7291 -8.13473 -7.5
      vertex 18.8197 -11.7557 12.5
      vertex 18.8197 -11.7557 -7.5
    endloop
  endfacet
  facet normal 0.951056 0.309017 0
    outer loop
      vertex 16.7291 -8.13473 12.5
      vertex 15.437 -4.15823 -7.5
      vertex 15.437 -4.15823 12.5
    endloop
  endfacet
  facet normal 0.951056 0.309017 0
    outer loop
      vertex 15.437 -4.15823 -7.5
      vertex 16.7291 -8.13473 12.5
      vertex 16.7291 -8.13473 -7.5
    endloop
  endfacet
  facet normal 0.207912 0.978148 -0
    outer loop
      vertex 32.237 -19.7475 -17.5
      vertex 28.8197 -19.0211 12.5
      vertex 32.237 -19.7475 12.5
    endloop
  endfacet
  facet normal 0.207912 0.978148 0
    outer loop
      vertex 28.8197 -19.0211 12.5
      vertex 32.237 -19.7475 -17.5
      vertex 28.8197 -19.0211 -17.5
    endloop
  endfacet
  facet normal 0.994522 -0.104529 0
    outer loop
      vertex -34.2352 7.27691 12.5
      vertex -34.4745 5 -2.5
      vertex -34.2352 7.27691 -17.5
    endloop
  endfacet
  facet normal 0.994522 -0.104529 -1.2094e-07
    outer loop
      vertex -35 0 12.5
      vertex -34.4745 5 -2.5
      vertex -34.2352 7.27691 12.5
    endloop
  endfacet
  facet normal 0.994522 -0.104528 0
    outer loop
      vertex -34.4745 5 -2.5
      vertex -35 0 12.5
      vertex -35 0 -2.5
    endloop
  endfacet
  facet normal 0.994522 -0.104529 0
    outer loop
      vertex -34.2352 7.27691 -17.5
      vertex -34.4745 5 -2.5
      vertex -34.4745 5 -17.5
    endloop
  endfacet
  facet normal 0 -1 0
    outer loop
      vertex -3.6585 34.8083 -17.5
      vertex 3.6585 34.8083 12.5
      vertex -3.6585 34.8083 12.5
    endloop
  endfacet
  facet normal 0 -1 -0
    outer loop
      vertex 3.6585 34.8083 12.5
      vertex -3.6585 34.8083 -17.5
      vertex 3.6585 34.8083 -17.5
    endloop
  endfacet
  facet normal 0 1 -0
    outer loop
      vertex 3.6585 -34.8083 -17.5
      vertex -3.6585 -34.8083 12.5
      vertex 3.6585 -34.8083 12.5
    endloop
  endfacet
  facet normal 0 1 0
    outer loop
      vertex -3.6585 -34.8083 12.5
      vertex 3.6585 -34.8083 -17.5
      vertex -3.6585 -34.8083 -17.5
    endloop
  endfacet
  facet normal -0.587785 -0.809017 0
    outer loop
      vertex 17.5 30.3109 -16
      vertex 23.4196 26.0101 12.5
      vertex 17.5 30.3109 12.5
    endloop
  endfacet
  facet normal -0.587785 -0.809017 0
    outer loop
      vertex 23.4196 26.0101 -17.5
      vertex 17.5 30.3109 -16
      vertex 17.5 30.3109 -17.5
    endloop
  endfacet
  facet normal -0.587785 -0.809017 0
    outer loop
      vertex 17.5 30.3109 -16
      vertex 23.4196 26.0101 -17.5
      vertex 23.4196 26.0101 12.5
    endloop
  endfacet
  facet normal -0.406737 -0.913545 0
    outer loop
      vertex 10.8156 33.287 -16
      vertex 17.5 30.3109 12.5
      vertex 10.8156 33.287 12.5
    endloop
  endfacet
  facet normal -0.406737 -0.913545 -0
    outer loop
      vertex 17.5 30.3109 12.5
      vertex 10.8156 33.287 -16
      vertex 17.5 30.3109 -16
    endloop
  endfacet
  facet normal 0.743145 -0.669131 0
    outer loop
      vertex -28.3156 20.5725 12.5
      vertex -23.4196 26.0101 -17.5
      vertex -23.4196 26.0101 12.5
    endloop
  endfacet
  facet normal 0.743145 -0.669131 0
    outer loop
      vertex -23.4196 26.0101 -17.5
      vertex -28.3156 20.5725 12.5
      vertex -28.3156 20.5725 -17.5
    endloop
  endfacet
  facet normal 0.406737 -0.913545 0
    outer loop
      vertex -17.5 30.3109 -16
      vertex -10.8156 33.287 12.5
      vertex -17.5 30.3109 12.5
    endloop
  endfacet
  facet normal 0.406737 -0.913545 0
    outer loop
      vertex -10.8156 33.287 12.5
      vertex -17.5 30.3109 -16
      vertex -10.8156 33.287 -16
    endloop
  endfacet
  facet normal -0.743145 -0.669131 0
    outer loop
      vertex 26.6581 22.4133 -17.5
      vertex 23.4196 26.0101 12.5
      vertex 23.4196 26.0101 -17.5
    endloop
  endfacet
  facet normal -0.743145 -0.669131 0
    outer loop
      vertex 23.4196 26.0101 12.5
      vertex 26.6581 22.4133 -17.5
      vertex 26.6581 22.4133 12.5
    endloop
  endfacet
  facet normal -0.207911 -0.978148 1.34351e-08
    outer loop
      vertex 3.6585 34.8083 12.5
      vertex 5.10877 34.5 -16
      vertex 10.8156 33.287 12.5
    endloop
  endfacet
  facet normal -0.207912 -0.978148 0
    outer loop
      vertex 3.6585 34.8083 -17.5
      vertex 5.10877 34.5 -16
      vertex 3.6585 34.8083 12.5
    endloop
  endfacet
  facet normal -0.207912 -0.978148 -0
    outer loop
      vertex 5.10877 34.5 -16
      vertex 3.6585 34.8083 -17.5
      vertex 5.10877 34.5 -17.5
    endloop
  endfacet
  facet normal -0.207911 -0.978148 -0
    outer loop
      vertex 10.8156 33.287 12.5
      vertex 5.10877 34.5 -16
      vertex 10.8156 33.287 -16
    endloop
  endfacet
  facet normal 0.866025 -0.5 0
    outer loop
      vertex -31.9741 14.2358 12.5
      vertex -28.3156 20.5725 -17.5
      vertex -28.3156 20.5725 12.5
    endloop
  endfacet
  facet normal 0.866025 -0.5 0
    outer loop
      vertex -28.3156 20.5725 -17.5
      vertex -31.9741 14.2358 12.5
      vertex -31.9741 14.2358 -17.5
    endloop
  endfacet
  facet normal 0.951057 -0.309017 0
    outer loop
      vertex -34.2352 7.27691 12.5
      vertex -31.9741 14.2358 -17.5
      vertex -31.9741 14.2358 12.5
    endloop
  endfacet
  facet normal 0.951057 -0.309017 0
    outer loop
      vertex -31.9741 14.2358 -17.5
      vertex -34.2352 7.27691 12.5
      vertex -34.2352 7.27691 -17.5
    endloop
  endfacet
  facet normal 0.587785 -0.809017 0
    outer loop
      vertex -23.4196 26.0101 12.5
      vertex -17.5 30.3109 -16
      vertex -17.5 30.3109 12.5
    endloop
  endfacet
  facet normal 0.587785 -0.809017 0
    outer loop
      vertex -23.4196 26.0101 -17.5
      vertex -17.5 30.3109 -16
      vertex -23.4196 26.0101 12.5
    endloop
  endfacet
  facet normal 0.587785 -0.809017 0
    outer loop
      vertex -17.5 30.3109 -16
      vertex -23.4196 26.0101 -17.5
      vertex -17.5 30.3109 -17.5
    endloop
  endfacet
  facet normal 0.207911 -0.978148 0
    outer loop
      vertex -5.10877 34.5 -16
      vertex -10.8156 33.287 12.5
      vertex -10.8156 33.287 -16
    endloop
  endfacet
  facet normal 0.207911 -0.978148 1.34351e-08
    outer loop
      vertex -10.8156 33.287 12.5
      vertex -5.10877 34.5 -16
      vertex -3.6585 34.8083 12.5
    endloop
  endfacet
  facet normal 0.207912 -0.978148 0
    outer loop
      vertex -3.6585 34.8083 -17.5
      vertex -5.10877 34.5 -16
      vertex -5.10877 34.5 -17.5
    endloop
  endfacet
  facet normal 0.207912 -0.978148 0
    outer loop
      vertex -5.10877 34.5 -16
      vertex -3.6585 34.8083 -17.5
      vertex -3.6585 34.8083 12.5
    endloop
  endfacet
  facet normal -0.207911 0.978148 0
    outer loop
      vertex 5.10877 -34.5 -16
      vertex 10.8156 -33.287 12.5
      vertex 10.8156 -33.287 -16
    endloop
  endfacet
  facet normal -0.207911 0.978148 1.34351e-08
    outer loop
      vertex 10.8156 -33.287 12.5
      vertex 5.10877 -34.5 -16
      vertex 3.6585 -34.8083 12.5
    endloop
  endfacet
  facet normal -0.207912 0.978148 0
    outer loop
      vertex 3.6585 -34.8083 -17.5
      vertex 5.10877 -34.5 -16
      vertex 5.10877 -34.5 -17.5
    endloop
  endfacet
  facet normal -0.207912 0.978148 0
    outer loop
      vertex 5.10877 -34.5 -16
      vertex 3.6585 -34.8083 -17.5
      vertex 3.6585 -34.8083 12.5
    endloop
  endfacet
  facet normal -0.587785 0.809017 0
    outer loop
      vertex 23.4196 -26.0101 12.5
      vertex 17.5 -30.3109 -16
      vertex 17.5 -30.3109 12.5
    endloop
  endfacet
  facet normal -0.587785 0.809017 0
    outer loop
      vertex 23.4196 -26.0101 -17.5
      vertex 17.5 -30.3109 -16
      vertex 23.4196 -26.0101 12.5
    endloop
  endfacet
  facet normal -0.587785 0.809017 0
    outer loop
      vertex 17.5 -30.3109 -16
      vertex 23.4196 -26.0101 -17.5
      vertex 17.5 -30.3109 -17.5
    endloop
  endfacet
  facet normal -0.406737 0.913545 0
    outer loop
      vertex 17.5 -30.3109 -16
      vertex 10.8156 -33.287 12.5
      vertex 17.5 -30.3109 12.5
    endloop
  endfacet
  facet normal -0.406737 0.913545 0
    outer loop
      vertex 10.8156 -33.287 12.5
      vertex 17.5 -30.3109 -16
      vertex 10.8156 -33.287 -16
    endloop
  endfacet
  facet normal 0.207911 0.978148 1.34351e-08
    outer loop
      vertex -3.6585 -34.8083 12.5
      vertex -5.10877 -34.5 -16
      vertex -10.8156 -33.287 12.5
    endloop
  endfacet
  facet normal 0.207912 0.978148 -0
    outer loop
      vertex -3.6585 -34.8083 -17.5
      vertex -5.10877 -34.5 -16
      vertex -3.6585 -34.8083 12.5
    endloop
  endfacet
  facet normal 0.207912 0.978148 0
    outer loop
      vertex -5.10877 -34.5 -16
      vertex -3.6585 -34.8083 -17.5
      vertex -5.10877 -34.5 -17.5
    endloop
  endfacet
  facet normal 0.207911 0.978148 0
    outer loop
      vertex -10.8156 -33.287 12.5
      vertex -5.10877 -34.5 -16
      vertex -10.8156 -33.287 -16
    endloop
  endfacet
  facet normal 0.743145 0.669131 0
    outer loop
      vertex -23.4196 -26.0101 12.5
      vertex -28.3156 -20.5725 -17.5
      vertex -28.3156 -20.5725 12.5
    endloop
  endfacet
  facet normal 0.743145 0.669131 0
    outer loop
      vertex -28.3156 -20.5725 -17.5
      vertex -23.4196 -26.0101 12.5
      vertex -23.4196 -26.0101 -17.5
    endloop
  endfacet
  facet normal 0.866025 0.5 0
    outer loop
      vertex -28.3156 -20.5725 12.5
      vertex -31.9741 -14.2358 -17.5
      vertex -31.9741 -14.2358 12.5
    endloop
  endfacet
  facet normal 0.866025 0.5 0
    outer loop
      vertex -31.9741 -14.2358 -17.5
      vertex -28.3156 -20.5725 12.5
      vertex -28.3156 -20.5725 -17.5
    endloop
  endfacet
  facet normal 0.951057 0.309017 0
    outer loop
      vertex -31.9741 -14.2358 12.5
      vertex -34.2352 -7.27691 -17.5
      vertex -34.2352 -7.27691 12.5
    endloop
  endfacet
  facet normal 0.951057 0.309017 0
    outer loop
      vertex -34.2352 -7.27691 -17.5
      vertex -31.9741 -14.2358 12.5
      vertex -31.9741 -14.2358 -17.5
    endloop
  endfacet
  facet normal 0.994522 0.104528 0
    outer loop
      vertex -35 0 12.5
      vertex -34.4745 -5 -2.5
      vertex -35 0 -2.5
    endloop
  endfacet
  facet normal 0.994522 0.104529 -1.2094e-07
    outer loop
      vertex -34.2352 -7.27691 12.5
      vertex -34.4745 -5 -2.5
      vertex -35 0 12.5
    endloop
  endfacet
  facet normal 0.994522 0.104529 -0
    outer loop
      vertex -34.2352 -7.27691 -17.5
      vertex -34.4745 -5 -2.5
      vertex -34.2352 -7.27691 12.5
    endloop
  endfacet
  facet normal 0.994522 0.104529 0
    outer loop
      vertex -34.4745 -5 -2.5
      vertex -34.2352 -7.27691 -17.5
      vertex -34.4745 -5 -17.5
    endloop
  endfacet
  facet normal -0.743145 0.669131 0
    outer loop
      vertex 23.4196 -26.0101 -17.5
      vertex 26.6581 -22.4133 12.5
      vertex 26.6581 -22.4133 -17.5
    endloop
  endfacet
  facet normal -0.743145 0.669131 0
    outer loop
      vertex 26.6581 -22.4133 12.5
      vertex 23.4196 -26.0101 -17.5
      vertex 23.4196 -26.0101 12.5
    endloop
  endfacet
  facet normal 0.406737 0.913545 -0
    outer loop
      vertex -10.8156 -33.287 -16
      vertex -17.5 -30.3109 12.5
      vertex -10.8156 -33.287 12.5
    endloop
  endfacet
  facet normal 0.406737 0.913545 0
    outer loop
      vertex -17.5 -30.3109 12.5
      vertex -10.8156 -33.287 -16
      vertex -17.5 -30.3109 -16
    endloop
  endfacet
  facet normal 0.587785 0.809017 -0
    outer loop
      vertex -17.5 -30.3109 -16
      vertex -23.4196 -26.0101 12.5
      vertex -17.5 -30.3109 12.5
    endloop
  endfacet
  facet normal 0.587785 0.809017 0
    outer loop
      vertex -23.4196 -26.0101 -17.5
      vertex -17.5 -30.3109 -16
      vertex -17.5 -30.3109 -17.5
    endloop
  endfacet
  facet normal 0.587785 0.809017 0
    outer loop
      vertex -17.5 -30.3109 -16
      vertex -23.4196 -26.0101 -17.5
      vertex -23.4196 -26.0101 12.5
    endloop
  endfacet
  facet normal -0.743145 0.669131 0
    outer loop
      vertex 15.5836 14.1068 -7.5
      vertex 18.9409 17.8355 12.5
      vertex 18.9409 17.8355 -7.5
    endloop
  endfacet
  facet normal -0.743145 0.669131 0
    outer loop
      vertex 18.9409 17.8355 12.5
      vertex 15.5836 14.1068 -7.5
      vertex 15.5836 14.1068 12.5
    endloop
  endfacet
  facet normal -0.587785 0.809017 -2.64044e-09
    outer loop
      vertex 23 20.7846 12.5
      vertex 20 18.605 -7.5
      vertex 18.9409 17.8355 12.5
    endloop
  endfacet
  facet normal -0.587785 0.809017 0
    outer loop
      vertex 23 20.7846 -17.5
      vertex 20 18.605 -7.5
      vertex 23 20.7846 12.5
    endloop
  endfacet
  facet normal -0.587785 0.809017 0
    outer loop
      vertex 20 18.605 -7.5
      vertex 23 20.7846 -17.5
      vertex 20 18.605 -17.5
    endloop
  endfacet
  facet normal -0.587785 0.809017 0
    outer loop
      vertex 18.9409 17.8355 12.5
      vertex 20 18.605 -7.5
      vertex 18.9409 17.8355 -7.5
    endloop
  endfacet
  facet normal -0.951057 0.309017 0
    outer loop
      vertex 11.5245 4.98988 -7.5
      vertex 13.0749 9.76168 12.5
      vertex 13.0749 9.76168 -7.5
    endloop
  endfacet
  facet normal -0.951057 0.309017 0
    outer loop
      vertex 13.0749 9.76168 12.5
      vertex 11.5245 4.98988 -7.5
      vertex 11.5245 4.98988 12.5
    endloop
  endfacet
  facet normal -0.866025 0.5 0
    outer loop
      vertex 13.0749 9.76168 -7.5
      vertex 15.5836 14.1068 12.5
      vertex 15.5836 14.1068 -7.5
    endloop
  endfacet
  facet normal -0.866025 0.5 0
    outer loop
      vertex 15.5836 14.1068 12.5
      vertex 13.0749 9.76168 -7.5
      vertex 13.0749 9.76168 12.5
    endloop
  endfacet
  facet normal -0.994522 0.104528 0
    outer loop
      vertex 11 0 -7.5
      vertex 11.5245 4.98988 12.5
      vertex 11.5245 4.98988 -7.5
    endloop
  endfacet
  facet normal -0.994522 0.104528 0
    outer loop
      vertex 11.5245 4.98988 12.5
      vertex 11 0 -7.5
      vertex 11 0 12.5
    endloop
  endfacet
  facet normal -0.406737 0.913545 0
    outer loop
      vertex 26.6581 22.4133 -17.5
      vertex 23 20.7846 12.5
      vertex 26.6581 22.4133 12.5
    endloop
  endfacet
  facet normal -0.406737 0.913545 0
    outer loop
      vertex 23 20.7846 12.5
      vertex 26.6581 22.4133 -17.5
      vertex 23 20.7846 -17.5
    endloop
  endfacet
  facet normal -0.994522 -0.104528 0
    outer loop
      vertex 11.5245 -4.98988 -7.5
      vertex 11 0 12.5
      vertex 11 0 -7.5
    endloop
  endfacet
  facet normal -0.994522 -0.104528 0
    outer loop
      vertex 11 0 12.5
      vertex 11.5245 -4.98988 -7.5
      vertex 11.5245 -4.98988 12.5
    endloop
  endfacet
  facet normal -0.743145 -0.669131 0
    outer loop
      vertex 18.9409 -17.8355 -7.5
      vertex 15.5836 -14.1068 12.5
      vertex 15.5836 -14.1068 -7.5
    endloop
  endfacet
  facet normal -0.743145 -0.669131 0
    outer loop
      vertex 15.5836 -14.1068 12.5
      vertex 18.9409 -17.8355 -7.5
      vertex 18.9409 -17.8355 12.5
    endloop
  endfacet
  facet normal -0.587785 -0.809017 0
    outer loop
      vertex 20 -18.605 -7.5
      vertex 18.9409 -17.8355 12.5
      vertex 18.9409 -17.8355 -7.5
    endloop
  endfacet
  facet normal -0.587785 -0.809017 -2.64044e-09
    outer loop
      vertex 18.9409 -17.8355 12.5
      vertex 20 -18.605 -7.5
      vertex 23 -20.7846 12.5
    endloop
  endfacet
  facet normal -0.587785 -0.809017 0
    outer loop
      vertex 23 -20.7846 -17.5
      vertex 20 -18.605 -7.5
      vertex 20 -18.605 -17.5
    endloop
  endfacet
  facet normal -0.587785 -0.809017 0
    outer loop
      vertex 20 -18.605 -7.5
      vertex 23 -20.7846 -17.5
      vertex 23 -20.7846 12.5
    endloop
  endfacet
  facet normal -0.866025 -0.5 0
    outer loop
      vertex 15.5836 -14.1068 -7.5
      vertex 13.0749 -9.76168 12.5
      vertex 13.0749 -9.76168 -7.5
    endloop
  endfacet
  facet normal -0.866025 -0.5 0
    outer loop
      vertex 13.0749 -9.76168 12.5
      vertex 15.5836 -14.1068 -7.5
      vertex 15.5836 -14.1068 12.5
    endloop
  endfacet
  facet normal -0.951057 -0.309017 0
    outer loop
      vertex 13.0749 -9.76168 -7.5
      vertex 11.5245 -4.98988 12.5
      vertex 11.5245 -4.98988 -7.5
    endloop
  endfacet
  facet normal -0.951057 -0.309017 0
    outer loop
      vertex 11.5245 -4.98988 12.5
      vertex 13.0749 -9.76168 -7.5
      vertex 13.0749 -9.76168 12.5
    endloop
  endfacet
  facet normal -0.406737 -0.913545 0
    outer loop
      vertex 23 -20.7846 -17.5
      vertex 26.6581 -22.4133 12.5
      vertex 23 -20.7846 12.5
    endloop
  endfacet
  facet normal -0.406737 -0.913545 -0
    outer loop
      vertex 26.6581 -22.4133 12.5
      vertex 23 -20.7846 -17.5
      vertex 26.6581 -22.4133 -17.5
    endloop
  endfacet
  facet normal 0 0 -1
    outer loop
      vertex 18.9409 -17.8355 -7.5
      vertex 20 -13.0666 -7.5
      vertex 20 -18.605 -7.5
    endloop
  endfacet
  facet normal 0 0 -1
    outer loop
      vertex 15.5836 -14.1068 -7.5
      vertex 20 -13.0666 -7.5
      vertex 18.9409 -17.8355 -7.5
    endloop
  endfacet
  facet normal -0 0 -1
    outer loop
      vertex 20 -13.0666 -7.5
      vertex 15.5836 -14.1068 -7.5
      vertex 18.8197 -11.7557 -7.5
    endloop
  endfacet
  facet normal -0 0 -1
    outer loop
      vertex 18.8197 -11.7557 -7.5
      vertex 15.5836 -14.1068 -7.5
      vertex 16.7291 -8.13473 -7.5
    endloop
  endfacet
  facet normal 0 0 -1
    outer loop
      vertex 13.0749 -9.76168 -7.5
      vertex 16.7291 -8.13473 -7.5
      vertex 15.5836 -14.1068 -7.5
    endloop
  endfacet
  facet normal -0 0 -1
    outer loop
      vertex 16.7291 -8.13473 -7.5
      vertex 13.0749 -9.76168 -7.5
      vertex 15.437 -4.15823 -7.5
    endloop
  endfacet
  facet normal 0 0 -1
    outer loop
      vertex 11.5245 -4.98988 -7.5
      vertex 15.437 -4.15823 -7.5
      vertex 13.0749 -9.76168 -7.5
    endloop
  endfacet
  facet normal 0 0 -1
    outer loop
      vertex 20 13.0666 -7.5
      vertex 18.9409 17.8355 -7.5
      vertex 20 18.605 -7.5
    endloop
  endfacet
  facet normal 0 0 -1
    outer loop
      vertex 15.5836 14.1068 -7.5
      vertex 20 13.0666 -7.5
      vertex 18.8197 11.7557 -7.5
    endloop
  endfacet
  facet normal 0 0 -1
    outer loop
      vertex 15.5836 14.1068 -7.5
      vertex 18.8197 11.7557 -7.5
      vertex 16.7291 8.13473 -7.5
    endloop
  endfacet
  facet normal 0 0 -1
    outer loop
      vertex 20 13.0666 -7.5
      vertex 15.5836 14.1068 -7.5
      vertex 18.9409 17.8355 -7.5
    endloop
  endfacet
  facet normal 0 0 -1
    outer loop
      vertex 13.0749 9.76168 -7.5
      vertex 16.7291 8.13473 -7.5
      vertex 15.437 4.15823 -7.5
    endloop
  endfacet
  facet normal 0 0 -1
    outer loop
      vertex 11.5245 4.98988 -7.5
      vertex 15.437 4.15823 -7.5
      vertex 15 0 -7.5
    endloop
  endfacet
  facet normal -0 0 -1
    outer loop
      vertex 15.437 -4.15823 -7.5
      vertex 11.5245 -4.98988 -7.5
      vertex 15 0 -7.5
    endloop
  endfacet
  facet normal 0 0 -1
    outer loop
      vertex 16.7291 8.13473 -7.5
      vertex 13.0749 9.76168 -7.5
      vertex 15.5836 14.1068 -7.5
    endloop
  endfacet
  facet normal 0 0 -1
    outer loop
      vertex 11 0 -7.5
      vertex 15 0 -7.5
      vertex 11.5245 -4.98988 -7.5
    endloop
  endfacet
  facet normal 0 0 -1
    outer loop
      vertex 15.437 4.15823 -7.5
      vertex 11.5245 4.98988 -7.5
      vertex 13.0749 9.76168 -7.5
    endloop
  endfacet
  facet normal 0 0 -1
    outer loop
      vertex 15 0 -7.5
      vertex 11 0 -7.5
      vertex 11.5245 4.98988 -7.5
    endloop
  endfacet
  facet normal -1 0 0
    outer loop
      vertex 20 13.0666 -17.5
      vertex 20 18.605 -7.5
      vertex 20 18.605 -17.5
    endloop
  endfacet
  facet normal -1 -0 0
    outer loop
      vertex 20 18.605 -7.5
      vertex 20 13.0666 -17.5
      vertex 20 13.0666 -7.5
    endloop
  endfacet
  facet normal -1 0 0
    outer loop
      vertex 20 -18.605 -17.5
      vertex 20 -13.0666 -7.5
      vertex 20 -13.0666 -17.5
    endloop
  endfacet
  facet normal -1 -0 0
    outer loop
      vertex 20 -13.0666 -7.5
      vertex 20 -18.605 -17.5
      vertex 20 -18.605 -7.5
    endloop
  endfacet
  facet normal 1 -0 0
    outer loop
      vertex -17.5 -33.5768 -16
      vertex -17.5 -30.3109 -17.5
      vertex -17.5 -30.3109 -16
    endloop
  endfacet
  facet normal 1 0 0
    outer loop
      vertex -17.5 -30.3109 -17.5
      vertex -17.5 -33.5768 -16
      vertex -17.5 -33.5768 -17.5
    endloop
  endfacet
  facet normal 1 -0 0
    outer loop
      vertex -17.5 30.3109 -16
      vertex -17.5 33.5768 -17.5
      vertex -17.5 33.5768 -16
    endloop
  endfacet
  facet normal 1 0 0
    outer loop
      vertex -17.5 33.5768 -17.5
      vertex -17.5 30.3109 -16
      vertex -17.5 30.3109 -17.5
    endloop
  endfacet
  facet normal 0 0 -1
    outer loop
      vertex -15.4265 -34.5 -16
      vertex -10.8156 -33.287 -16
      vertex -5.10877 -34.5 -16
    endloop
  endfacet
  facet normal 0 0 -1
    outer loop
      vertex -17.5 -30.3109 -16
      vertex -15.4265 -34.5 -16
      vertex -17.5 -33.5768 -16
    endloop
  endfacet
  facet normal 0 0 -1
    outer loop
      vertex -15.4265 -34.5 -16
      vertex -17.5 -30.3109 -16
      vertex -10.8156 -33.287 -16
    endloop
  endfacet
  facet normal 0 0 -1
    outer loop
      vertex 15.4265 -34.5 -16
      vertex 17.5 -30.3109 -16
      vertex 17.5 -33.5768 -16
    endloop
  endfacet
  facet normal 0 0 -1
    outer loop
      vertex 15.4265 -34.5 -16
      vertex 10.8156 -33.287 -16
      vertex 17.5 -30.3109 -16
    endloop
  endfacet
  facet normal 0 -0 -1
    outer loop
      vertex 10.8156 -33.287 -16
      vertex 15.4265 -34.5 -16
      vertex 5.10877 -34.5 -16
    endloop
  endfacet
  facet normal 0 0 -1
    outer loop
      vertex 17.5 30.3109 -16
      vertex 15.4265 34.5 -16
      vertex 17.5 33.5768 -16
    endloop
  endfacet
  facet normal 0 0 -1
    outer loop
      vertex 10.8156 33.287 -16
      vertex 15.4265 34.5 -16
      vertex 17.5 30.3109 -16
    endloop
  endfacet
  facet normal -0 0 -1
    outer loop
      vertex 15.4265 34.5 -16
      vertex 10.8156 33.287 -16
      vertex 5.10877 34.5 -16
    endloop
  endfacet
  facet normal 0 0 -1
    outer loop
      vertex -10.8156 33.287 -16
      vertex -15.4265 34.5 -16
      vertex -5.10877 34.5 -16
    endloop
  endfacet
  facet normal 0 0 -1
    outer loop
      vertex -17.5 30.3109 -16
      vertex -15.4265 34.5 -16
      vertex -10.8156 33.287 -16
    endloop
  endfacet
  facet normal 0 0 -1
    outer loop
      vertex -15.4265 34.5 -16
      vertex -17.5 30.3109 -16
      vertex -17.5 33.5768 -16
    endloop
  endfacet
  facet normal -1 0 0
    outer loop
      vertex 17.5 30.3109 -17.5
      vertex 17.5 33.5768 -16
      vertex 17.5 33.5768 -17.5
    endloop
  endfacet
  facet normal -1 -0 0
    outer loop
      vertex 17.5 33.5768 -16
      vertex 17.5 30.3109 -17.5
      vertex 17.5 30.3109 -16
    endloop
  endfacet
  facet normal -1 0 0
    outer loop
      vertex 17.5 -33.5768 -17.5
      vertex 17.5 -30.3109 -16
      vertex 17.5 -30.3109 -17.5
    endloop
  endfacet
  facet normal -1 -0 0
    outer loop
      vertex 17.5 -30.3109 -16
      vertex 17.5 -33.5768 -17.5
      vertex 17.5 -33.5768 -16
    endloop
  endfacet
  facet normal 0 1 -0
    outer loop
      vertex -5.10877 -34.5 -17.5
      vertex -15.4265 -34.5 -16
      vertex -5.10877 -34.5 -16
    endloop
  endfacet
  facet normal 0 1 0
    outer loop
      vertex -15.4265 -34.5 -16
      vertex -5.10877 -34.5 -17.5
      vertex -15.4265 -34.5 -17.5
    endloop
  endfacet
  facet normal 0 1 -0
    outer loop
      vertex 15.4265 -34.5 -17.5
      vertex 5.10877 -34.5 -16
      vertex 15.4265 -34.5 -16
    endloop
  endfacet
  facet normal 0 1 0
    outer loop
      vertex 5.10877 -34.5 -16
      vertex 15.4265 -34.5 -17.5
      vertex 5.10877 -34.5 -17.5
    endloop
  endfacet
  facet normal 0 -1 0
    outer loop
      vertex -15.4265 34.5 -17.5
      vertex -5.10877 34.5 -16
      vertex -15.4265 34.5 -16
    endloop
  endfacet
  facet normal 0 -1 -0
    outer loop
      vertex -5.10877 34.5 -16
      vertex -15.4265 34.5 -17.5
      vertex -5.10877 34.5 -17.5
    endloop
  endfacet
  facet normal 0 -1 0
    outer loop
      vertex 5.10877 34.5 -17.5
      vertex 15.4265 34.5 -16
      vertex 5.10877 34.5 -16
    endloop
  endfacet
  facet normal 0 -1 -0
    outer loop
      vertex 15.4265 34.5 -16
      vertex 5.10877 34.5 -17.5
      vertex 15.4265 34.5 -17.5
    endloop
  endfacet
  facet normal 0.951057 0.309017 0
    outer loop
      vertex -27 0 9.5
      vertex -27.5729 1.76336 -2.5
      vertex -27.5729 1.76336 9.5
    endloop
  endfacet
  facet normal 0.951057 0.309017 0
    outer loop
      vertex -27.5729 1.76336 -2.5
      vertex -27 0 9.5
      vertex -27 0 -2.5
    endloop
  endfacet
  facet normal -0.951057 0.309017 0
    outer loop
      vertex -33 0 -2.5
      vertex -32.4271 1.76336 9.5
      vertex -32.4271 1.76336 -2.5
    endloop
  endfacet
  facet normal -0.951057 0.309017 0
    outer loop
      vertex -32.4271 1.76336 9.5
      vertex -33 0 -2.5
      vertex -33 0 9.5
    endloop
  endfacet
  facet normal 0 1 -0
    outer loop
      vertex -29.0729 2.85317 -2.5
      vertex -30.9271 2.85317 9.5
      vertex -29.0729 2.85317 9.5
    endloop
  endfacet
  facet normal 0 1 0
    outer loop
      vertex -30.9271 2.85317 9.5
      vertex -29.0729 2.85317 -2.5
      vertex -30.9271 2.85317 -2.5
    endloop
  endfacet
  facet normal 0.587785 0.809017 -0
    outer loop
      vertex -27.5729 1.76336 -2.5
      vertex -29.0729 2.85317 9.5
      vertex -27.5729 1.76336 9.5
    endloop
  endfacet
  facet normal 0.587785 0.809017 0
    outer loop
      vertex -29.0729 2.85317 9.5
      vertex -27.5729 1.76336 -2.5
      vertex -29.0729 2.85317 -2.5
    endloop
  endfacet
  facet normal 0 0 1
    outer loop
      vertex -27.5729 1.76336 9.5
      vertex -27.5729 -1.76336 9.5
      vertex -27 0 9.5
    endloop
  endfacet
  facet normal 0 0 1
    outer loop
      vertex -29.0729 2.85317 9.5
      vertex -27.5729 -1.76336 9.5
      vertex -27.5729 1.76336 9.5
    endloop
  endfacet
  facet normal 0 0 1
    outer loop
      vertex -29.0729 2.85317 9.5
      vertex -29.0729 -2.85317 9.5
      vertex -27.5729 -1.76336 9.5
    endloop
  endfacet
  facet normal -0 0 1
    outer loop
      vertex -30.9271 2.85317 9.5
      vertex -29.0729 -2.85317 9.5
      vertex -29.0729 2.85317 9.5
    endloop
  endfacet
  facet normal 0 0 1
    outer loop
      vertex -30.9271 2.85317 9.5
      vertex -30.9271 -2.85317 9.5
      vertex -29.0729 -2.85317 9.5
    endloop
  endfacet
  facet normal -0 0 1
    outer loop
      vertex -32.4271 1.76336 9.5
      vertex -30.9271 -2.85317 9.5
      vertex -30.9271 2.85317 9.5
    endloop
  endfacet
  facet normal 0 0 1
    outer loop
      vertex -32.4271 1.76336 9.5
      vertex -32.4271 -1.76336 9.5
      vertex -30.9271 -2.85317 9.5
    endloop
  endfacet
  facet normal 0 -0 1
    outer loop
      vertex -32.4271 -1.76336 9.5
      vertex -32.4271 1.76336 9.5
      vertex -33 0 9.5
    endloop
  endfacet
  facet normal -0.587785 0.809017 0
    outer loop
      vertex -30.9271 2.85317 -2.5
      vertex -32.4271 1.76336 9.5
      vertex -30.9271 2.85317 9.5
    endloop
  endfacet
  facet normal -0.587785 0.809017 0
    outer loop
      vertex -32.4271 1.76336 9.5
      vertex -30.9271 2.85317 -2.5
      vertex -32.4271 1.76336 -2.5
    endloop
  endfacet
  facet normal 0.951057 -0.309017 0
    outer loop
      vertex -27.5729 -1.76336 9.5
      vertex -27 0 -2.5
      vertex -27 0 9.5
    endloop
  endfacet
  facet normal 0.951057 -0.309017 0
    outer loop
      vertex -27 0 -2.5
      vertex -27.5729 -1.76336 9.5
      vertex -27.5729 -1.76336 -2.5
    endloop
  endfacet
  facet normal -0.951057 -0.309017 0
    outer loop
      vertex -32.4271 -1.76336 -2.5
      vertex -33 0 9.5
      vertex -33 0 -2.5
    endloop
  endfacet
  facet normal -0.951057 -0.309017 0
    outer loop
      vertex -33 0 9.5
      vertex -32.4271 -1.76336 -2.5
      vertex -32.4271 -1.76336 9.5
    endloop
  endfacet
  facet normal 0 -1 0
    outer loop
      vertex -30.9271 -2.85317 -2.5
      vertex -29.0729 -2.85317 9.5
      vertex -30.9271 -2.85317 9.5
    endloop
  endfacet
  facet normal 0 -1 -0
    outer loop
      vertex -29.0729 -2.85317 9.5
      vertex -30.9271 -2.85317 -2.5
      vertex -29.0729 -2.85317 -2.5
    endloop
  endfacet
  facet normal 0.587785 -0.809017 0
    outer loop
      vertex -29.0729 -2.85317 -2.5
      vertex -27.5729 -1.76336 9.5
      vertex -29.0729 -2.85317 9.5
    endloop
  endfacet
  facet normal 0.587785 -0.809017 0
    outer loop
      vertex -27.5729 -1.76336 9.5
      vertex -29.0729 -2.85317 -2.5
      vertex -27.5729 -1.76336 -2.5
    endloop
  endfacet
  facet normal -0.587785 -0.809017 0
    outer loop
      vertex -32.4271 -1.76336 -2.5
      vertex -30.9271 -2.85317 9.5
      vertex -32.4271 -1.76336 9.5
    endloop
  endfacet
  facet normal -0.587785 -0.809017 -0
    outer loop
      vertex -30.9271 -2.85317 9.5
      vertex -32.4271 -1.76336 -2.5
      vertex -30.9271 -2.85317 -2.5
    endloop
  endfacet
  facet normal 0 0 1
    outer loop
      vertex -27 5 -2.5
      vertex -27.5729 1.76336 -2.5
      vertex -27 0 -2.5
    endloop
  endfacet
  facet normal 0 0 1
    outer loop
      vertex -27 5 -2.5
      vertex -29.0729 2.85317 -2.5
      vertex -27.5729 1.76336 -2.5
    endloop
  endfacet
  facet normal 0 0 1
    outer loop
      vertex -27 5 -2.5
      vertex -30.9271 2.85317 -2.5
      vertex -29.0729 2.85317 -2.5
    endloop
  endfacet
  facet normal 0 0 1
    outer loop
      vertex -35 0 -2.5
      vertex -32.4271 1.76336 -2.5
      vertex -34.4745 5 -2.5
    endloop
  endfacet
  facet normal 0 0 1
    outer loop
      vertex -30.9271 2.85317 -2.5
      vertex -34.4745 5 -2.5
      vertex -32.4271 1.76336 -2.5
    endloop
  endfacet
  facet normal -0 0 1
    outer loop
      vertex -34.4745 5 -2.5
      vertex -30.9271 2.85317 -2.5
      vertex -27 5 -2.5
    endloop
  endfacet
  facet normal -0 0 1
    outer loop
      vertex -27.5729 -1.76336 -2.5
      vertex -27 -5 -2.5
      vertex -27 0 -2.5
    endloop
  endfacet
  facet normal -0 0 1
    outer loop
      vertex -29.0729 -2.85317 -2.5
      vertex -27 -5 -2.5
      vertex -27.5729 -1.76336 -2.5
    endloop
  endfacet
  facet normal -0 0 1
    outer loop
      vertex -30.9271 -2.85317 -2.5
      vertex -27 -5 -2.5
      vertex -29.0729 -2.85317 -2.5
    endloop
  endfacet
  facet normal 0 0 1
    outer loop
      vertex -30.9271 -2.85317 -2.5
      vertex -34.4745 -5 -2.5
      vertex -27 -5 -2.5
    endloop
  endfacet
  facet normal 0 0 1
    outer loop
      vertex -32.4271 -1.76336 -2.5
      vertex -34.4745 -5 -2.5
      vertex -30.9271 -2.85317 -2.5
    endloop
  endfacet
  facet normal -0 0 1
    outer loop
      vertex -35 0 -2.5
      vertex -32.4271 -1.76336 -2.5
      vertex -33 0 -2.5
    endloop
  endfacet
  facet normal 0 0 1
    outer loop
      vertex -32.4271 1.76336 -2.5
      vertex -35 0 -2.5
      vertex -33 0 -2.5
    endloop
  endfacet
  facet normal 0 0 1
    outer loop
      vertex -32.4271 -1.76336 -2.5
      vertex -35 0 -2.5
      vertex -34.4745 -5 -2.5
    endloop
  endfacet
  facet normal 1 -0 0
    outer loop
      vertex -27 0 -2.5
      vertex -27 5 -17.5
      vertex -27 5 -2.5
    endloop
  endfacet
  facet normal 1 0 0
    outer loop
      vertex -27 0 -2.5
      vertex -27 0 -17.5
      vertex -27 5 -17.5
    endloop
  endfacet
  facet normal 1 -0 0
    outer loop
      vertex -27 -5 -2.5
      vertex -27 0 -17.5
      vertex -27 0 -2.5
    endloop
  endfacet
  facet normal 1 0 0
    outer loop
      vertex -27 0 -17.5
      vertex -27 -5 -2.5
      vertex -27 -5 -17.5
    endloop
  endfacet
  facet normal 0 1 -0
    outer loop
      vertex -27 5 -17.5
      vertex -34.4745 5 -2.5
      vertex -27 5 -2.5
    endloop
  endfacet
  facet normal 0 1 0
    outer loop
      vertex -34.4745 5 -2.5
      vertex -27 5 -17.5
      vertex -34.4745 5 -17.5
    endloop
  endfacet
  facet normal 0 -1 0
    outer loop
      vertex -34.4745 -5 -17.5
      vertex -27 -5 -2.5
      vertex -34.4745 -5 -2.5
    endloop
  endfacet
  facet normal 0 -1 -0
    outer loop
      vertex -27 -5 -2.5
      vertex -34.4745 -5 -17.5
      vertex -27 -5 -17.5
    endloop
  endfacet
  facet normal 0.951057 0.309017 0
    outer loop
      vertex -27 0 -17.5
      vertex -27.5729 1.76336 -25
      vertex -27.5729 1.76336 -17.5
    endloop
  endfacet
  facet normal 0.951057 0.309017 0
    outer loop
      vertex -27.5729 1.76336 -25
      vertex -27 0 -17.5
      vertex -27 0 -25
    endloop
  endfacet
  facet normal -0.951057 0.309017 0
    outer loop
      vertex -33 0 -25
      vertex -32.4271 1.76336 -17.5
      vertex -32.4271 1.76336 -25
    endloop
  endfacet
  facet normal -0.951057 0.309017 0
    outer loop
      vertex -32.4271 1.76336 -17.5
      vertex -33 0 -25
      vertex -33 0 -17.5
    endloop
  endfacet
  facet normal 0 -1 0
    outer loop
      vertex -30.9271 -2.85317 -25
      vertex -29.0729 -2.85317 -17.5
      vertex -30.9271 -2.85317 -17.5
    endloop
  endfacet
  facet normal 0 -1 -0
    outer loop
      vertex -29.0729 -2.85317 -17.5
      vertex -30.9271 -2.85317 -25
      vertex -29.0729 -2.85317 -25
    endloop
  endfacet
  facet normal 0 1 -0
    outer loop
      vertex -29.0729 2.85317 -25
      vertex -30.9271 2.85317 -17.5
      vertex -29.0729 2.85317 -17.5
    endloop
  endfacet
  facet normal 0 1 0
    outer loop
      vertex -30.9271 2.85317 -17.5
      vertex -29.0729 2.85317 -25
      vertex -30.9271 2.85317 -25
    endloop
  endfacet
  facet normal 0.587785 0.809017 -0
    outer loop
      vertex -27.5729 1.76336 -25
      vertex -29.0729 2.85317 -17.5
      vertex -27.5729 1.76336 -17.5
    endloop
  endfacet
  facet normal 0.587785 0.809017 0
    outer loop
      vertex -29.0729 2.85317 -17.5
      vertex -27.5729 1.76336 -25
      vertex -29.0729 2.85317 -25
    endloop
  endfacet
  facet normal -0.587785 0.809017 0
    outer loop
      vertex -30.9271 2.85317 -25
      vertex -32.4271 1.76336 -17.5
      vertex -30.9271 2.85317 -17.5
    endloop
  endfacet
  facet normal -0.587785 0.809017 0
    outer loop
      vertex -32.4271 1.76336 -17.5
      vertex -30.9271 2.85317 -25
      vertex -32.4271 1.76336 -25
    endloop
  endfacet
  facet normal 0.587785 -0.809017 0
    outer loop
      vertex -29.0729 -2.85317 -25
      vertex -27.5729 -1.76336 -17.5
      vertex -29.0729 -2.85317 -17.5
    endloop
  endfacet
  facet normal 0.587785 -0.809017 0
    outer loop
      vertex -27.5729 -1.76336 -17.5
      vertex -29.0729 -2.85317 -25
      vertex -27.5729 -1.76336 -25
    endloop
  endfacet
  facet normal 0.951057 -0.309017 0
    outer loop
      vertex -27.5729 -1.76336 -17.5
      vertex -27 0 -25
      vertex -27 0 -17.5
    endloop
  endfacet
  facet normal 0.951057 -0.309017 0
    outer loop
      vertex -27 0 -25
      vertex -27.5729 -1.76336 -17.5
      vertex -27.5729 -1.76336 -25
    endloop
  endfacet
  facet normal 0 0 -1
    outer loop
      vertex -27.5729 -1.76336 -25
      vertex -27.5729 1.76336 -25
      vertex -27 0 -25
    endloop
  endfacet
  facet normal 0 0 -1
    outer loop
      vertex -29.0729 -2.85317 -25
      vertex -27.5729 1.76336 -25
      vertex -27.5729 -1.76336 -25
    endloop
  endfacet
  facet normal 0 0 -1
    outer loop
      vertex -29.0729 -2.85317 -25
      vertex -29.0729 2.85317 -25
      vertex -27.5729 1.76336 -25
    endloop
  endfacet
  facet normal 0 0 -1
    outer loop
      vertex -30.9271 -2.85317 -25
      vertex -29.0729 2.85317 -25
      vertex -29.0729 -2.85317 -25
    endloop
  endfacet
  facet normal 0 0 -1
    outer loop
      vertex -30.9271 -2.85317 -25
      vertex -30.9271 2.85317 -25
      vertex -29.0729 2.85317 -25
    endloop
  endfacet
  facet normal 0 0 -1
    outer loop
      vertex -32.4271 -1.76336 -25
      vertex -30.9271 2.85317 -25
      vertex -30.9271 -2.85317 -25
    endloop
  endfacet
  facet normal 0 0 -1
    outer loop
      vertex -32.4271 -1.76336 -25
      vertex -32.4271 1.76336 -25
      vertex -30.9271 2.85317 -25
    endloop
  endfacet
  facet normal 0 -0 -1
    outer loop
      vertex -32.4271 1.76336 -25
      vertex -32.4271 -1.76336 -25
      vertex -33 0 -25
    endloop
  endfacet
  facet normal -0.587785 -0.809017 0
    outer loop
      vertex -32.4271 -1.76336 -25
      vertex -30.9271 -2.85317 -17.5
      vertex -32.4271 -1.76336 -17.5
    endloop
  endfacet
  facet normal -0.587785 -0.809017 -0
    outer loop
      vertex -30.9271 -2.85317 -17.5
      vertex -32.4271 -1.76336 -25
      vertex -30.9271 -2.85317 -25
    endloop
  endfacet
  facet normal -0.951057 -0.309017 0
    outer loop
      vertex -32.4271 -1.76336 -25
      vertex -33 0 -17.5
      vertex -33 0 -25
    endloop
  endfacet
  facet normal -0.951057 -0.309017 0
    outer loop
      vertex -33 0 -17.5
      vertex -32.4271 -1.76336 -25
      vertex -32.4271 -1.76336 -17.5
    endloop
  endfacet
  facet normal 0.900969 0.433884 0
    outer loop
      vertex 30.7 21.5 -17.5
      vertex 29.947 23.0637 -25
      vertex 29.947 23.0637 -17.5
    endloop
  endfacet
  facet normal 0.900969 0.433884 0
    outer loop
      vertex 29.947 23.0637 -25
      vertex 30.7 21.5 -17.5
      vertex 30.7 21.5 -25
    endloop
  endfacet
  facet normal -1 0 0
    outer loop
      vertex 26.8981 20.6322 -25
      vertex 26.8981 22.3678 -17.5
      vertex 26.8981 22.3678 -25
    endloop
  endfacet
  facet normal -1 -0 0
    outer loop
      vertex 26.8981 22.3678 -17.5
      vertex 26.8981 20.6322 -25
      vertex 26.8981 20.6322 -17.5
    endloop
  endfacet
  facet normal 0.222521 0.974928 -0
    outer loop
      vertex 29.947 23.0637 -25
      vertex 28.255 23.4499 -17.5
      vertex 29.947 23.0637 -17.5
    endloop
  endfacet
  facet normal 0.222521 0.974928 0
    outer loop
      vertex 28.255 23.4499 -17.5
      vertex 29.947 23.0637 -25
      vertex 28.255 23.4499 -25
    endloop
  endfacet
  facet normal 0 0 -1
    outer loop
      vertex 29.947 19.9363 -25
      vertex 29.947 23.0637 -25
      vertex 30.7 21.5 -25
    endloop
  endfacet
  facet normal 0 0 -1
    outer loop
      vertex 28.255 19.5501 -25
      vertex 29.947 23.0637 -25
      vertex 29.947 19.9363 -25
    endloop
  endfacet
  facet normal 0 0 -1
    outer loop
      vertex 28.255 19.5501 -25
      vertex 28.255 23.4499 -25
      vertex 29.947 23.0637 -25
    endloop
  endfacet
  facet normal 0 0 -1
    outer loop
      vertex 26.8981 20.6322 -25
      vertex 28.255 23.4499 -25
      vertex 28.255 19.5501 -25
    endloop
  endfacet
  facet normal 0 0 -1
    outer loop
      vertex 28.255 23.4499 -25
      vertex 26.8981 20.6322 -25
      vertex 26.8981 22.3678 -25
    endloop
  endfacet
  facet normal -0.62349 0.781831 0
    outer loop
      vertex 28.255 23.4499 -25
      vertex 26.8981 22.3678 -17.5
      vertex 28.255 23.4499 -17.5
    endloop
  endfacet
  facet normal -0.62349 0.781831 0
    outer loop
      vertex 26.8981 22.3678 -17.5
      vertex 28.255 23.4499 -25
      vertex 26.8981 22.3678 -25
    endloop
  endfacet
  facet normal 0.900969 -0.433884 0
    outer loop
      vertex 29.947 19.9363 -17.5
      vertex 30.7 21.5 -25
      vertex 30.7 21.5 -17.5
    endloop
  endfacet
  facet normal 0.900969 -0.433884 0
    outer loop
      vertex 30.7 21.5 -25
      vertex 29.947 19.9363 -17.5
      vertex 29.947 19.9363 -25
    endloop
  endfacet
  facet normal -0.62349 -0.781831 0
    outer loop
      vertex 26.8981 20.6322 -25
      vertex 28.255 19.5501 -17.5
      vertex 26.8981 20.6322 -17.5
    endloop
  endfacet
  facet normal -0.62349 -0.781831 -0
    outer loop
      vertex 28.255 19.5501 -17.5
      vertex 26.8981 20.6322 -25
      vertex 28.255 19.5501 -25
    endloop
  endfacet
  facet normal 0.222521 -0.974928 0
    outer loop
      vertex 28.255 19.5501 -25
      vertex 29.947 19.9363 -17.5
      vertex 28.255 19.5501 -17.5
    endloop
  endfacet
  facet normal 0.222521 -0.974928 0
    outer loop
      vertex 29.947 19.9363 -17.5
      vertex 28.255 19.5501 -25
      vertex 29.947 19.9363 -25
    endloop
  endfacet
  facet normal 0.900969 0.433884 0
    outer loop
      vertex 30.7 -21.5 -17.5
      vertex 29.947 -19.9363 -25
      vertex 29.947 -19.9363 -17.5
    endloop
  endfacet
  facet normal 0.900969 0.433884 0
    outer loop
      vertex 29.947 -19.9363 -25
      vertex 30.7 -21.5 -17.5
      vertex 30.7 -21.5 -25
    endloop
  endfacet
  facet normal -1 0 0
    outer loop
      vertex 26.8981 -22.3678 -25
      vertex 26.8981 -20.6322 -17.5
      vertex 26.8981 -20.6322 -25
    endloop
  endfacet
  facet normal -1 -0 0
    outer loop
      vertex 26.8981 -20.6322 -17.5
      vertex 26.8981 -22.3678 -25
      vertex 26.8981 -22.3678 -17.5
    endloop
  endfacet
  facet normal 0.222521 0.974928 -0
    outer loop
      vertex 29.947 -19.9363 -25
      vertex 28.255 -19.5501 -17.5
      vertex 29.947 -19.9363 -17.5
    endloop
  endfacet
  facet normal 0.222521 0.974928 0
    outer loop
      vertex 28.255 -19.5501 -17.5
      vertex 29.947 -19.9363 -25
      vertex 28.255 -19.5501 -25
    endloop
  endfacet
  facet normal -0.62349 0.781831 0
    outer loop
      vertex 28.255 -19.5501 -25
      vertex 26.8981 -20.6322 -17.5
      vertex 28.255 -19.5501 -17.5
    endloop
  endfacet
  facet normal -0.62349 0.781831 0
    outer loop
      vertex 26.8981 -20.6322 -17.5
      vertex 28.255 -19.5501 -25
      vertex 26.8981 -20.6322 -25
    endloop
  endfacet
  facet normal 0.900969 -0.433884 0
    outer loop
      vertex 29.947 -23.0637 -17.5
      vertex 30.7 -21.5 -25
      vertex 30.7 -21.5 -17.5
    endloop
  endfacet
  facet normal 0.900969 -0.433884 0
    outer loop
      vertex 30.7 -21.5 -25
      vertex 29.947 -23.0637 -17.5
      vertex 29.947 -23.0637 -25
    endloop
  endfacet
  facet normal 0 0 -1
    outer loop
      vertex 29.947 -23.0637 -25
      vertex 29.947 -19.9363 -25
      vertex 30.7 -21.5 -25
    endloop
  endfacet
  facet normal 0 0 -1
    outer loop
      vertex 28.255 -23.4499 -25
      vertex 29.947 -19.9363 -25
      vertex 29.947 -23.0637 -25
    endloop
  endfacet
  facet normal 0 0 -1
    outer loop
      vertex 28.255 -23.4499 -25
      vertex 28.255 -19.5501 -25
      vertex 29.947 -19.9363 -25
    endloop
  endfacet
  facet normal 0 0 -1
    outer loop
      vertex 26.8981 -22.3678 -25
      vertex 28.255 -19.5501 -25
      vertex 28.255 -23.4499 -25
    endloop
  endfacet
  facet normal 0 0 -1
    outer loop
      vertex 28.255 -19.5501 -25
      vertex 26.8981 -22.3678 -25
      vertex 26.8981 -20.6322 -25
    endloop
  endfacet
  facet normal 0.222521 -0.974928 0
    outer loop
      vertex 28.255 -23.4499 -25
      vertex 29.947 -23.0637 -17.5
      vertex 28.255 -23.4499 -17.5
    endloop
  endfacet
  facet normal 0.222521 -0.974928 0
    outer loop
      vertex 29.947 -23.0637 -17.5
      vertex 28.255 -23.4499 -25
      vertex 29.947 -23.0637 -25
    endloop
  endfacet
  facet normal -0.62349 -0.781831 0
    outer loop
      vertex 26.8981 -22.3678 -25
      vertex 28.255 -23.4499 -17.5
      vertex 26.8981 -22.3678 -17.5
    endloop
  endfacet
  facet normal -0.62349 -0.781831 -0
    outer loop
      vertex 28.255 -23.4499 -17.5
      vertex 26.8981 -22.3678 -25
      vertex 28.255 -23.4499 -25
    endloop
  endfacet
endsolid OpenSCAD_Model
