solid OpenSCAD_Model
  facet normal 0.866025 0.5 0
    outer loop
      vertex 42.9366 19.1166 19.5
      vertex 38.0238 27.6259 12
      vertex 38.0238 27.6259 19.5
    endloop
  endfacet
  facet normal 0.866025 0.5 0
    outer loop
      vertex 38.0238 27.6259 12
      vertex 42.9366 19.1166 19.5
      vertex 42.9366 19.1166 12
    endloop
  endfacet
  facet normal 0 1 -0
    outer loop
      vertex 4.91284 46.7425 12
      vertex -4.91284 46.7425 19.5
      vertex 4.91284 46.7425 19.5
    endloop
  endfacet
  facet normal 0 1 0
    outer loop
      vertex -4.91284 46.7425 19.5
      vertex 4.91284 46.7425 12
      vertex -4.91284 46.7425 12
    endloop
  endfacet
  facet normal 0.743145 0.66913 0
    outer loop
      vertex 38.0238 27.6259 19.5
      vertex 31.4491 34.9278 12
      vertex 31.4491 34.9278 19.5
    endloop
  endfacet
  facet normal 0.743145 0.66913 0
    outer loop
      vertex 31.4491 34.9278 12
      vertex 38.0238 27.6259 19.5
      vertex 38.0238 27.6259 12
    endloop
  endfacet
  facet normal 0.207912 0.978148 -0
    outer loop
      vertex 14.5238 44.6997 12
      vertex 4.91284 46.7425 19.5
      vertex 14.5238 44.6997 19.5
    endloop
  endfacet
  facet normal 0.207912 0.978148 0
    outer loop
      vertex 4.91284 46.7425 19.5
      vertex 14.5238 44.6997 12
      vertex 4.91284 46.7425 12
    endloop
  endfacet
  facet normal -0.406736 0.913546 0
    outer loop
      vertex -14.5238 44.6997 12
      vertex -23.5 40.7032 19.5
      vertex -14.5238 44.6997 19.5
    endloop
  endfacet
  facet normal -0.406736 0.913546 0
    outer loop
      vertex -23.5 40.7032 19.5
      vertex -14.5238 44.6997 12
      vertex -23.5 40.7032 12
    endloop
  endfacet
  facet normal -0.866025 0.5 0
    outer loop
      vertex -42.9366 19.1166 12
      vertex -38.0238 27.6259 19.5
      vertex -38.0238 27.6259 12
    endloop
  endfacet
  facet normal -0.866025 0.5 0
    outer loop
      vertex -38.0238 27.6259 19.5
      vertex -42.9366 19.1166 12
      vertex -42.9366 19.1166 19.5
    endloop
  endfacet
  facet normal -0.587785 0.809017 0
    outer loop
      vertex -23.5 40.7032 12
      vertex -31.4491 34.9278 19.5
      vertex -23.5 40.7032 19.5
    endloop
  endfacet
  facet normal -0.587785 0.809017 0
    outer loop
      vertex -31.4491 34.9278 19.5
      vertex -23.5 40.7032 12
      vertex -31.4491 34.9278 12
    endloop
  endfacet
  facet normal 0.994522 -0.104528 0
    outer loop
      vertex 45.9729 -9.77185 19.5
      vertex 47 0 12
      vertex 47 0 19.5
    endloop
  endfacet
  facet normal 0.994522 -0.104528 0
    outer loop
      vertex 47 0 12
      vertex 45.9729 -9.77185 19.5
      vertex 45.9729 -9.77185 12
    endloop
  endfacet
  facet normal 0.207912 -0.978148 0
    outer loop
      vertex 4.91284 -46.7425 12
      vertex 14.5238 -44.6997 19.5
      vertex 4.91284 -46.7425 19.5
    endloop
  endfacet
  facet normal 0.207912 -0.978148 0
    outer loop
      vertex 14.5238 -44.6997 19.5
      vertex 4.91284 -46.7425 12
      vertex 14.5238 -44.6997 12
    endloop
  endfacet
  facet normal 0.951057 0.309017 0
    outer loop
      vertex 45.9729 9.77185 19.5
      vertex 42.9366 19.1166 12
      vertex 42.9366 19.1166 19.5
    endloop
  endfacet
  facet normal 0.951057 0.309017 0
    outer loop
      vertex 42.9366 19.1166 12
      vertex 45.9729 9.77185 19.5
      vertex 45.9729 9.77185 12
    endloop
  endfacet
  facet normal 0.587785 0.809017 -0
    outer loop
      vertex 31.4491 34.9278 12
      vertex 23.5 40.7032 19.5
      vertex 31.4491 34.9278 19.5
    endloop
  endfacet
  facet normal 0.587785 0.809017 0
    outer loop
      vertex 23.5 40.7032 19.5
      vertex 31.4491 34.9278 12
      vertex 23.5 40.7032 12
    endloop
  endfacet
  facet normal 0.406736 0.913546 -0
    outer loop
      vertex 23.5 40.7032 12
      vertex 14.5238 44.6997 19.5
      vertex 23.5 40.7032 19.5
    endloop
  endfacet
  facet normal 0.406736 0.913546 0
    outer loop
      vertex 14.5238 44.6997 19.5
      vertex 23.5 40.7032 12
      vertex 14.5238 44.6997 12
    endloop
  endfacet
  facet normal -0.994522 0.104528 0
    outer loop
      vertex -47 0 12
      vertex -45.9729 9.77185 19.5
      vertex -45.9729 9.77185 12
    endloop
  endfacet
  facet normal -0.994522 0.104528 0
    outer loop
      vertex -45.9729 9.77185 19.5
      vertex -47 0 12
      vertex -47 0 19.5
    endloop
  endfacet
  facet normal -0.743145 0.66913 0
    outer loop
      vertex -38.0238 27.6259 12
      vertex -31.4491 34.9278 19.5
      vertex -31.4491 34.9278 12
    endloop
  endfacet
  facet normal -0.743145 0.66913 0
    outer loop
      vertex -31.4491 34.9278 19.5
      vertex -38.0238 27.6259 12
      vertex -38.0238 27.6259 19.5
    endloop
  endfacet
  facet normal -0.207912 0.978148 0
    outer loop
      vertex -4.91284 46.7425 12
      vertex -14.5238 44.6997 19.5
      vertex -4.91284 46.7425 19.5
    endloop
  endfacet
  facet normal -0.207912 0.978148 0
    outer loop
      vertex -14.5238 44.6997 19.5
      vertex -4.91284 46.7425 12
      vertex -14.5238 44.6997 12
    endloop
  endfacet
  facet normal 0.994522 0.104528 0
    outer loop
      vertex 47 0 19.5
      vertex 45.9729 9.77185 12
      vertex 45.9729 9.77185 19.5
    endloop
  endfacet
  facet normal 0.994522 0.104528 0
    outer loop
      vertex 45.9729 9.77185 12
      vertex 47 0 19.5
      vertex 47 0 12
    endloop
  endfacet
  facet normal 0.951057 -0.309017 0
    outer loop
      vertex 42.9366 -19.1166 19.5
      vertex 45.9729 -9.77185 12
      vertex 45.9729 -9.77185 19.5
    endloop
  endfacet
  facet normal 0.951057 -0.309017 0
    outer loop
      vertex 45.9729 -9.77185 12
      vertex 42.9366 -19.1166 19.5
      vertex 42.9366 -19.1166 12
    endloop
  endfacet
  facet normal -0.587785 -0.809017 0
    outer loop
      vertex -31.4491 -34.9278 12
      vertex -23.5 -40.7032 19.5
      vertex -31.4491 -34.9278 19.5
    endloop
  endfacet
  facet normal -0.587785 -0.809017 -0
    outer loop
      vertex -23.5 -40.7032 19.5
      vertex -31.4491 -34.9278 12
      vertex -23.5 -40.7032 12
    endloop
  endfacet
  facet normal -0.866025 -0.5 0
    outer loop
      vertex -38.0238 -27.6259 12
      vertex -42.9366 -19.1166 19.5
      vertex -42.9366 -19.1166 12
    endloop
  endfacet
  facet normal -0.866025 -0.5 0
    outer loop
      vertex -42.9366 -19.1166 19.5
      vertex -38.0238 -27.6259 12
      vertex -38.0238 -27.6259 19.5
    endloop
  endfacet
  facet normal 0.587785 -0.809017 0
    outer loop
      vertex 23.5 -40.7032 12
      vertex 31.4491 -34.9278 19.5
      vertex 23.5 -40.7032 19.5
    endloop
  endfacet
  facet normal 0.587785 -0.809017 0
    outer loop
      vertex 31.4491 -34.9278 19.5
      vertex 23.5 -40.7032 12
      vertex 31.4491 -34.9278 12
    endloop
  endfacet
  facet normal -0.951057 0.309017 0
    outer loop
      vertex -45.9729 9.77185 12
      vertex -42.9366 19.1166 19.5
      vertex -42.9366 19.1166 12
    endloop
  endfacet
  facet normal -0.951057 0.309017 0
    outer loop
      vertex -42.9366 19.1166 19.5
      vertex -45.9729 9.77185 12
      vertex -45.9729 9.77185 19.5
    endloop
  endfacet
  facet normal 0.866025 -0.5 0
    outer loop
      vertex 38.0238 -27.6259 19.5
      vertex 42.9366 -19.1166 12
      vertex 42.9366 -19.1166 19.5
    endloop
  endfacet
  facet normal 0.866025 -0.5 0
    outer loop
      vertex 42.9366 -19.1166 12
      vertex 38.0238 -27.6259 19.5
      vertex 38.0238 -27.6259 12
    endloop
  endfacet
  facet normal -0.994522 -0.104528 0
    outer loop
      vertex -45.9729 -9.77185 12
      vertex -47 0 19.5
      vertex -47 0 12
    endloop
  endfacet
  facet normal -0.994522 -0.104528 0
    outer loop
      vertex -47 0 19.5
      vertex -45.9729 -9.77185 12
      vertex -45.9729 -9.77185 19.5
    endloop
  endfacet
  facet normal -0.743145 -0.66913 0
    outer loop
      vertex -31.4491 -34.9278 12
      vertex -38.0238 -27.6259 19.5
      vertex -38.0238 -27.6259 12
    endloop
  endfacet
  facet normal -0.743145 -0.66913 0
    outer loop
      vertex -38.0238 -27.6259 19.5
      vertex -31.4491 -34.9278 12
      vertex -31.4491 -34.9278 19.5
    endloop
  endfacet
  facet normal 0.406736 -0.913546 0
    outer loop
      vertex 14.5238 -44.6997 12
      vertex 23.5 -40.7032 19.5
      vertex 14.5238 -44.6997 19.5
    endloop
  endfacet
  facet normal 0.406736 -0.913546 0
    outer loop
      vertex 23.5 -40.7032 19.5
      vertex 14.5238 -44.6997 12
      vertex 23.5 -40.7032 12
    endloop
  endfacet
  facet normal -0.406736 -0.913546 0
    outer loop
      vertex -23.5 -40.7032 12
      vertex -14.5238 -44.6997 19.5
      vertex -23.5 -40.7032 19.5
    endloop
  endfacet
  facet normal -0.406736 -0.913546 -0
    outer loop
      vertex -14.5238 -44.6997 19.5
      vertex -23.5 -40.7032 12
      vertex -14.5238 -44.6997 12
    endloop
  endfacet
  facet normal 0 -1 0
    outer loop
      vertex -4.91284 -46.7425 12
      vertex 4.91284 -46.7425 19.5
      vertex -4.91284 -46.7425 19.5
    endloop
  endfacet
  facet normal 0 -1 -0
    outer loop
      vertex 4.91284 -46.7425 19.5
      vertex -4.91284 -46.7425 12
      vertex 4.91284 -46.7425 12
    endloop
  endfacet
  facet normal 0 0 -1
    outer loop
      vertex 45 0 12
      vertex 47 0 12
      vertex 45.9729 -9.77185 12
    endloop
  endfacet
  facet normal 0 0 -1
    outer loop
      vertex 47 0 12
      vertex 45 0 12
      vertex 45.9729 9.77185 12
    endloop
  endfacet
  facet normal 0 0 -1
    outer loop
      vertex 45.9729 -9.77185 12
      vertex 44.0166 -9.35603 12
      vertex 45 0 12
    endloop
  endfacet
  facet normal 0 0 -1
    outer loop
      vertex 42.9366 -19.1166 12
      vertex 44.0166 -9.35603 12
      vertex 45.9729 -9.77185 12
    endloop
  endfacet
  facet normal 0 0 -1
    outer loop
      vertex 42.9366 -19.1166 12
      vertex 41.1095 -18.3031 12
      vertex 44.0166 -9.35603 12
    endloop
  endfacet
  facet normal 0 0 -1
    outer loop
      vertex 38.0238 -27.6259 12
      vertex 41.1095 -18.3031 12
      vertex 42.9366 -19.1166 12
    endloop
  endfacet
  facet normal 0 0 -1
    outer loop
      vertex 38.0238 -27.6259 12
      vertex 36.4058 -26.4503 12
      vertex 41.1095 -18.3031 12
    endloop
  endfacet
  facet normal 0 0 -1
    outer loop
      vertex 31.4491 -34.9278 12
      vertex 36.4058 -26.4503 12
      vertex 38.0238 -27.6259 12
    endloop
  endfacet
  facet normal 0 0 -1
    outer loop
      vertex 31.4491 -34.9278 12
      vertex 30.1109 -33.4415 12
      vertex 36.4058 -26.4503 12
    endloop
  endfacet
  facet normal 0 0 -1
    outer loop
      vertex 23.5 -40.7032 12
      vertex 30.1109 -33.4415 12
      vertex 31.4491 -34.9278 12
    endloop
  endfacet
  facet normal 0 0 -1
    outer loop
      vertex 23.5 -40.7032 12
      vertex 22.5 -38.9711 12
      vertex 30.1109 -33.4415 12
    endloop
  endfacet
  facet normal 0 0 -1
    outer loop
      vertex 14.5238 -44.6997 12
      vertex 22.5 -38.9711 12
      vertex 23.5 -40.7032 12
    endloop
  endfacet
  facet normal 0 0 -1
    outer loop
      vertex 14.5238 -44.6997 12
      vertex 13.9058 -42.7975 12
      vertex 22.5 -38.9711 12
    endloop
  endfacet
  facet normal 0 0 -1
    outer loop
      vertex 4.91284 -46.7425 12
      vertex 13.9058 -42.7975 12
      vertex 14.5238 -44.6997 12
    endloop
  endfacet
  facet normal 0 0 -1
    outer loop
      vertex 4.91284 -46.7425 12
      vertex 4.70378 -44.7535 12
      vertex 13.9058 -42.7975 12
    endloop
  endfacet
  facet normal 0 0 -1
    outer loop
      vertex 4.91284 -46.7425 12
      vertex -4.70378 -44.7535 12
      vertex 4.70378 -44.7535 12
    endloop
  endfacet
  facet normal 0 0 -1
    outer loop
      vertex -4.91284 -46.7425 12
      vertex -4.70378 -44.7535 12
      vertex 4.91284 -46.7425 12
    endloop
  endfacet
  facet normal 0 0 -1
    outer loop
      vertex -4.91284 -46.7425 12
      vertex -13.9058 -42.7975 12
      vertex -4.70378 -44.7535 12
    endloop
  endfacet
  facet normal 0 0 -1
    outer loop
      vertex -14.5238 -44.6997 12
      vertex -13.9058 -42.7975 12
      vertex -4.91284 -46.7425 12
    endloop
  endfacet
  facet normal 0 0 -1
    outer loop
      vertex -14.5238 -44.6997 12
      vertex -22.5 -38.9711 12
      vertex -13.9058 -42.7975 12
    endloop
  endfacet
  facet normal 0 0 -1
    outer loop
      vertex -23.5 -40.7032 12
      vertex -22.5 -38.9711 12
      vertex -14.5238 -44.6997 12
    endloop
  endfacet
  facet normal 0 0 -1
    outer loop
      vertex -23.5 -40.7032 12
      vertex -30.1109 -33.4415 12
      vertex -22.5 -38.9711 12
    endloop
  endfacet
  facet normal 0 0 -1
    outer loop
      vertex -31.4491 -34.9278 12
      vertex -30.1109 -33.4415 12
      vertex -23.5 -40.7032 12
    endloop
  endfacet
  facet normal 0 0 -1
    outer loop
      vertex -31.4491 -34.9278 12
      vertex -36.4058 -26.4503 12
      vertex -30.1109 -33.4415 12
    endloop
  endfacet
  facet normal 0 0 -1
    outer loop
      vertex -38.0238 -27.6259 12
      vertex -36.4058 -26.4503 12
      vertex -31.4491 -34.9278 12
    endloop
  endfacet
  facet normal 0 0 -1
    outer loop
      vertex -38.0238 -27.6259 12
      vertex -41.1095 -18.3031 12
      vertex -36.4058 -26.4503 12
    endloop
  endfacet
  facet normal 0 0 -1
    outer loop
      vertex -42.9366 -19.1166 12
      vertex -41.1095 -18.3031 12
      vertex -38.0238 -27.6259 12
    endloop
  endfacet
  facet normal 0 0 -1
    outer loop
      vertex -42.9366 -19.1166 12
      vertex -44.0166 -9.35603 12
      vertex -41.1095 -18.3031 12
    endloop
  endfacet
  facet normal -0 0 -1
    outer loop
      vertex -44.0166 -9.35603 12
      vertex -45.9729 -9.77185 12
      vertex -45 0 12
    endloop
  endfacet
  facet normal 0 0 -1
    outer loop
      vertex -45.9729 -9.77185 12
      vertex -44.0166 -9.35603 12
      vertex -42.9366 -19.1166 12
    endloop
  endfacet
  facet normal 0 0 -1
    outer loop
      vertex 44.0166 9.35603 12
      vertex 45.9729 9.77185 12
      vertex 45 0 12
    endloop
  endfacet
  facet normal 0 0 -1
    outer loop
      vertex 44.0166 9.35603 12
      vertex 42.9366 19.1166 12
      vertex 45.9729 9.77185 12
    endloop
  endfacet
  facet normal 0 0 -1
    outer loop
      vertex 41.1095 18.3031 12
      vertex 42.9366 19.1166 12
      vertex 44.0166 9.35603 12
    endloop
  endfacet
  facet normal 0 0 -1
    outer loop
      vertex 41.1095 18.3031 12
      vertex 38.0238 27.6259 12
      vertex 42.9366 19.1166 12
    endloop
  endfacet
  facet normal 0 0 -1
    outer loop
      vertex 36.4058 26.4503 12
      vertex 38.0238 27.6259 12
      vertex 41.1095 18.3031 12
    endloop
  endfacet
  facet normal 0 0 -1
    outer loop
      vertex 36.4058 26.4503 12
      vertex 31.4491 34.9278 12
      vertex 38.0238 27.6259 12
    endloop
  endfacet
  facet normal 0 0 -1
    outer loop
      vertex 30.1109 33.4415 12
      vertex 31.4491 34.9278 12
      vertex 36.4058 26.4503 12
    endloop
  endfacet
  facet normal 0 0 -1
    outer loop
      vertex 30.1109 33.4415 12
      vertex 23.5 40.7032 12
      vertex 31.4491 34.9278 12
    endloop
  endfacet
  facet normal 0 0 -1
    outer loop
      vertex 22.5 38.9711 12
      vertex 23.5 40.7032 12
      vertex 30.1109 33.4415 12
    endloop
  endfacet
  facet normal 0 0 -1
    outer loop
      vertex 22.5 38.9711 12
      vertex 14.5238 44.6997 12
      vertex 23.5 40.7032 12
    endloop
  endfacet
  facet normal 0 0 -1
    outer loop
      vertex 13.9058 42.7975 12
      vertex 14.5238 44.6997 12
      vertex 22.5 38.9711 12
    endloop
  endfacet
  facet normal 0 0 -1
    outer loop
      vertex 13.9058 42.7975 12
      vertex 4.91284 46.7425 12
      vertex 14.5238 44.6997 12
    endloop
  endfacet
  facet normal 0 0 -1
    outer loop
      vertex 4.70378 44.7535 12
      vertex 4.91284 46.7425 12
      vertex 13.9058 42.7975 12
    endloop
  endfacet
  facet normal 0 0 -1
    outer loop
      vertex -4.70378 44.7535 12
      vertex 4.91284 46.7425 12
      vertex 4.70378 44.7535 12
    endloop
  endfacet
  facet normal 0 0 -1
    outer loop
      vertex -4.70378 44.7535 12
      vertex -4.91284 46.7425 12
      vertex 4.91284 46.7425 12
    endloop
  endfacet
  facet normal 0 0 -1
    outer loop
      vertex -13.9058 42.7975 12
      vertex -4.91284 46.7425 12
      vertex -4.70378 44.7535 12
    endloop
  endfacet
  facet normal 0 0 -1
    outer loop
      vertex -13.9058 42.7975 12
      vertex -14.5238 44.6997 12
      vertex -4.91284 46.7425 12
    endloop
  endfacet
  facet normal 0 0 -1
    outer loop
      vertex -22.5 38.9711 12
      vertex -14.5238 44.6997 12
      vertex -13.9058 42.7975 12
    endloop
  endfacet
  facet normal 0 0 -1
    outer loop
      vertex -22.5 38.9711 12
      vertex -23.5 40.7032 12
      vertex -14.5238 44.6997 12
    endloop
  endfacet
  facet normal 0 0 -1
    outer loop
      vertex -30.1109 33.4415 12
      vertex -23.5 40.7032 12
      vertex -22.5 38.9711 12
    endloop
  endfacet
  facet normal 0 0 -1
    outer loop
      vertex -30.1109 33.4415 12
      vertex -31.4491 34.9278 12
      vertex -23.5 40.7032 12
    endloop
  endfacet
  facet normal 0 0 -1
    outer loop
      vertex -36.4058 26.4503 12
      vertex -31.4491 34.9278 12
      vertex -30.1109 33.4415 12
    endloop
  endfacet
  facet normal 0 0 -1
    outer loop
      vertex -36.4058 26.4503 12
      vertex -38.0238 27.6259 12
      vertex -31.4491 34.9278 12
    endloop
  endfacet
  facet normal 0 0 -1
    outer loop
      vertex -41.1095 18.3031 12
      vertex -38.0238 27.6259 12
      vertex -36.4058 26.4503 12
    endloop
  endfacet
  facet normal 0 0 -1
    outer loop
      vertex -41.1095 18.3031 12
      vertex -42.9366 19.1166 12
      vertex -38.0238 27.6259 12
    endloop
  endfacet
  facet normal 0 0 -1
    outer loop
      vertex -44.0166 9.35603 12
      vertex -42.9366 19.1166 12
      vertex -41.1095 18.3031 12
    endloop
  endfacet
  facet normal 0 0 -1
    outer loop
      vertex -44.0166 9.35603 12
      vertex -45.9729 9.77185 12
      vertex -42.9366 19.1166 12
    endloop
  endfacet
  facet normal 0 0 -1
    outer loop
      vertex -45 0 12
      vertex -45.9729 9.77185 12
      vertex -44.0166 9.35603 12
    endloop
  endfacet
  facet normal 0 0 -1
    outer loop
      vertex -47 0 12
      vertex -45 0 12
      vertex -45.9729 -9.77185 12
    endloop
  endfacet
  facet normal 0 0 -1
    outer loop
      vertex -45 0 12
      vertex -47 0 12
      vertex -45.9729 9.77185 12
    endloop
  endfacet
  facet normal -0.951057 -0.309017 0
    outer loop
      vertex -42.9366 -19.1166 12
      vertex -45.9729 -9.77185 19.5
      vertex -45.9729 -9.77185 12
    endloop
  endfacet
  facet normal -0.951057 -0.309017 0
    outer loop
      vertex -45.9729 -9.77185 19.5
      vertex -42.9366 -19.1166 12
      vertex -42.9366 -19.1166 19.5
    endloop
  endfacet
  facet normal 0.743145 -0.66913 0
    outer loop
      vertex 31.4491 -34.9278 19.5
      vertex 38.0238 -27.6259 12
      vertex 38.0238 -27.6259 19.5
    endloop
  endfacet
  facet normal 0.743145 -0.66913 0
    outer loop
      vertex 38.0238 -27.6259 12
      vertex 31.4491 -34.9278 19.5
      vertex 31.4491 -34.9278 12
    endloop
  endfacet
  facet normal -0.207912 -0.978148 0
    outer loop
      vertex -14.5238 -44.6997 12
      vertex -4.91284 -46.7425 19.5
      vertex -14.5238 -44.6997 19.5
    endloop
  endfacet
  facet normal -0.207912 -0.978148 -0
    outer loop
      vertex -4.91284 -46.7425 19.5
      vertex -14.5238 -44.6997 12
      vertex -4.91284 -46.7425 12
    endloop
  endfacet
  facet normal -0.866026 -0.5 0
    outer loop
      vertex 41.1095 18.3031 12
      vertex 36.4058 26.4503 19.5
      vertex 36.4058 26.4503 12
    endloop
  endfacet
  facet normal -0.866026 -0.5 0
    outer loop
      vertex 36.4058 26.4503 19.5
      vertex 41.1095 18.3031 12
      vertex 41.1095 18.3031 19.5
    endloop
  endfacet
  facet normal 0.951057 -0.309017 0
    outer loop
      vertex -44.0166 9.35603 19.5
      vertex -41.1095 18.3031 12
      vertex -41.1095 18.3031 19.5
    endloop
  endfacet
  facet normal 0.951057 -0.309017 0
    outer loop
      vertex -41.1095 18.3031 12
      vertex -44.0166 9.35603 19.5
      vertex -44.0166 9.35603 12
    endloop
  endfacet
  facet normal -0.743145 -0.669131 0
    outer loop
      vertex 36.4058 26.4503 12
      vertex 30.1109 33.4415 19.5
      vertex 30.1109 33.4415 12
    endloop
  endfacet
  facet normal -0.743145 -0.669131 0
    outer loop
      vertex 30.1109 33.4415 19.5
      vertex 36.4058 26.4503 12
      vertex 36.4058 26.4503 19.5
    endloop
  endfacet
  facet normal -0.406737 -0.913545 0
    outer loop
      vertex 13.9058 42.7975 12
      vertex 22.5 38.9711 19.5
      vertex 13.9058 42.7975 19.5
    endloop
  endfacet
  facet normal -0.406737 -0.913545 -0
    outer loop
      vertex 22.5 38.9711 19.5
      vertex 13.9058 42.7975 12
      vertex 22.5 38.9711 12
    endloop
  endfacet
  facet normal 0.207912 -0.978148 0
    outer loop
      vertex -13.9058 42.7975 12
      vertex -4.70378 44.7535 19.5
      vertex -13.9058 42.7975 19.5
    endloop
  endfacet
  facet normal 0.207912 -0.978148 0
    outer loop
      vertex -4.70378 44.7535 19.5
      vertex -13.9058 42.7975 12
      vertex -4.70378 44.7535 12
    endloop
  endfacet
  facet normal 0.866026 -0.5 0
    outer loop
      vertex -41.1095 18.3031 19.5
      vertex -36.4058 26.4503 12
      vertex -36.4058 26.4503 19.5
    endloop
  endfacet
  facet normal 0.866026 -0.5 0
    outer loop
      vertex -36.4058 26.4503 12
      vertex -41.1095 18.3031 19.5
      vertex -41.1095 18.3031 12
    endloop
  endfacet
  facet normal -0.994522 0.104529 0
    outer loop
      vertex 44.0166 -9.35603 12
      vertex 45 0 19.5
      vertex 45 0 12
    endloop
  endfacet
  facet normal -0.994522 0.104529 0
    outer loop
      vertex 45 0 19.5
      vertex 44.0166 -9.35603 12
      vertex 44.0166 -9.35603 19.5
    endloop
  endfacet
  facet normal -0.951057 -0.309017 0
    outer loop
      vertex 44.0166 9.35603 12
      vertex 41.1095 18.3031 19.5
      vertex 41.1095 18.3031 12
    endloop
  endfacet
  facet normal -0.951057 -0.309017 0
    outer loop
      vertex 41.1095 18.3031 19.5
      vertex 44.0166 9.35603 12
      vertex 44.0166 9.35603 19.5
    endloop
  endfacet
  facet normal 0 -1 0
    outer loop
      vertex -4.70378 44.7535 12
      vertex 4.70378 44.7535 19.5
      vertex -4.70378 44.7535 19.5
    endloop
  endfacet
  facet normal 0 -1 -0
    outer loop
      vertex 4.70378 44.7535 19.5
      vertex -4.70378 44.7535 12
      vertex 4.70378 44.7535 12
    endloop
  endfacet
  facet normal -0.587785 -0.809017 0
    outer loop
      vertex 22.5 38.9711 12
      vertex 30.1109 33.4415 19.5
      vertex 22.5 38.9711 19.5
    endloop
  endfacet
  facet normal -0.587785 -0.809017 -0
    outer loop
      vertex 30.1109 33.4415 19.5
      vertex 22.5 38.9711 12
      vertex 30.1109 33.4415 12
    endloop
  endfacet
  facet normal 0.994522 -0.104529 0
    outer loop
      vertex -45 0 19.5
      vertex -44.0166 9.35603 12
      vertex -44.0166 9.35603 19.5
    endloop
  endfacet
  facet normal 0.994522 -0.104529 0
    outer loop
      vertex -44.0166 9.35603 12
      vertex -45 0 19.5
      vertex -45 0 12
    endloop
  endfacet
  facet normal 0.743145 -0.669131 0
    outer loop
      vertex -36.4058 26.4503 19.5
      vertex -30.1109 33.4415 12
      vertex -30.1109 33.4415 19.5
    endloop
  endfacet
  facet normal 0.743145 -0.669131 0
    outer loop
      vertex -30.1109 33.4415 12
      vertex -36.4058 26.4503 19.5
      vertex -36.4058 26.4503 12
    endloop
  endfacet
  facet normal 0.406737 -0.913545 0
    outer loop
      vertex -22.5 38.9711 12
      vertex -13.9058 42.7975 19.5
      vertex -22.5 38.9711 19.5
    endloop
  endfacet
  facet normal 0.406737 -0.913545 0
    outer loop
      vertex -13.9058 42.7975 19.5
      vertex -22.5 38.9711 12
      vertex -13.9058 42.7975 12
    endloop
  endfacet
  facet normal 0.587785 -0.809017 0
    outer loop
      vertex -30.1109 33.4415 12
      vertex -22.5 38.9711 19.5
      vertex -30.1109 33.4415 19.5
    endloop
  endfacet
  facet normal 0.587785 -0.809017 0
    outer loop
      vertex -22.5 38.9711 19.5
      vertex -30.1109 33.4415 12
      vertex -22.5 38.9711 12
    endloop
  endfacet
  facet normal -0.994522 -0.104529 0
    outer loop
      vertex 45 0 12
      vertex 44.0166 9.35603 19.5
      vertex 44.0166 9.35603 12
    endloop
  endfacet
  facet normal -0.994522 -0.104529 0
    outer loop
      vertex 44.0166 9.35603 19.5
      vertex 45 0 12
      vertex 45 0 19.5
    endloop
  endfacet
  facet normal -0.951057 0.309017 0
    outer loop
      vertex 41.1095 -18.3031 12
      vertex 44.0166 -9.35603 19.5
      vertex 44.0166 -9.35603 12
    endloop
  endfacet
  facet normal -0.951057 0.309017 0
    outer loop
      vertex 44.0166 -9.35603 19.5
      vertex 41.1095 -18.3031 12
      vertex 41.1095 -18.3031 19.5
    endloop
  endfacet
  facet normal 0.587785 0.809017 -0
    outer loop
      vertex -22.5 -38.9711 12
      vertex -30.1109 -33.4415 19.5
      vertex -22.5 -38.9711 19.5
    endloop
  endfacet
  facet normal 0.587785 0.809017 0
    outer loop
      vertex -30.1109 -33.4415 19.5
      vertex -22.5 -38.9711 12
      vertex -30.1109 -33.4415 12
    endloop
  endfacet
  facet normal 0.866026 0.5 0
    outer loop
      vertex -36.4058 -26.4503 19.5
      vertex -41.1095 -18.3031 12
      vertex -41.1095 -18.3031 19.5
    endloop
  endfacet
  facet normal 0.866026 0.5 0
    outer loop
      vertex -41.1095 -18.3031 12
      vertex -36.4058 -26.4503 19.5
      vertex -36.4058 -26.4503 12
    endloop
  endfacet
  facet normal -0.587785 0.809017 0
    outer loop
      vertex 30.1109 -33.4415 12
      vertex 22.5 -38.9711 19.5
      vertex 30.1109 -33.4415 19.5
    endloop
  endfacet
  facet normal -0.587785 0.809017 0
    outer loop
      vertex 22.5 -38.9711 19.5
      vertex 30.1109 -33.4415 12
      vertex 22.5 -38.9711 12
    endloop
  endfacet
  facet normal -0.207912 -0.978148 0
    outer loop
      vertex 4.70378 44.7535 12
      vertex 13.9058 42.7975 19.5
      vertex 4.70378 44.7535 19.5
    endloop
  endfacet
  facet normal -0.207912 -0.978148 -0
    outer loop
      vertex 13.9058 42.7975 19.5
      vertex 4.70378 44.7535 12
      vertex 13.9058 42.7975 12
    endloop
  endfacet
  facet normal -0.866026 0.5 0
    outer loop
      vertex 36.4058 -26.4503 12
      vertex 41.1095 -18.3031 19.5
      vertex 41.1095 -18.3031 12
    endloop
  endfacet
  facet normal -0.866026 0.5 0
    outer loop
      vertex 41.1095 -18.3031 19.5
      vertex 36.4058 -26.4503 12
      vertex 36.4058 -26.4503 19.5
    endloop
  endfacet
  facet normal 0.994522 0.104529 0
    outer loop
      vertex -44.0166 -9.35603 19.5
      vertex -45 0 12
      vertex -45 0 19.5
    endloop
  endfacet
  facet normal 0.994522 0.104529 0
    outer loop
      vertex -45 0 12
      vertex -44.0166 -9.35603 19.5
      vertex -44.0166 -9.35603 12
    endloop
  endfacet
  facet normal 0.743145 0.669131 0
    outer loop
      vertex -30.1109 -33.4415 19.5
      vertex -36.4058 -26.4503 12
      vertex -36.4058 -26.4503 19.5
    endloop
  endfacet
  facet normal 0.743145 0.669131 0
    outer loop
      vertex -36.4058 -26.4503 12
      vertex -30.1109 -33.4415 19.5
      vertex -30.1109 -33.4415 12
    endloop
  endfacet
  facet normal -0.207912 0.978148 0
    outer loop
      vertex 13.9058 -42.7975 12
      vertex 4.70378 -44.7535 19.5
      vertex 13.9058 -42.7975 19.5
    endloop
  endfacet
  facet normal -0.207912 0.978148 0
    outer loop
      vertex 4.70378 -44.7535 19.5
      vertex 13.9058 -42.7975 12
      vertex 4.70378 -44.7535 12
    endloop
  endfacet
  facet normal -0.406737 0.913545 0
    outer loop
      vertex 22.5 -38.9711 12
      vertex 13.9058 -42.7975 19.5
      vertex 22.5 -38.9711 19.5
    endloop
  endfacet
  facet normal -0.406737 0.913545 0
    outer loop
      vertex 13.9058 -42.7975 19.5
      vertex 22.5 -38.9711 12
      vertex 13.9058 -42.7975 12
    endloop
  endfacet
  facet normal 0.406737 0.913545 -0
    outer loop
      vertex -13.9058 -42.7975 12
      vertex -22.5 -38.9711 19.5
      vertex -13.9058 -42.7975 19.5
    endloop
  endfacet
  facet normal 0.406737 0.913545 0
    outer loop
      vertex -22.5 -38.9711 19.5
      vertex -13.9058 -42.7975 12
      vertex -22.5 -38.9711 12
    endloop
  endfacet
  facet normal 0 1 -0
    outer loop
      vertex 4.70378 -44.7535 12
      vertex -4.70378 -44.7535 19.5
      vertex 4.70378 -44.7535 19.5
    endloop
  endfacet
  facet normal 0 1 0
    outer loop
      vertex -4.70378 -44.7535 19.5
      vertex 4.70378 -44.7535 12
      vertex -4.70378 -44.7535 12
    endloop
  endfacet
  facet normal 0.951057 0.309017 0
    outer loop
      vertex -41.1095 -18.3031 19.5
      vertex -44.0166 -9.35603 12
      vertex -44.0166 -9.35603 19.5
    endloop
  endfacet
  facet normal 0.951057 0.309017 0
    outer loop
      vertex -44.0166 -9.35603 12
      vertex -41.1095 -18.3031 19.5
      vertex -41.1095 -18.3031 12
    endloop
  endfacet
  facet normal -0.743145 0.669131 0
    outer loop
      vertex 30.1109 -33.4415 12
      vertex 36.4058 -26.4503 19.5
      vertex 36.4058 -26.4503 12
    endloop
  endfacet
  facet normal -0.743145 0.669131 0
    outer loop
      vertex 36.4058 -26.4503 19.5
      vertex 30.1109 -33.4415 12
      vertex 30.1109 -33.4415 19.5
    endloop
  endfacet
  facet normal 0.207912 0.978148 -0
    outer loop
      vertex -4.70378 -44.7535 12
      vertex -13.9058 -42.7975 19.5
      vertex -4.70378 -44.7535 19.5
    endloop
  endfacet
  facet normal 0.207912 0.978148 0
    outer loop
      vertex -13.9058 -42.7975 19.5
      vertex -4.70378 -44.7535 12
      vertex -13.9058 -42.7975 12
    endloop
  endfacet
  facet normal 0.994522 0.104529 0
    outer loop
      vertex 50 0 24.5
      vertex 48.9074 10.3956 19.5
      vertex 48.9074 10.3956 24.5
    endloop
  endfacet
  facet normal 0.994522 0.104529 0
    outer loop
      vertex 48.9074 10.3956 19.5
      vertex 50 0 24.5
      vertex 50 0 19.5
    endloop
  endfacet
  facet normal -0.994522 0.104529 0
    outer loop
      vertex -50 0 19.5
      vertex -48.9074 10.3956 24.5
      vertex -48.9074 10.3956 19.5
    endloop
  endfacet
  facet normal -0.994522 0.104529 0
    outer loop
      vertex -48.9074 10.3956 24.5
      vertex -50 0 19.5
      vertex -50 0 24.5
    endloop
  endfacet
  facet normal 0 1 -0
    outer loop
      vertex 5.22642 49.7261 19.5
      vertex -5.22642 49.7261 24.5
      vertex 5.22642 49.7261 24.5
    endloop
  endfacet
  facet normal 0 1 0
    outer loop
      vertex -5.22642 49.7261 24.5
      vertex 5.22642 49.7261 19.5
      vertex -5.22642 49.7261 19.5
    endloop
  endfacet
  facet normal 0 -1 0
    outer loop
      vertex -5.22642 -49.7261 19.5
      vertex 5.22642 -49.7261 24.5
      vertex -5.22642 -49.7261 24.5
    endloop
  endfacet
  facet normal 0 -1 -0
    outer loop
      vertex 5.22642 -49.7261 24.5
      vertex -5.22642 -49.7261 19.5
      vertex 5.22642 -49.7261 19.5
    endloop
  endfacet
  facet normal 0.587785 0.809017 -0
    outer loop
      vertex 33.4565 37.1572 19.5
      vertex 25 43.3013 24.5
      vertex 33.4565 37.1572 24.5
    endloop
  endfacet
  facet normal 0.587785 0.809017 0
    outer loop
      vertex 25 43.3013 24.5
      vertex 33.4565 37.1572 19.5
      vertex 25 43.3013 19.5
    endloop
  endfacet
  facet normal -0.743145 0.669131 0
    outer loop
      vertex -40.4509 29.3893 19.5
      vertex -33.4565 37.1572 24.5
      vertex -33.4565 37.1572 19.5
    endloop
  endfacet
  facet normal -0.743145 0.669131 0
    outer loop
      vertex -33.4565 37.1572 24.5
      vertex -40.4509 29.3893 19.5
      vertex -40.4509 29.3893 24.5
    endloop
  endfacet
  facet normal -0.866025 0.5 0
    outer loop
      vertex -45.6773 20.3368 19.5
      vertex -40.4509 29.3893 24.5
      vertex -40.4509 29.3893 19.5
    endloop
  endfacet
  facet normal -0.866025 0.5 0
    outer loop
      vertex -40.4509 29.3893 24.5
      vertex -45.6773 20.3368 19.5
      vertex -45.6773 20.3368 24.5
    endloop
  endfacet
  facet normal -0.406737 0.913545 0
    outer loop
      vertex -15.4508 47.5528 19.5
      vertex -25 43.3013 24.5
      vertex -15.4508 47.5528 24.5
    endloop
  endfacet
  facet normal -0.406737 0.913545 0
    outer loop
      vertex -25 43.3013 24.5
      vertex -15.4508 47.5528 19.5
      vertex -25 43.3013 19.5
    endloop
  endfacet
  facet normal 0.951057 -0.309017 0
    outer loop
      vertex 45.6773 -20.3368 24.5
      vertex 48.9074 -10.3956 19.5
      vertex 48.9074 -10.3956 24.5
    endloop
  endfacet
  facet normal 0.951057 -0.309017 0
    outer loop
      vertex 48.9074 -10.3956 19.5
      vertex 45.6773 -20.3368 24.5
      vertex 45.6773 -20.3368 19.5
    endloop
  endfacet
  facet normal 0.866025 0.5 0
    outer loop
      vertex 45.6773 20.3368 24.5
      vertex 40.4509 29.3893 19.5
      vertex 40.4509 29.3893 24.5
    endloop
  endfacet
  facet normal 0.866025 0.5 0
    outer loop
      vertex 40.4509 29.3893 19.5
      vertex 45.6773 20.3368 24.5
      vertex 45.6773 20.3368 19.5
    endloop
  endfacet
  facet normal 0.951057 0.309017 0
    outer loop
      vertex 48.9074 10.3956 24.5
      vertex 45.6773 20.3368 19.5
      vertex 45.6773 20.3368 24.5
    endloop
  endfacet
  facet normal 0.951057 0.309017 0
    outer loop
      vertex 45.6773 20.3368 19.5
      vertex 48.9074 10.3956 24.5
      vertex 48.9074 10.3956 19.5
    endloop
  endfacet
  facet normal 0.743145 0.669131 0
    outer loop
      vertex 40.4509 29.3893 24.5
      vertex 33.4565 37.1572 19.5
      vertex 33.4565 37.1572 24.5
    endloop
  endfacet
  facet normal 0.743145 0.669131 0
    outer loop
      vertex 33.4565 37.1572 19.5
      vertex 40.4509 29.3893 24.5
      vertex 40.4509 29.3893 19.5
    endloop
  endfacet
  facet normal 0.207912 0.978148 -0
    outer loop
      vertex 15.4508 47.5528 19.5
      vertex 5.22642 49.7261 24.5
      vertex 15.4508 47.5528 24.5
    endloop
  endfacet
  facet normal 0.207912 0.978148 0
    outer loop
      vertex 5.22642 49.7261 24.5
      vertex 15.4508 47.5528 19.5
      vertex 5.22642 49.7261 19.5
    endloop
  endfacet
  facet normal 0.406737 0.913545 -0
    outer loop
      vertex 25 43.3013 19.5
      vertex 15.4508 47.5528 24.5
      vertex 25 43.3013 24.5
    endloop
  endfacet
  facet normal 0.406737 0.913545 0
    outer loop
      vertex 15.4508 47.5528 24.5
      vertex 25 43.3013 19.5
      vertex 15.4508 47.5528 19.5
    endloop
  endfacet
  facet normal -0.951057 0.309017 0
    outer loop
      vertex -48.9074 10.3956 19.5
      vertex -45.6773 20.3368 24.5
      vertex -45.6773 20.3368 19.5
    endloop
  endfacet
  facet normal -0.951057 0.309017 0
    outer loop
      vertex -45.6773 20.3368 24.5
      vertex -48.9074 10.3956 19.5
      vertex -48.9074 10.3956 24.5
    endloop
  endfacet
  facet normal 0 0 1
    outer loop
      vertex 48.9074 10.3956 24.5
      vertex 48.9074 -10.3956 24.5
      vertex 50 0 24.5
    endloop
  endfacet
  facet normal 0 0 1
    outer loop
      vertex 45.6773 20.3368 24.5
      vertex 48.9074 -10.3956 24.5
      vertex 48.9074 10.3956 24.5
    endloop
  endfacet
  facet normal 0 0 1
    outer loop
      vertex 45.6773 20.3368 24.5
      vertex 45.6773 -20.3368 24.5
      vertex 48.9074 -10.3956 24.5
    endloop
  endfacet
  facet normal 0 0 1
    outer loop
      vertex 40.4509 29.3893 24.5
      vertex 45.6773 -20.3368 24.5
      vertex 45.6773 20.3368 24.5
    endloop
  endfacet
  facet normal 0 0 1
    outer loop
      vertex 40.4509 29.3893 24.5
      vertex 40.4509 -29.3893 24.5
      vertex 45.6773 -20.3368 24.5
    endloop
  endfacet
  facet normal 0 0 1
    outer loop
      vertex 33.4565 37.1572 24.5
      vertex 40.4509 -29.3893 24.5
      vertex 40.4509 29.3893 24.5
    endloop
  endfacet
  facet normal 0 0 1
    outer loop
      vertex 33.4565 37.1572 24.5
      vertex 33.4565 -37.1572 24.5
      vertex 40.4509 -29.3893 24.5
    endloop
  endfacet
  facet normal 0 0 1
    outer loop
      vertex 25 43.3013 24.5
      vertex 33.4565 -37.1572 24.5
      vertex 33.4565 37.1572 24.5
    endloop
  endfacet
  facet normal 0 0 1
    outer loop
      vertex 25 43.3013 24.5
      vertex 25 -43.3013 24.5
      vertex 33.4565 -37.1572 24.5
    endloop
  endfacet
  facet normal 0 0 1
    outer loop
      vertex 15.4508 47.5528 24.5
      vertex 25 -43.3013 24.5
      vertex 25 43.3013 24.5
    endloop
  endfacet
  facet normal 0 0 1
    outer loop
      vertex 15.4508 47.5528 24.5
      vertex 15.4508 -47.5528 24.5
      vertex 25 -43.3013 24.5
    endloop
  endfacet
  facet normal 0 0 1
    outer loop
      vertex 5.22642 49.7261 24.5
      vertex 15.4508 -47.5528 24.5
      vertex 15.4508 47.5528 24.5
    endloop
  endfacet
  facet normal 0 0 1
    outer loop
      vertex 5.22642 49.7261 24.5
      vertex 5.22642 -49.7261 24.5
      vertex 15.4508 -47.5528 24.5
    endloop
  endfacet
  facet normal -0 0 1
    outer loop
      vertex -5.22642 49.7261 24.5
      vertex 5.22642 -49.7261 24.5
      vertex 5.22642 49.7261 24.5
    endloop
  endfacet
  facet normal 0 0 1
    outer loop
      vertex -5.22642 49.7261 24.5
      vertex -5.22642 -49.7261 24.5
      vertex 5.22642 -49.7261 24.5
    endloop
  endfacet
  facet normal -0 0 1
    outer loop
      vertex -15.4508 47.5528 24.5
      vertex -5.22642 -49.7261 24.5
      vertex -5.22642 49.7261 24.5
    endloop
  endfacet
  facet normal 0 0 1
    outer loop
      vertex -15.4508 47.5528 24.5
      vertex -15.4508 -47.5528 24.5
      vertex -5.22642 -49.7261 24.5
    endloop
  endfacet
  facet normal -0 0 1
    outer loop
      vertex -25 43.3013 24.5
      vertex -15.4508 -47.5528 24.5
      vertex -15.4508 47.5528 24.5
    endloop
  endfacet
  facet normal 0 0 1
    outer loop
      vertex -25 43.3013 24.5
      vertex -25 -43.3013 24.5
      vertex -15.4508 -47.5528 24.5
    endloop
  endfacet
  facet normal -0 0 1
    outer loop
      vertex -33.4565 37.1572 24.5
      vertex -25 -43.3013 24.5
      vertex -25 43.3013 24.5
    endloop
  endfacet
  facet normal 0 0 1
    outer loop
      vertex -33.4565 37.1572 24.5
      vertex -33.4565 -37.1572 24.5
      vertex -25 -43.3013 24.5
    endloop
  endfacet
  facet normal -0 0 1
    outer loop
      vertex -40.4509 29.3893 24.5
      vertex -33.4565 -37.1572 24.5
      vertex -33.4565 37.1572 24.5
    endloop
  endfacet
  facet normal 0 0 1
    outer loop
      vertex -40.4509 29.3893 24.5
      vertex -40.4509 -29.3893 24.5
      vertex -33.4565 -37.1572 24.5
    endloop
  endfacet
  facet normal -0 0 1
    outer loop
      vertex -45.6773 20.3368 24.5
      vertex -40.4509 -29.3893 24.5
      vertex -40.4509 29.3893 24.5
    endloop
  endfacet
  facet normal 0 0 1
    outer loop
      vertex -45.6773 20.3368 24.5
      vertex -45.6773 -20.3368 24.5
      vertex -40.4509 -29.3893 24.5
    endloop
  endfacet
  facet normal -0 0 1
    outer loop
      vertex -48.9074 10.3956 24.5
      vertex -45.6773 -20.3368 24.5
      vertex -45.6773 20.3368 24.5
    endloop
  endfacet
  facet normal 0 0 1
    outer loop
      vertex -48.9074 10.3956 24.5
      vertex -48.9074 -10.3956 24.5
      vertex -45.6773 -20.3368 24.5
    endloop
  endfacet
  facet normal 0 -0 1
    outer loop
      vertex -48.9074 -10.3956 24.5
      vertex -48.9074 10.3956 24.5
      vertex -50 0 24.5
    endloop
  endfacet
  facet normal -0.587785 0.809017 0
    outer loop
      vertex -25 43.3013 19.5
      vertex -33.4565 37.1572 24.5
      vertex -25 43.3013 24.5
    endloop
  endfacet
  facet normal -0.587785 0.809017 0
    outer loop
      vertex -33.4565 37.1572 24.5
      vertex -25 43.3013 19.5
      vertex -33.4565 37.1572 19.5
    endloop
  endfacet
  facet normal -0.207912 0.978148 0
    outer loop
      vertex -5.22642 49.7261 19.5
      vertex -15.4508 47.5528 24.5
      vertex -5.22642 49.7261 24.5
    endloop
  endfacet
  facet normal -0.207912 0.978148 0
    outer loop
      vertex -15.4508 47.5528 24.5
      vertex -5.22642 49.7261 19.5
      vertex -15.4508 47.5528 19.5
    endloop
  endfacet
  facet normal 0.994522 -0.104529 0
    outer loop
      vertex 48.9074 -10.3956 24.5
      vertex 50 0 19.5
      vertex 50 0 24.5
    endloop
  endfacet
  facet normal 0.994522 -0.104529 0
    outer loop
      vertex 50 0 19.5
      vertex 48.9074 -10.3956 24.5
      vertex 48.9074 -10.3956 19.5
    endloop
  endfacet
  facet normal 0 0 -1
    outer loop
      vertex 47 0 19.5
      vertex 50 0 19.5
      vertex 48.9074 -10.3956 19.5
    endloop
  endfacet
  facet normal 0 0 -1
    outer loop
      vertex 50 0 19.5
      vertex 47 0 19.5
      vertex 48.9074 10.3956 19.5
    endloop
  endfacet
  facet normal 0 0 -1
    outer loop
      vertex 48.9074 -10.3956 19.5
      vertex 45.9729 -9.77185 19.5
      vertex 47 0 19.5
    endloop
  endfacet
  facet normal 0 0 -1
    outer loop
      vertex 45.6773 -20.3368 19.5
      vertex 45.9729 -9.77185 19.5
      vertex 48.9074 -10.3956 19.5
    endloop
  endfacet
  facet normal 0 0 -1
    outer loop
      vertex 45.6773 -20.3368 19.5
      vertex 42.9366 -19.1166 19.5
      vertex 45.9729 -9.77185 19.5
    endloop
  endfacet
  facet normal 0 0 -1
    outer loop
      vertex 40.4509 -29.3893 19.5
      vertex 42.9366 -19.1166 19.5
      vertex 45.6773 -20.3368 19.5
    endloop
  endfacet
  facet normal 0 0 -1
    outer loop
      vertex 40.4509 -29.3893 19.5
      vertex 38.0238 -27.6259 19.5
      vertex 42.9366 -19.1166 19.5
    endloop
  endfacet
  facet normal 0 0 -1
    outer loop
      vertex 33.4565 -37.1572 19.5
      vertex 38.0238 -27.6259 19.5
      vertex 40.4509 -29.3893 19.5
    endloop
  endfacet
  facet normal 0 0 -1
    outer loop
      vertex 33.4565 -37.1572 19.5
      vertex 31.4491 -34.9278 19.5
      vertex 38.0238 -27.6259 19.5
    endloop
  endfacet
  facet normal 0 0 -1
    outer loop
      vertex 25 -43.3013 19.5
      vertex 31.4491 -34.9278 19.5
      vertex 33.4565 -37.1572 19.5
    endloop
  endfacet
  facet normal 0 0 -1
    outer loop
      vertex 25 -43.3013 19.5
      vertex 23.5 -40.7032 19.5
      vertex 31.4491 -34.9278 19.5
    endloop
  endfacet
  facet normal 0 0 -1
    outer loop
      vertex 15.4508 -47.5528 19.5
      vertex 23.5 -40.7032 19.5
      vertex 25 -43.3013 19.5
    endloop
  endfacet
  facet normal 0 0 -1
    outer loop
      vertex 15.4508 -47.5528 19.5
      vertex 14.5238 -44.6997 19.5
      vertex 23.5 -40.7032 19.5
    endloop
  endfacet
  facet normal 0 0 -1
    outer loop
      vertex 5.22642 -49.7261 19.5
      vertex 14.5238 -44.6997 19.5
      vertex 15.4508 -47.5528 19.5
    endloop
  endfacet
  facet normal 0 0 -1
    outer loop
      vertex 5.22642 -49.7261 19.5
      vertex 4.91284 -46.7425 19.5
      vertex 14.5238 -44.6997 19.5
    endloop
  endfacet
  facet normal 0 0 -1
    outer loop
      vertex 5.22642 -49.7261 19.5
      vertex -4.91284 -46.7425 19.5
      vertex 4.91284 -46.7425 19.5
    endloop
  endfacet
  facet normal 0 0 -1
    outer loop
      vertex -5.22642 -49.7261 19.5
      vertex -4.91284 -46.7425 19.5
      vertex 5.22642 -49.7261 19.5
    endloop
  endfacet
  facet normal 0 0 -1
    outer loop
      vertex -5.22642 -49.7261 19.5
      vertex -14.5238 -44.6997 19.5
      vertex -4.91284 -46.7425 19.5
    endloop
  endfacet
  facet normal 0 0 -1
    outer loop
      vertex -15.4508 -47.5528 19.5
      vertex -14.5238 -44.6997 19.5
      vertex -5.22642 -49.7261 19.5
    endloop
  endfacet
  facet normal 0 0 -1
    outer loop
      vertex -15.4508 -47.5528 19.5
      vertex -23.5 -40.7032 19.5
      vertex -14.5238 -44.6997 19.5
    endloop
  endfacet
  facet normal 0 0 -1
    outer loop
      vertex -25 -43.3013 19.5
      vertex -23.5 -40.7032 19.5
      vertex -15.4508 -47.5528 19.5
    endloop
  endfacet
  facet normal 0 0 -1
    outer loop
      vertex -25 -43.3013 19.5
      vertex -31.4491 -34.9278 19.5
      vertex -23.5 -40.7032 19.5
    endloop
  endfacet
  facet normal 0 0 -1
    outer loop
      vertex -33.4565 -37.1572 19.5
      vertex -31.4491 -34.9278 19.5
      vertex -25 -43.3013 19.5
    endloop
  endfacet
  facet normal 0 0 -1
    outer loop
      vertex -33.4565 -37.1572 19.5
      vertex -38.0238 -27.6259 19.5
      vertex -31.4491 -34.9278 19.5
    endloop
  endfacet
  facet normal 0 0 -1
    outer loop
      vertex -40.4509 -29.3893 19.5
      vertex -38.0238 -27.6259 19.5
      vertex -33.4565 -37.1572 19.5
    endloop
  endfacet
  facet normal 0 0 -1
    outer loop
      vertex -40.4509 -29.3893 19.5
      vertex -42.9366 -19.1166 19.5
      vertex -38.0238 -27.6259 19.5
    endloop
  endfacet
  facet normal 0 0 -1
    outer loop
      vertex -45.6773 -20.3368 19.5
      vertex -42.9366 -19.1166 19.5
      vertex -40.4509 -29.3893 19.5
    endloop
  endfacet
  facet normal 0 0 -1
    outer loop
      vertex -45.6773 -20.3368 19.5
      vertex -45.9729 -9.77185 19.5
      vertex -42.9366 -19.1166 19.5
    endloop
  endfacet
  facet normal 0 0 -1
    outer loop
      vertex -48.9074 -10.3956 19.5
      vertex -45.9729 -9.77185 19.5
      vertex -45.6773 -20.3368 19.5
    endloop
  endfacet
  facet normal -0 0 -1
    outer loop
      vertex -45.9729 -9.77185 19.5
      vertex -48.9074 -10.3956 19.5
      vertex -47 0 19.5
    endloop
  endfacet
  facet normal 0 0 -1
    outer loop
      vertex 45.9729 9.77185 19.5
      vertex 48.9074 10.3956 19.5
      vertex 47 0 19.5
    endloop
  endfacet
  facet normal 0 0 -1
    outer loop
      vertex 45.9729 9.77185 19.5
      vertex 45.6773 20.3368 19.5
      vertex 48.9074 10.3956 19.5
    endloop
  endfacet
  facet normal 0 0 -1
    outer loop
      vertex 42.9366 19.1166 19.5
      vertex 45.6773 20.3368 19.5
      vertex 45.9729 9.77185 19.5
    endloop
  endfacet
  facet normal 0 0 -1
    outer loop
      vertex 42.9366 19.1166 19.5
      vertex 40.4509 29.3893 19.5
      vertex 45.6773 20.3368 19.5
    endloop
  endfacet
  facet normal 0 0 -1
    outer loop
      vertex 38.0238 27.6259 19.5
      vertex 40.4509 29.3893 19.5
      vertex 42.9366 19.1166 19.5
    endloop
  endfacet
  facet normal 0 0 -1
    outer loop
      vertex 38.0238 27.6259 19.5
      vertex 33.4565 37.1572 19.5
      vertex 40.4509 29.3893 19.5
    endloop
  endfacet
  facet normal 0 0 -1
    outer loop
      vertex 31.4491 34.9278 19.5
      vertex 33.4565 37.1572 19.5
      vertex 38.0238 27.6259 19.5
    endloop
  endfacet
  facet normal 0 0 -1
    outer loop
      vertex 31.4491 34.9278 19.5
      vertex 25 43.3013 19.5
      vertex 33.4565 37.1572 19.5
    endloop
  endfacet
  facet normal 0 0 -1
    outer loop
      vertex 23.5 40.7032 19.5
      vertex 25 43.3013 19.5
      vertex 31.4491 34.9278 19.5
    endloop
  endfacet
  facet normal 0 0 -1
    outer loop
      vertex 23.5 40.7032 19.5
      vertex 15.4508 47.5528 19.5
      vertex 25 43.3013 19.5
    endloop
  endfacet
  facet normal 0 0 -1
    outer loop
      vertex 14.5238 44.6997 19.5
      vertex 15.4508 47.5528 19.5
      vertex 23.5 40.7032 19.5
    endloop
  endfacet
  facet normal 0 0 -1
    outer loop
      vertex 14.5238 44.6997 19.5
      vertex 5.22642 49.7261 19.5
      vertex 15.4508 47.5528 19.5
    endloop
  endfacet
  facet normal 0 0 -1
    outer loop
      vertex 4.91284 46.7425 19.5
      vertex 5.22642 49.7261 19.5
      vertex 14.5238 44.6997 19.5
    endloop
  endfacet
  facet normal 0 0 -1
    outer loop
      vertex -4.91284 46.7425 19.5
      vertex 5.22642 49.7261 19.5
      vertex 4.91284 46.7425 19.5
    endloop
  endfacet
  facet normal 0 0 -1
    outer loop
      vertex -4.91284 46.7425 19.5
      vertex -5.22642 49.7261 19.5
      vertex 5.22642 49.7261 19.5
    endloop
  endfacet
  facet normal 0 0 -1
    outer loop
      vertex -14.5238 44.6997 19.5
      vertex -5.22642 49.7261 19.5
      vertex -4.91284 46.7425 19.5
    endloop
  endfacet
  facet normal 0 0 -1
    outer loop
      vertex -14.5238 44.6997 19.5
      vertex -15.4508 47.5528 19.5
      vertex -5.22642 49.7261 19.5
    endloop
  endfacet
  facet normal 0 0 -1
    outer loop
      vertex -23.5 40.7032 19.5
      vertex -15.4508 47.5528 19.5
      vertex -14.5238 44.6997 19.5
    endloop
  endfacet
  facet normal 0 0 -1
    outer loop
      vertex -23.5 40.7032 19.5
      vertex -25 43.3013 19.5
      vertex -15.4508 47.5528 19.5
    endloop
  endfacet
  facet normal 0 0 -1
    outer loop
      vertex -31.4491 34.9278 19.5
      vertex -25 43.3013 19.5
      vertex -23.5 40.7032 19.5
    endloop
  endfacet
  facet normal 0 0 -1
    outer loop
      vertex -31.4491 34.9278 19.5
      vertex -33.4565 37.1572 19.5
      vertex -25 43.3013 19.5
    endloop
  endfacet
  facet normal 0 0 -1
    outer loop
      vertex -38.0238 27.6259 19.5
      vertex -33.4565 37.1572 19.5
      vertex -31.4491 34.9278 19.5
    endloop
  endfacet
  facet normal 0 0 -1
    outer loop
      vertex -38.0238 27.6259 19.5
      vertex -40.4509 29.3893 19.5
      vertex -33.4565 37.1572 19.5
    endloop
  endfacet
  facet normal 0 0 -1
    outer loop
      vertex -42.9366 19.1166 19.5
      vertex -40.4509 29.3893 19.5
      vertex -38.0238 27.6259 19.5
    endloop
  endfacet
  facet normal 0 0 -1
    outer loop
      vertex -42.9366 19.1166 19.5
      vertex -45.6773 20.3368 19.5
      vertex -40.4509 29.3893 19.5
    endloop
  endfacet
  facet normal 0 0 -1
    outer loop
      vertex -45.9729 9.77185 19.5
      vertex -45.6773 20.3368 19.5
      vertex -42.9366 19.1166 19.5
    endloop
  endfacet
  facet normal 0 0 -1
    outer loop
      vertex -48.9074 10.3956 19.5
      vertex -45.9729 9.77185 19.5
      vertex -47 0 19.5
    endloop
  endfacet
  facet normal 0 0 -1
    outer loop
      vertex -50 0 19.5
      vertex -47 0 19.5
      vertex -48.9074 -10.3956 19.5
    endloop
  endfacet
  facet normal 0 0 -1
    outer loop
      vertex -45.9729 9.77185 19.5
      vertex -48.9074 10.3956 19.5
      vertex -45.6773 20.3368 19.5
    endloop
  endfacet
  facet normal 0 0 -1
    outer loop
      vertex -47 0 19.5
      vertex -50 0 19.5
      vertex -48.9074 10.3956 19.5
    endloop
  endfacet
  facet normal 0 0 -1
    outer loop
      vertex -13.9058 42.7975 19.5
      vertex -27.5729 1.76336 19.5
      vertex -22.5 38.9711 19.5
    endloop
  endfacet
  facet normal 0 0 -1
    outer loop
      vertex -30.1109 33.4415 19.5
      vertex -27.5729 1.76336 19.5
      vertex -29.0729 2.85317 19.5
    endloop
  endfacet
  facet normal 0 0 -1
    outer loop
      vertex -27.5729 1.76336 19.5
      vertex -30.1109 33.4415 19.5
      vertex -22.5 38.9711 19.5
    endloop
  endfacet
  facet normal 0 0 -1
    outer loop
      vertex -41.1095 18.3031 19.5
      vertex -29.0729 2.85317 19.5
      vertex -30.9271 2.85317 19.5
    endloop
  endfacet
  facet normal 0 0 -1
    outer loop
      vertex -44.0166 9.35603 19.5
      vertex -30.9271 2.85317 19.5
      vertex -32.4271 1.76336 19.5
    endloop
  endfacet
  facet normal 0 0 -1
    outer loop
      vertex -45 0 19.5
      vertex -32.4271 1.76336 19.5
      vertex -33 0 19.5
    endloop
  endfacet
  facet normal -0 0 -1
    outer loop
      vertex -30.9271 -2.85317 19.5
      vertex -44.0166 -9.35603 19.5
      vertex -32.4271 -1.76336 19.5
    endloop
  endfacet
  facet normal 0 0 -1
    outer loop
      vertex -29.0729 2.85317 19.5
      vertex -36.4058 26.4503 19.5
      vertex -30.1109 33.4415 19.5
    endloop
  endfacet
  facet normal 0 0 -1
    outer loop
      vertex -45 0 19.5
      vertex -32.4271 -1.76336 19.5
      vertex -44.0166 -9.35603 19.5
    endloop
  endfacet
  facet normal 0 0 -1
    outer loop
      vertex -29.0729 2.85317 19.5
      vertex -41.1095 18.3031 19.5
      vertex -36.4058 26.4503 19.5
    endloop
  endfacet
  facet normal 0 0 -1
    outer loop
      vertex -32.4271 -1.76336 19.5
      vertex -45 0 19.5
      vertex -33 0 19.5
    endloop
  endfacet
  facet normal 0 0 -1
    outer loop
      vertex -30.9271 2.85317 19.5
      vertex -44.0166 9.35603 19.5
      vertex -41.1095 18.3031 19.5
    endloop
  endfacet
  facet normal -0 0 -1
    outer loop
      vertex -32.4271 1.76336 19.5
      vertex -45 0 19.5
      vertex -44.0166 9.35603 19.5
    endloop
  endfacet
  facet normal 0 0 -1
    outer loop
      vertex 32.4271 -1.76336 19.5
      vertex 45 0 19.5
      vertex 44.0166 -9.35603 19.5
    endloop
  endfacet
  facet normal 0 0 -1
    outer loop
      vertex 30.9271 -2.85317 19.5
      vertex 44.0166 -9.35603 19.5
      vertex 41.1095 -18.3031 19.5
    endloop
  endfacet
  facet normal 0 0 -1
    outer loop
      vertex 32.4271 1.76336 19.5
      vertex 45 0 19.5
      vertex 33 0 19.5
    endloop
  endfacet
  facet normal 0 0 -1
    outer loop
      vertex 29.0729 -2.85317 19.5
      vertex 41.1095 -18.3031 19.5
      vertex 36.4058 -26.4503 19.5
    endloop
  endfacet
  facet normal 0 0 -1
    outer loop
      vertex 45 0 19.5
      vertex 32.4271 1.76336 19.5
      vertex 44.0166 9.35603 19.5
    endloop
  endfacet
  facet normal 0 0 -1
    outer loop
      vertex 30.9271 2.85317 19.5
      vertex 44.0166 9.35603 19.5
      vertex 32.4271 1.76336 19.5
    endloop
  endfacet
  facet normal -0 0 -1
    outer loop
      vertex 45 0 19.5
      vertex 32.4271 -1.76336 19.5
      vertex 33 0 19.5
    endloop
  endfacet
  facet normal 0 0 -1
    outer loop
      vertex 44.0166 -9.35603 19.5
      vertex 30.9271 -2.85317 19.5
      vertex 32.4271 -1.76336 19.5
    endloop
  endfacet
  facet normal 0 0 -1
    outer loop
      vertex 29.0729 -2.85317 19.5
      vertex 36.4058 -26.4503 19.5
      vertex 30.1109 -33.4415 19.5
    endloop
  endfacet
  facet normal 0 0 -1
    outer loop
      vertex 41.1095 -18.3031 19.5
      vertex 29.0729 -2.85317 19.5
      vertex 30.9271 -2.85317 19.5
    endloop
  endfacet
  facet normal 0 0 -1
    outer loop
      vertex 30.1109 -33.4415 19.5
      vertex 27.5729 -1.76336 19.5
      vertex 29.0729 -2.85317 19.5
    endloop
  endfacet
  facet normal 0 0 -1
    outer loop
      vertex 22.5 -38.9711 19.5
      vertex 27.5729 -1.76336 19.5
      vertex 30.1109 -33.4415 19.5
    endloop
  endfacet
  facet normal 0 0 -1
    outer loop
      vertex 13.9058 -42.7975 19.5
      vertex 27.5729 -1.76336 19.5
      vertex 22.5 -38.9711 19.5
    endloop
  endfacet
  facet normal -0 0 -1
    outer loop
      vertex 44.0166 9.35603 19.5
      vertex 30.9271 2.85317 19.5
      vertex 41.1095 18.3031 19.5
    endloop
  endfacet
  facet normal 0 0 -1
    outer loop
      vertex 29.0729 2.85317 19.5
      vertex 41.1095 18.3031 19.5
      vertex 30.9271 2.85317 19.5
    endloop
  endfacet
  facet normal -0 0 -1
    outer loop
      vertex 41.1095 18.3031 19.5
      vertex 29.0729 2.85317 19.5
      vertex 36.4058 26.4503 19.5
    endloop
  endfacet
  facet normal -0 0 -1
    outer loop
      vertex 36.4058 26.4503 19.5
      vertex 29.0729 2.85317 19.5
      vertex 30.1109 33.4415 19.5
    endloop
  endfacet
  facet normal 0 0 -1
    outer loop
      vertex 27.5729 1.76336 19.5
      vertex 30.1109 33.4415 19.5
      vertex 29.0729 2.85317 19.5
    endloop
  endfacet
  facet normal 0 0 -1
    outer loop
      vertex -27 0 19.5
      vertex 27.5729 1.76336 19.5
      vertex 27 0 19.5
    endloop
  endfacet
  facet normal 0 0 -1
    outer loop
      vertex 4.70378 -44.7535 19.5
      vertex 27.5729 -1.76336 19.5
      vertex 13.9058 -42.7975 19.5
    endloop
  endfacet
  facet normal 0 0 -1
    outer loop
      vertex -27.5729 1.76336 19.5
      vertex 27.5729 1.76336 19.5
      vertex -27 0 19.5
    endloop
  endfacet
  facet normal 0 0 -1
    outer loop
      vertex -27.5729 -1.76336 19.5
      vertex 27.5729 -1.76336 19.5
      vertex 4.70378 -44.7535 19.5
    endloop
  endfacet
  facet normal 0 0 -1
    outer loop
      vertex 27.5729 1.76336 19.5
      vertex 22.5 38.9711 19.5
      vertex 30.1109 33.4415 19.5
    endloop
  endfacet
  facet normal 0 0 -1
    outer loop
      vertex 27.5729 -1.76336 19.5
      vertex -27.5729 -1.76336 19.5
      vertex 27 0 19.5
    endloop
  endfacet
  facet normal 0 0 -1
    outer loop
      vertex 27.5729 1.76336 19.5
      vertex 13.9058 42.7975 19.5
      vertex 22.5 38.9711 19.5
    endloop
  endfacet
  facet normal 0 0 -1
    outer loop
      vertex -27.5729 -1.76336 19.5
      vertex 4.70378 -44.7535 19.5
      vertex -4.70378 -44.7535 19.5
    endloop
  endfacet
  facet normal 0 0 -1
    outer loop
      vertex 27.5729 1.76336 19.5
      vertex 4.70378 44.7535 19.5
      vertex 13.9058 42.7975 19.5
    endloop
  endfacet
  facet normal 0 0 -1
    outer loop
      vertex -27.5729 -1.76336 19.5
      vertex -4.70378 -44.7535 19.5
      vertex -13.9058 -42.7975 19.5
    endloop
  endfacet
  facet normal 0 0 -1
    outer loop
      vertex 27.5729 1.76336 19.5
      vertex -27.5729 1.76336 19.5
      vertex 4.70378 44.7535 19.5
    endloop
  endfacet
  facet normal 0 0 -1
    outer loop
      vertex -27.5729 -1.76336 19.5
      vertex -13.9058 -42.7975 19.5
      vertex -22.5 -38.9711 19.5
    endloop
  endfacet
  facet normal -0 0 -1
    outer loop
      vertex 4.70378 44.7535 19.5
      vertex -27.5729 1.76336 19.5
      vertex -4.70378 44.7535 19.5
    endloop
  endfacet
  facet normal 0 0 -1
    outer loop
      vertex -4.70378 44.7535 19.5
      vertex -27.5729 1.76336 19.5
      vertex -13.9058 42.7975 19.5
    endloop
  endfacet
  facet normal -0 0 -1
    outer loop
      vertex 27 0 19.5
      vertex -27.5729 -1.76336 19.5
      vertex -27 0 19.5
    endloop
  endfacet
  facet normal 0 0 -1
    outer loop
      vertex -30.1109 -33.4415 19.5
      vertex -27.5729 -1.76336 19.5
      vertex -22.5 -38.9711 19.5
    endloop
  endfacet
  facet normal 0 0 -1
    outer loop
      vertex -27.5729 -1.76336 19.5
      vertex -30.1109 -33.4415 19.5
      vertex -29.0729 -2.85317 19.5
    endloop
  endfacet
  facet normal 0 0 -1
    outer loop
      vertex -36.4058 -26.4503 19.5
      vertex -29.0729 -2.85317 19.5
      vertex -30.1109 -33.4415 19.5
    endloop
  endfacet
  facet normal 0 0 -1
    outer loop
      vertex -41.1095 -18.3031 19.5
      vertex -29.0729 -2.85317 19.5
      vertex -36.4058 -26.4503 19.5
    endloop
  endfacet
  facet normal -0 0 -1
    outer loop
      vertex -29.0729 -2.85317 19.5
      vertex -41.1095 -18.3031 19.5
      vertex -30.9271 -2.85317 19.5
    endloop
  endfacet
  facet normal 0 0 -1
    outer loop
      vertex -44.0166 -9.35603 19.5
      vertex -30.9271 -2.85317 19.5
      vertex -41.1095 -18.3031 19.5
    endloop
  endfacet
  facet normal 0.866025 -0.5 0
    outer loop
      vertex 40.4509 -29.3893 24.5
      vertex 45.6773 -20.3368 19.5
      vertex 45.6773 -20.3368 24.5
    endloop
  endfacet
  facet normal 0.866025 -0.5 0
    outer loop
      vertex 45.6773 -20.3368 19.5
      vertex 40.4509 -29.3893 24.5
      vertex 40.4509 -29.3893 19.5
    endloop
  endfacet
  facet normal -0.866025 -0.5 0
    outer loop
      vertex -40.4509 -29.3893 19.5
      vertex -45.6773 -20.3368 24.5
      vertex -45.6773 -20.3368 19.5
    endloop
  endfacet
  facet normal -0.866025 -0.5 0
    outer loop
      vertex -45.6773 -20.3368 24.5
      vertex -40.4509 -29.3893 19.5
      vertex -40.4509 -29.3893 24.5
    endloop
  endfacet
  facet normal 0.587785 -0.809017 0
    outer loop
      vertex 25 -43.3013 19.5
      vertex 33.4565 -37.1572 24.5
      vertex 25 -43.3013 24.5
    endloop
  endfacet
  facet normal 0.587785 -0.809017 0
    outer loop
      vertex 33.4565 -37.1572 24.5
      vertex 25 -43.3013 19.5
      vertex 33.4565 -37.1572 19.5
    endloop
  endfacet
  facet normal -0.207912 -0.978148 0
    outer loop
      vertex -15.4508 -47.5528 19.5
      vertex -5.22642 -49.7261 24.5
      vertex -15.4508 -47.5528 24.5
    endloop
  endfacet
  facet normal -0.207912 -0.978148 -0
    outer loop
      vertex -5.22642 -49.7261 24.5
      vertex -15.4508 -47.5528 19.5
      vertex -5.22642 -49.7261 19.5
    endloop
  endfacet
  facet normal -0.743145 -0.669131 0
    outer loop
      vertex -33.4565 -37.1572 19.5
      vertex -40.4509 -29.3893 24.5
      vertex -40.4509 -29.3893 19.5
    endloop
  endfacet
  facet normal -0.743145 -0.669131 0
    outer loop
      vertex -40.4509 -29.3893 24.5
      vertex -33.4565 -37.1572 19.5
      vertex -33.4565 -37.1572 24.5
    endloop
  endfacet
  facet normal -0.951057 -0.309017 0
    outer loop
      vertex -45.6773 -20.3368 19.5
      vertex -48.9074 -10.3956 24.5
      vertex -48.9074 -10.3956 19.5
    endloop
  endfacet
  facet normal -0.951057 -0.309017 0
    outer loop
      vertex -48.9074 -10.3956 24.5
      vertex -45.6773 -20.3368 19.5
      vertex -45.6773 -20.3368 24.5
    endloop
  endfacet
  facet normal -0.994522 -0.104529 0
    outer loop
      vertex -48.9074 -10.3956 19.5
      vertex -50 0 24.5
      vertex -50 0 19.5
    endloop
  endfacet
  facet normal -0.994522 -0.104529 0
    outer loop
      vertex -50 0 24.5
      vertex -48.9074 -10.3956 19.5
      vertex -48.9074 -10.3956 24.5
    endloop
  endfacet
  facet normal 0.406737 -0.913545 0
    outer loop
      vertex 15.4508 -47.5528 19.5
      vertex 25 -43.3013 24.5
      vertex 15.4508 -47.5528 24.5
    endloop
  endfacet
  facet normal 0.406737 -0.913545 0
    outer loop
      vertex 25 -43.3013 24.5
      vertex 15.4508 -47.5528 19.5
      vertex 25 -43.3013 19.5
    endloop
  endfacet
  facet normal 0.207912 -0.978148 0
    outer loop
      vertex 5.22642 -49.7261 19.5
      vertex 15.4508 -47.5528 24.5
      vertex 5.22642 -49.7261 24.5
    endloop
  endfacet
  facet normal 0.207912 -0.978148 0
    outer loop
      vertex 15.4508 -47.5528 24.5
      vertex 5.22642 -49.7261 19.5
      vertex 15.4508 -47.5528 19.5
    endloop
  endfacet
  facet normal 0.743145 -0.669131 0
    outer loop
      vertex 33.4565 -37.1572 24.5
      vertex 40.4509 -29.3893 19.5
      vertex 40.4509 -29.3893 24.5
    endloop
  endfacet
  facet normal 0.743145 -0.669131 0
    outer loop
      vertex 40.4509 -29.3893 19.5
      vertex 33.4565 -37.1572 24.5
      vertex 33.4565 -37.1572 19.5
    endloop
  endfacet
  facet normal -0.406737 -0.913545 0
    outer loop
      vertex -25 -43.3013 19.5
      vertex -15.4508 -47.5528 24.5
      vertex -25 -43.3013 24.5
    endloop
  endfacet
  facet normal -0.406737 -0.913545 -0
    outer loop
      vertex -15.4508 -47.5528 24.5
      vertex -25 -43.3013 19.5
      vertex -15.4508 -47.5528 19.5
    endloop
  endfacet
  facet normal -0.587785 -0.809017 0
    outer loop
      vertex -33.4565 -37.1572 19.5
      vertex -25 -43.3013 24.5
      vertex -33.4565 -37.1572 24.5
    endloop
  endfacet
  facet normal -0.587785 -0.809017 -0
    outer loop
      vertex -25 -43.3013 24.5
      vertex -33.4565 -37.1572 19.5
      vertex -25 -43.3013 19.5
    endloop
  endfacet
  facet normal 0.951057 0.309017 0
    outer loop
      vertex 33 0 19.5
      vertex 32.4271 1.76336 12
      vertex 32.4271 1.76336 19.5
    endloop
  endfacet
  facet normal 0.951057 0.309017 0
    outer loop
      vertex 32.4271 1.76336 12
      vertex 33 0 19.5
      vertex 33 0 12
    endloop
  endfacet
  facet normal -0.951057 -0.309017 0
    outer loop
      vertex 27.5729 -1.76336 12
      vertex 27 0 19.5
      vertex 27 0 12
    endloop
  endfacet
  facet normal -0.951057 -0.309017 0
    outer loop
      vertex 27 0 19.5
      vertex 27.5729 -1.76336 12
      vertex 27.5729 -1.76336 19.5
    endloop
  endfacet
  facet normal 0 1 -0
    outer loop
      vertex 30.9271 2.85317 12
      vertex 29.0729 2.85317 19.5
      vertex 30.9271 2.85317 19.5
    endloop
  endfacet
  facet normal 0 1 0
    outer loop
      vertex 29.0729 2.85317 19.5
      vertex 30.9271 2.85317 12
      vertex 29.0729 2.85317 12
    endloop
  endfacet
  facet normal 0.587785 0.809017 -0
    outer loop
      vertex 32.4271 1.76336 12
      vertex 30.9271 2.85317 19.5
      vertex 32.4271 1.76336 19.5
    endloop
  endfacet
  facet normal 0.587785 0.809017 0
    outer loop
      vertex 30.9271 2.85317 19.5
      vertex 32.4271 1.76336 12
      vertex 30.9271 2.85317 12
    endloop
  endfacet
  facet normal -0.587785 0.809017 0
    outer loop
      vertex 29.0729 2.85317 12
      vertex 27.5729 1.76336 19.5
      vertex 29.0729 2.85317 19.5
    endloop
  endfacet
  facet normal -0.587785 0.809017 0
    outer loop
      vertex 27.5729 1.76336 19.5
      vertex 29.0729 2.85317 12
      vertex 27.5729 1.76336 12
    endloop
  endfacet
  facet normal 0.587785 -0.809017 0
    outer loop
      vertex 30.9271 -2.85317 12
      vertex 32.4271 -1.76336 19.5
      vertex 30.9271 -2.85317 19.5
    endloop
  endfacet
  facet normal 0.587785 -0.809017 0
    outer loop
      vertex 32.4271 -1.76336 19.5
      vertex 30.9271 -2.85317 12
      vertex 32.4271 -1.76336 12
    endloop
  endfacet
  facet normal -0.587785 -0.809017 0
    outer loop
      vertex 27.5729 -1.76336 12
      vertex 29.0729 -2.85317 19.5
      vertex 27.5729 -1.76336 19.5
    endloop
  endfacet
  facet normal -0.587785 -0.809017 -0
    outer loop
      vertex 29.0729 -2.85317 19.5
      vertex 27.5729 -1.76336 12
      vertex 29.0729 -2.85317 12
    endloop
  endfacet
  facet normal 0 0 -1
    outer loop
      vertex 32.4271 -1.76336 12
      vertex 32.4271 1.76336 12
      vertex 33 0 12
    endloop
  endfacet
  facet normal 0 0 -1
    outer loop
      vertex 30.9271 -2.85317 12
      vertex 32.4271 1.76336 12
      vertex 32.4271 -1.76336 12
    endloop
  endfacet
  facet normal 0 0 -1
    outer loop
      vertex 30.9271 -2.85317 12
      vertex 30.9271 2.85317 12
      vertex 32.4271 1.76336 12
    endloop
  endfacet
  facet normal 0 0 -1
    outer loop
      vertex 29.0729 -2.85317 12
      vertex 30.9271 2.85317 12
      vertex 30.9271 -2.85317 12
    endloop
  endfacet
  facet normal 0 0 -1
    outer loop
      vertex 29.0729 -2.85317 12
      vertex 29.0729 2.85317 12
      vertex 30.9271 2.85317 12
    endloop
  endfacet
  facet normal 0 0 -1
    outer loop
      vertex 27.5729 -1.76336 12
      vertex 29.0729 2.85317 12
      vertex 29.0729 -2.85317 12
    endloop
  endfacet
  facet normal 0 0 -1
    outer loop
      vertex 27.5729 -1.76336 12
      vertex 27.5729 1.76336 12
      vertex 29.0729 2.85317 12
    endloop
  endfacet
  facet normal 0 -0 -1
    outer loop
      vertex 27.5729 1.76336 12
      vertex 27.5729 -1.76336 12
      vertex 27 0 12
    endloop
  endfacet
  facet normal -0.951057 0.309017 0
    outer loop
      vertex 27 0 12
      vertex 27.5729 1.76336 19.5
      vertex 27.5729 1.76336 12
    endloop
  endfacet
  facet normal -0.951057 0.309017 0
    outer loop
      vertex 27.5729 1.76336 19.5
      vertex 27 0 12
      vertex 27 0 19.5
    endloop
  endfacet
  facet normal 0.951057 -0.309017 0
    outer loop
      vertex 32.4271 -1.76336 19.5
      vertex 33 0 12
      vertex 33 0 19.5
    endloop
  endfacet
  facet normal 0.951057 -0.309017 0
    outer loop
      vertex 33 0 12
      vertex 32.4271 -1.76336 19.5
      vertex 32.4271 -1.76336 12
    endloop
  endfacet
  facet normal 0 -1 0
    outer loop
      vertex 29.0729 -2.85317 12
      vertex 30.9271 -2.85317 19.5
      vertex 29.0729 -2.85317 19.5
    endloop
  endfacet
  facet normal 0 -1 -0
    outer loop
      vertex 30.9271 -2.85317 19.5
      vertex 29.0729 -2.85317 12
      vertex 30.9271 -2.85317 12
    endloop
  endfacet
  facet normal 0.951057 0.309017 0
    outer loop
      vertex -27 0 19.5
      vertex -27.5729 1.76336 12
      vertex -27.5729 1.76336 19.5
    endloop
  endfacet
  facet normal 0.951057 0.309017 0
    outer loop
      vertex -27.5729 1.76336 12
      vertex -27 0 19.5
      vertex -27 0 12
    endloop
  endfacet
  facet normal -0.951057 0.309017 0
    outer loop
      vertex -33 0 12
      vertex -32.4271 1.76336 19.5
      vertex -32.4271 1.76336 12
    endloop
  endfacet
  facet normal -0.951057 0.309017 0
    outer loop
      vertex -32.4271 1.76336 19.5
      vertex -33 0 12
      vertex -33 0 19.5
    endloop
  endfacet
  facet normal 0 -1 0
    outer loop
      vertex -30.9271 -2.85317 12
      vertex -29.0729 -2.85317 19.5
      vertex -30.9271 -2.85317 19.5
    endloop
  endfacet
  facet normal 0 -1 -0
    outer loop
      vertex -29.0729 -2.85317 19.5
      vertex -30.9271 -2.85317 12
      vertex -29.0729 -2.85317 12
    endloop
  endfacet
  facet normal 0 1 -0
    outer loop
      vertex -29.0729 2.85317 12
      vertex -30.9271 2.85317 19.5
      vertex -29.0729 2.85317 19.5
    endloop
  endfacet
  facet normal 0 1 0
    outer loop
      vertex -30.9271 2.85317 19.5
      vertex -29.0729 2.85317 12
      vertex -30.9271 2.85317 12
    endloop
  endfacet
  facet normal 0.587785 0.809017 -0
    outer loop
      vertex -27.5729 1.76336 12
      vertex -29.0729 2.85317 19.5
      vertex -27.5729 1.76336 19.5
    endloop
  endfacet
  facet normal 0.587785 0.809017 0
    outer loop
      vertex -29.0729 2.85317 19.5
      vertex -27.5729 1.76336 12
      vertex -29.0729 2.85317 12
    endloop
  endfacet
  facet normal -0.587785 0.809017 0
    outer loop
      vertex -30.9271 2.85317 12
      vertex -32.4271 1.76336 19.5
      vertex -30.9271 2.85317 19.5
    endloop
  endfacet
  facet normal -0.587785 0.809017 0
    outer loop
      vertex -32.4271 1.76336 19.5
      vertex -30.9271 2.85317 12
      vertex -32.4271 1.76336 12
    endloop
  endfacet
  facet normal 0.587785 -0.809017 0
    outer loop
      vertex -29.0729 -2.85317 12
      vertex -27.5729 -1.76336 19.5
      vertex -29.0729 -2.85317 19.5
    endloop
  endfacet
  facet normal 0.587785 -0.809017 0
    outer loop
      vertex -27.5729 -1.76336 19.5
      vertex -29.0729 -2.85317 12
      vertex -27.5729 -1.76336 12
    endloop
  endfacet
  facet normal 0.951057 -0.309017 0
    outer loop
      vertex -27.5729 -1.76336 19.5
      vertex -27 0 12
      vertex -27 0 19.5
    endloop
  endfacet
  facet normal 0.951057 -0.309017 0
    outer loop
      vertex -27 0 12
      vertex -27.5729 -1.76336 19.5
      vertex -27.5729 -1.76336 12
    endloop
  endfacet
  facet normal 0 0 -1
    outer loop
      vertex -27.5729 -1.76336 12
      vertex -27.5729 1.76336 12
      vertex -27 0 12
    endloop
  endfacet
  facet normal 0 0 -1
    outer loop
      vertex -29.0729 -2.85317 12
      vertex -27.5729 1.76336 12
      vertex -27.5729 -1.76336 12
    endloop
  endfacet
  facet normal 0 0 -1
    outer loop
      vertex -29.0729 -2.85317 12
      vertex -29.0729 2.85317 12
      vertex -27.5729 1.76336 12
    endloop
  endfacet
  facet normal 0 0 -1
    outer loop
      vertex -30.9271 -2.85317 12
      vertex -29.0729 2.85317 12
      vertex -29.0729 -2.85317 12
    endloop
  endfacet
  facet normal 0 0 -1
    outer loop
      vertex -30.9271 -2.85317 12
      vertex -30.9271 2.85317 12
      vertex -29.0729 2.85317 12
    endloop
  endfacet
  facet normal 0 0 -1
    outer loop
      vertex -32.4271 -1.76336 12
      vertex -30.9271 2.85317 12
      vertex -30.9271 -2.85317 12
    endloop
  endfacet
  facet normal 0 0 -1
    outer loop
      vertex -32.4271 -1.76336 12
      vertex -32.4271 1.76336 12
      vertex -30.9271 2.85317 12
    endloop
  endfacet
  facet normal 0 -0 -1
    outer loop
      vertex -32.4271 1.76336 12
      vertex -32.4271 -1.76336 12
      vertex -33 0 12
    endloop
  endfacet
  facet normal -0.587785 -0.809017 0
    outer loop
      vertex -32.4271 -1.76336 12
      vertex -30.9271 -2.85317 19.5
      vertex -32.4271 -1.76336 19.5
    endloop
  endfacet
  facet normal -0.587785 -0.809017 -0
    outer loop
      vertex -30.9271 -2.85317 19.5
      vertex -32.4271 -1.76336 12
      vertex -30.9271 -2.85317 12
    endloop
  endfacet
  facet normal -0.951057 -0.309017 0
    outer loop
      vertex -32.4271 -1.76336 12
      vertex -33 0 19.5
      vertex -33 0 12
    endloop
  endfacet
  facet normal -0.951057 -0.309017 0
    outer loop
      vertex -33 0 19.5
      vertex -32.4271 -1.76336 12
      vertex -32.4271 -1.76336 19.5
    endloop
  endfacet
endsolid OpenSCAD_Model
